<svg width="225" height="122" viewBox="0 0 225 122" fill="none" xmlns="http://www.w3.org/2000/svg">
<g clip-path="url(#clip0_604_13296)">
<path d="M102.523 34.0821C102.523 33.7645 102.679 33.6091 102.996 33.6091H113.841C116.916 33.6091 119.254 34.3659 120.855 35.866C122.457 37.3728 123.261 39.4066 123.261 41.9743C123.261 43.9743 122.808 45.5757 121.902 46.7785C120.997 47.9812 119.788 48.8056 118.267 49.2515V49.3461C118.869 49.4745 119.497 49.7178 120.146 50.0826C120.794 50.4475 121.389 50.9543 121.929 51.603C122.47 52.2516 122.909 53.0287 123.261 53.9341C123.605 54.8396 123.781 55.8734 123.781 57.0491C123.781 59.8397 122.923 62.0222 121.213 63.5898C119.504 65.1575 117.044 65.9413 113.841 65.9413H102.996C102.679 65.9413 102.523 65.7859 102.523 65.4683V34.0821ZM113.794 48.2042C115.983 48.2042 117.652 47.6501 118.815 46.542C119.97 45.4338 120.551 43.9878 120.551 42.2108C120.551 40.3391 119.97 38.8661 118.815 37.7849C117.659 36.7106 115.983 36.17 113.794 36.17H105.517C105.328 36.17 105.233 36.2646 105.233 36.4538V47.9137C105.233 48.1028 105.328 48.1974 105.517 48.1974H113.794V48.2042ZM105.233 63.0898C105.233 63.279 105.328 63.3736 105.517 63.3736H114.031C116.341 63.3736 118.098 62.7993 119.287 61.6641C120.477 60.5222 121.071 59.0019 121.071 57.0964C121.071 55.1909 120.477 53.6638 119.287 52.5084C118.098 51.353 116.348 50.7719 114.031 50.7719H105.517C105.328 50.7719 105.233 50.8664 105.233 51.0556V63.0898Z" fill="#2D2D2D"/>
<path d="M127.444 37.2174C127.126 37.2174 126.971 37.0619 126.971 36.7444V34.0821C126.971 33.7645 127.126 33.6091 127.444 33.6091H129.538C129.856 33.6091 130.011 33.7713 130.011 34.0821V36.7444C130.011 37.0619 129.849 37.2174 129.538 37.2174H127.444ZM127.68 65.9413C127.363 65.9413 127.207 65.7859 127.207 65.4683V43.7311C127.207 43.4135 127.363 43.2581 127.68 43.2581H129.295C129.613 43.2581 129.768 43.4203 129.768 43.7311V65.4683C129.768 65.7859 129.606 65.9413 129.295 65.9413H127.68Z" fill="#2D2D2D"/>
<path d="M139.383 66.0899C137.673 66.0899 136.457 65.6777 135.747 64.8534C135.031 64.029 134.68 62.6641 134.68 60.7654V34.0821C134.68 33.7645 134.835 33.6091 135.153 33.6091H136.768C137.085 33.6091 137.241 33.7713 137.241 34.0821V60.6641C137.241 61.7722 137.43 62.5425 137.815 62.9682C138.2 63.3939 138.815 63.6101 139.673 63.6101H140.484C140.802 63.6101 140.957 63.7723 140.957 64.0831V65.6034C140.957 65.921 140.795 66.0764 140.484 66.0764H139.389L139.383 66.0899Z" fill="#2D2D2D"/>
<path d="M148.039 66.0899C146.329 66.0899 145.113 65.6777 144.404 64.8534C143.687 64.029 143.336 62.6641 143.336 60.7654V34.0821C143.336 33.7645 143.491 33.6091 143.809 33.6091H145.424C145.741 33.6091 145.897 33.7713 145.897 34.0821V60.6641C145.897 61.7722 146.086 62.5425 146.471 62.9682C146.856 63.3939 147.471 63.6101 148.329 63.6101H149.14C149.458 63.6101 149.613 63.7723 149.613 64.0831V65.6034C149.613 65.921 149.451 66.0764 149.14 66.0764H148.046L148.039 66.0899Z" fill="#2D2D2D"/>
<path d="M150.89 59.0967C150.89 58.8399 150.971 58.6237 151.126 58.4277L162.491 46.5827C163.093 45.9476 163.512 45.3732 163.755 44.8462C163.998 44.3192 164.113 43.7448 164.113 43.1097C164.113 41.4609 163.383 40.6366 161.924 40.6366C161.228 40.6366 160.647 40.8731 160.187 41.3528C159.728 41.8258 159.451 42.7177 159.356 44.0151C159.356 44.3664 159.18 44.5083 158.836 44.4408L151.369 43.4407C151.086 43.407 150.944 43.238 150.944 42.9205C151.005 41.4272 151.342 40.0758 151.944 38.8528C152.545 37.6297 153.356 36.5959 154.369 35.7378C155.383 34.8797 156.579 34.2175 157.957 33.7377C159.336 33.2647 160.816 33.0215 162.404 33.0215C163.991 33.0215 165.451 33.258 166.802 33.7377C168.147 34.2107 169.302 34.8797 170.275 35.7378C171.242 36.5959 171.992 37.6162 172.532 38.8055C173.073 39.9947 173.343 41.2853 173.343 42.684C173.343 44.4881 173.005 46.0692 172.323 47.4138C171.64 48.7585 170.701 50.0356 169.492 51.2451L162.836 58.0426V58.1372H172.87C173.188 58.1372 173.343 58.2993 173.343 58.6102V65.4617C173.343 65.7793 173.188 65.9347 172.87 65.9347H151.376C151.059 65.9347 150.903 65.7793 150.903 65.4617V59.0899L150.89 59.0967Z" fill="#2D2D2D"/>
<path d="M176.951 58.6236C176.762 58.056 176.607 57.4952 176.499 56.9614C176.384 56.4208 176.303 55.8194 176.235 55.1572C176.174 54.4883 176.127 53.7315 176.093 52.8734C176.059 52.0152 176.046 50.9882 176.046 49.7854C176.046 48.5827 176.059 47.5489 176.093 46.6975C176.127 45.8394 176.174 45.0826 176.235 44.4136C176.296 43.7447 176.384 43.1433 176.499 42.6095C176.607 42.069 176.762 41.5149 176.951 40.9473C177.776 38.3188 179.242 36.3526 181.35 35.0485C183.458 33.7511 185.958 33.0957 188.844 33.0957C190.364 33.0957 191.742 33.2714 192.979 33.616C194.215 33.9674 195.317 34.4471 196.283 35.0687C197.249 35.6836 198.074 36.4134 198.756 37.258C199.439 38.0959 199.972 39.0081 200.351 39.9946C200.506 40.3122 200.445 40.5487 200.162 40.7108L195.074 42.8528C194.722 42.9474 194.499 42.8663 194.405 42.6163C193.769 41.5081 193.019 40.677 192.148 40.123C191.276 39.5689 190.175 39.2919 188.844 39.2919C187.512 39.2919 186.323 39.6162 185.465 40.2649C184.607 40.9135 184.006 41.7919 183.654 42.9068C183.56 43.1906 183.479 43.515 183.418 43.8798C183.357 44.2447 183.296 44.6907 183.249 45.211C183.202 45.7313 183.168 46.3664 183.154 47.1164C183.141 47.8597 183.127 48.7584 183.127 49.8057C183.127 50.853 183.134 51.7585 183.154 52.5153C183.168 53.2788 183.202 53.9207 183.249 54.441C183.296 54.9613 183.35 55.4072 183.418 55.7721C183.479 56.137 183.56 56.4613 183.654 56.7451C184.006 57.8533 184.614 58.7249 185.485 59.3601C186.357 59.9952 187.506 60.3128 188.931 60.3128C190.134 60.3128 191.215 60.029 192.168 59.4547C193.121 58.8803 193.769 58.0627 194.121 56.9816C194.249 56.5694 194.344 56.11 194.405 55.6032C194.465 55.0964 194.499 54.4951 194.499 53.7991C194.499 53.6099 194.405 53.5153 194.215 53.5153H189.837C189.519 53.5153 189.364 53.3599 189.364 53.0423V48.4746C189.364 48.157 189.519 48.0016 189.837 48.0016H200.966C201.283 48.0016 201.439 48.1638 201.439 48.4746V51.1368C201.439 52.5626 201.378 53.914 201.249 55.1775C201.121 56.4478 200.918 57.5222 200.628 58.4141C199.803 61.0155 198.351 63.0088 196.276 64.4075C194.202 65.8062 191.715 66.5022 188.83 66.5022C185.945 66.5022 183.445 65.8535 181.337 64.5494C179.228 63.2521 177.762 61.2858 176.938 58.6506L176.951 58.6236Z" fill="#2D2D2D"/>
<path d="M213.433 66.4685C210.994 66.4685 208.886 65.9144 207.109 64.8063C205.331 63.6981 204.108 62.0967 203.446 60.0021C203.189 59.1777 203 58.3331 202.879 57.4547C202.75 56.583 202.689 55.5763 202.689 54.4343C202.689 53.2924 202.75 52.2856 202.879 51.414C203.007 50.5423 203.196 49.6977 203.446 48.8666C204.115 46.7719 205.331 45.1705 207.109 44.0624C208.886 42.9542 210.994 42.4001 213.433 42.4001C215.872 42.4001 217.98 42.9542 219.758 44.0624C221.535 45.1705 222.751 46.7719 223.42 48.8666C223.67 49.6909 223.866 50.5423 223.994 51.414C224.123 52.2856 224.183 53.2924 224.183 54.4343C224.183 55.5763 224.123 56.583 223.994 57.4547C223.866 58.3263 223.677 59.1777 223.42 60.0021C222.751 62.0967 221.535 63.6981 219.758 64.8063C217.98 65.9144 215.872 66.4685 213.433 66.4685ZM213.433 60.8535C215.271 60.8535 216.46 60.0291 217.001 58.3804C217.156 57.8398 217.271 57.2925 217.332 56.7385C217.393 56.1844 217.426 55.4141 217.426 54.4343C217.426 53.4546 217.393 52.6843 217.332 52.1302C217.264 51.5761 217.156 51.0288 217.001 50.4882C216.46 48.8395 215.271 48.0152 213.433 48.0152C211.595 48.0152 210.406 48.8395 209.865 50.4882C209.71 51.0288 209.595 51.5761 209.534 52.1302C209.473 52.6843 209.44 53.4546 209.44 54.4343C209.44 55.4141 209.473 56.1844 209.534 56.7385C209.595 57.2925 209.71 57.8398 209.865 58.3804C210.406 60.0291 211.595 60.8535 213.433 60.8535Z" fill="#2D2D2D"/>
<path d="M222.229 36.5215C222.162 36.2309 222.04 36.0282 221.858 35.9269C222.169 35.785 222.351 35.5012 222.351 35.1566C222.351 34.9133 222.256 34.6903 222.094 34.5417C221.898 34.366 221.608 34.2849 221.189 34.2849C220.939 34.2849 220.648 34.3119 220.432 34.3457H220.385V37.4134H220.878V36.1093H221.189C221.513 36.1228 221.662 36.2647 221.743 36.6499C221.831 37.062 221.898 37.2918 221.946 37.3796L221.959 37.4066H222.479L222.439 37.3256C222.378 37.2107 222.304 36.9066 222.209 36.5147L222.229 36.5215ZM221.858 35.1903C221.858 35.5012 221.615 35.7039 221.236 35.7039H220.892V34.7038C220.946 34.6971 221.047 34.6836 221.223 34.6836C221.513 34.6836 221.858 34.7714 221.858 35.1836V35.1903Z" fill="#2D2D2D"/>
<path d="M221.331 32.9875C219.737 32.9875 218.439 34.2849 218.439 35.8795C218.439 37.4742 219.737 38.7715 221.331 38.7715C222.926 38.7715 224.223 37.4742 224.223 35.8795C224.223 34.2849 222.926 32.9875 221.331 32.9875ZM223.838 35.8795C223.838 37.2647 222.717 38.3864 221.331 38.3864C219.946 38.3864 218.825 37.2647 218.825 35.8795C218.825 34.4944 219.946 33.3727 221.331 33.3727C222.717 33.3727 223.838 34.4944 223.838 35.8795Z" fill="#2D2D2D"/>
<path d="M107.043 90.8003L104.212 95.0842C101.529 99.1384 98.4684 101.618 94.8467 102.645C91.1236 103.706 86.6234 103.24 81.4476 101.274C78.9745 100.328 76.6299 99.0708 74.3798 97.5708C80.2178 91.4219 83.9747 82.7933 84.8666 73.2862C85.8869 62.3602 82.9949 51.7044 76.9272 44.042C76.8596 43.9609 76.792 43.8798 76.7312 43.792C77.8664 41.2987 78.7245 38.6972 79.2853 36.035C80.6367 29.5821 80.0759 23.2305 77.6772 17.6763C75.346 12.2842 71.1499 7.74352 65.5484 4.54746C60.5347 1.68926 54.5954 0.0743456 48.8181 1.89003e-05C36.784 -0.135121 29.7162 2.03387 14.0129 14.5343L10.1344 17.629L17.3644 25.0076L20.4186 22.5751C34.6961 11.2031 39.5138 10.1693 48.6965 10.2774C52.7575 10.3247 56.9333 11.4599 60.4604 13.4667C64.1092 15.5478 66.8052 18.4128 68.2444 21.744C70.3121 26.5144 70.0621 31.7646 68.535 36.4877C65.9538 34.9674 63.251 34.0214 60.4739 33.6903C55.3724 33.0687 49.9668 34.9403 46.3721 38.5891C43.6355 41.373 42.2841 45.3191 42.7774 49.1435C43.2369 52.6639 45.2369 55.7248 48.2708 57.5289C52.4331 60.002 57.1157 60.4952 61.805 58.9344C65.0822 57.8465 68.1972 55.7789 70.6972 53.0626C73.873 58.4006 75.292 65.2386 74.6366 72.3199C73.9338 79.854 70.954 86.5637 66.3728 91.0503C63.0889 87.9488 59.9604 84.5231 56.8725 81.1581C54.3386 78.381 51.7101 75.516 49.0479 72.8808C45.2369 69.1036 40.0205 64.4413 33.473 61.9075C30.1283 60.6101 26.4458 60.0493 22.8105 60.2723C19.2766 60.4952 15.7698 61.4615 12.6615 63.0696C6.57351 66.2184 2.33688 71.5294 0.708452 78.0161C-0.392935 82.4081 -0.230768 87.165 1.18144 91.7598C2.51257 96.1248 4.90454 100.159 8.08707 103.422C11.1007 106.51 14.7832 108.97 19.0266 110.72C22.9795 112.348 27.2161 113.301 31.6216 113.531C39.48 113.95 46.5005 113.065 53.0953 110.821C57.5482 109.308 61.8321 107.152 66.0755 104.307C69.6431 106.976 73.4946 109.247 77.7853 110.882C82.4341 112.652 86.8397 113.524 90.9479 113.477C93.2723 113.456 95.5089 113.139 97.6373 112.531C103.644 110.828 108.732 106.862 112.773 100.753L115.604 96.4626L107.029 90.8003H107.043ZM63.5686 45.6231C62.1902 47.2921 60.3726 48.5962 58.5752 49.1908C56.7441 49.7989 55.0954 49.6368 53.5278 48.7043C53.2777 48.5557 53.0412 48.353 52.9737 47.8394C52.8858 47.157 53.1764 46.3394 53.7034 45.8123C54.8656 44.6299 56.7508 43.8798 58.4874 43.8596C58.7441 43.8596 58.9874 43.8731 59.2374 43.9001C60.8185 44.0961 62.3051 44.7245 63.6294 45.5556C63.6092 45.5758 63.5889 45.6029 63.5686 45.6299V45.6231ZM49.7979 101.084C44.4734 102.895 38.7097 103.612 32.1825 103.267C25.5674 102.916 19.4658 100.348 15.4522 96.2396C11.2426 91.9219 9.3709 85.7461 10.6818 80.5094C11.5804 76.9282 13.9589 73.9687 17.3914 72.1983C19.5064 71.1037 21.8848 70.5361 24.2565 70.5091C26.135 70.4888 28.0134 70.8131 29.7702 71.4888C32.2771 72.4618 35.9191 74.3268 41.8179 80.1851C44.3045 82.6446 46.7235 85.2933 49.2911 88.1042C52.1223 91.1922 54.9737 94.3139 57.9874 97.2735C55.2778 98.8816 52.5683 100.152 49.7911 101.091L49.7979 101.084Z" fill="#09681D"/>
<path d="M22.5605 65.0562L33.0947 6.77722L43.2031 8.60836L32.696 66.7319L22.5605 65.0562Z" fill="#09681D"/>
<path d="M124.713 90.4286L124.652 90.3677L124.713 90.3407L116.544 82.0026L116.517 82.0567L116.456 81.9958C116.456 81.9958 106.712 92.7057 90.6578 86.0433C90.6578 86.0433 84.9346 95.226 84.9279 95.226C84.7454 95.5166 90.7862 98.0099 91.2997 98.1585C95.4147 99.3613 99.6175 99.4289 103.847 98.9491C105.415 98.7667 107.28 98.5707 108.739 97.8072C107.976 99.1856 107.739 100.949 107.523 102.449C106.8 107.51 106.908 112.666 108.766 117.483C108.854 117.72 110.672 121.754 110.821 121.666L120.125 116.132C113.794 99.9424 124.706 90.4286 124.706 90.4286H124.713Z" fill="#09681D"/>
<path d="M37.2844 41.3191L33.5681 61.8941C33.5681 61.8941 31.2099 60.9075 28.4868 60.5089C26.0678 60.1508 23.4326 60.1981 23.4326 60.1981L27.0341 40.2717L37.2844 41.3191Z" fill="url(#paint0_linear_604_13296)"/>
<path d="M42.8591 10.4598L37.8521 38.1499L27.6221 36.981L31.6898 14.487C31.6898 14.487 33.9669 13.0072 36.967 11.8923C40.3657 10.6288 42.8591 10.4666 42.8591 10.4666V10.4598Z" fill="url(#paint1_linear_604_13296)"/>
<path d="M70.7043 53.0288C73.8801 58.3669 75.2991 65.2049 74.6437 72.2862C73.9409 79.8203 70.9611 86.5299 66.3799 91.0166L74.3869 97.5235C80.2249 91.3747 83.9886 82.746 84.8737 73.239C85.894 62.3129 83.002 51.6504 76.9343 43.9948C76.8667 43.9137 76.7991 43.8258 76.7316 43.7448C76.7316 43.7448 75.4004 46.6367 74.1572 48.7246C72.745 51.1099 70.6976 53.0356 70.6976 53.0356L70.7043 53.0288Z" fill="url(#paint2_linear_604_13296)"/>
<path d="M52.9743 47.7921C52.8865 47.1096 53.177 46.292 53.6973 45.765C54.8663 44.5758 56.7447 43.8325 58.4812 43.8122C58.738 43.8122 58.988 43.8257 59.2313 43.8528C60.8124 44.042 62.2922 44.6771 63.6233 45.5015C63.603 45.5285 63.5828 45.5488 63.5625 45.5758C63.5625 45.5758 65.2923 43.5419 66.5896 41.1635C67.887 38.785 68.5289 36.4539 68.5289 36.4539C65.9477 34.9336 63.2382 33.9876 60.4678 33.6497C55.3595 33.0281 49.9607 34.9065 46.366 38.5485C43.6227 41.3324 42.278 45.2785 42.7713 49.1029L52.9608 47.7921H52.9743Z" fill="url(#paint3_linear_604_13296)"/>
<path d="M94.8475 102.598C91.1312 103.652 86.6243 103.193 81.4552 101.226C78.9822 100.287 76.6375 99.0235 74.3874 97.5234C74.3874 97.5234 70.9954 101.28 66.0898 104.26C69.6575 106.929 73.5158 109.199 77.7997 110.835C82.4485 112.605 86.854 113.47 90.9623 113.429L94.8475 102.605V102.598Z" fill="url(#paint4_linear_604_13296)"/>
<path d="M41.8242 80.1377C44.3108 82.5972 46.7298 85.246 49.2974 88.0569C52.1219 91.1448 54.9868 94.2733 57.9937 97.2261C57.9937 97.2261 60.2437 96.2936 62.5749 94.3679C65.1763 92.2124 66.3791 91.0232 66.3791 91.0232C63.0952 87.9217 59.9667 84.496 56.8788 81.1242C54.3449 78.3539 51.7164 75.4821 49.0542 72.8469L41.8242 80.1445V80.1377Z" fill="url(#paint5_linear_604_13296)"/>
</g>
<defs>
<linearGradient id="paint0_linear_604_13296" x1="29.4387" y1="55.2016" x2="27.373" y2="65.0874" gradientUnits="userSpaceOnUse">
<stop stop-opacity="0"/>
<stop offset="0.85" stop-opacity="0.43"/>
<stop offset="0.96" stop-opacity="0.6"/>
</linearGradient>
<linearGradient id="paint1_linear_604_13296" x1="35.3503" y1="23.9723" x2="29.1355" y2="8.27501" gradientUnits="userSpaceOnUse">
<stop stop-opacity="0"/>
<stop offset="0.96" stop-opacity="0.6"/>
</linearGradient>
<linearGradient id="paint2_linear_604_13296" x1="75.2054" y1="70.3703" x2="61.7271" y2="60.9472" gradientUnits="userSpaceOnUse">
<stop stop-opacity="0"/>
<stop offset="0.85" stop-opacity="0.43"/>
<stop offset="0.96" stop-opacity="0.6"/>
</linearGradient>
<linearGradient id="paint3_linear_604_13296" x1="59.2731" y1="44.909" x2="64.5131" y2="47.9932" gradientUnits="userSpaceOnUse">
<stop stop-opacity="0"/>
<stop offset="0.85" stop-opacity="0.43"/>
<stop offset="0.96" stop-opacity="0.6"/>
</linearGradient>
<linearGradient id="paint4_linear_604_13296" x1="81.8534" y1="104.767" x2="68.5568" y2="91.8086" gradientUnits="userSpaceOnUse">
<stop stop-opacity="0"/>
<stop offset="0.96" stop-opacity="0.6"/>
</linearGradient>
<linearGradient id="paint5_linear_604_13296" x1="56.9641" y1="88.7797" x2="64.7392" y2="97.5084" gradientUnits="userSpaceOnUse">
<stop offset="0.25" stop-opacity="0"/>
<stop offset="0.96" stop-opacity="0.6"/>
</linearGradient>
<clipPath id="clip0_604_13296">
<rect width="224.224" height="121.666" fill="white"/>
</clipPath>
</defs>
</svg>
