<svg width="24" height="24" viewBox="0 0 24 24" fill="none" xmlns="http://www.w3.org/2000/svg">
<path d="M11.9875 17.325C13.1958 17.325 14.2083 16.9167 15.025 16.1C15.8417 15.2833 16.25 14.2708 16.25 13.0625C16.25 11.8542 15.8417 10.8458 15.025 10.0375C14.2083 9.22917 13.1958 8.825 11.9875 8.825C10.7792 8.825 9.77083 9.22917 8.9625 10.0375C8.15417 10.8458 7.75 11.8542 7.75 13.0625C7.75 14.2708 8.15417 15.2833 8.9625 16.1C9.77083 16.9167 10.7792 17.325 11.9875 17.325ZM11.9875 15.825C11.1958 15.825 10.5417 15.5625 10.025 15.0375C9.50833 14.5125 9.25 13.8542 9.25 13.0625C9.25 12.2708 9.50833 11.6167 10.025 11.1C10.5417 10.5833 11.1958 10.325 11.9875 10.325C12.7792 10.325 13.4375 10.5833 13.9625 11.1C14.4875 11.6167 14.75 12.2708 14.75 13.0625C14.75 13.8542 14.4875 14.5125 13.9625 15.0375C13.4375 15.5625 12.7792 15.825 11.9875 15.825ZM3.5 21C3.1 21 2.75 20.85 2.45 20.55C2.15 20.25 2 19.9 2 19.5V6.675C2 6.29167 2.15 5.94583 2.45 5.6375C2.75 5.32917 3.1 5.175 3.5 5.175H7.175L8.55 3.525C8.68333 3.34167 8.85 3.20833 9.05 3.125C9.25 3.04167 9.46667 3 9.7 3H14.3C14.5333 3 14.75 3.04167 14.95 3.125C15.15 3.20833 15.3167 3.34167 15.45 3.525L16.825 5.175H20.5C20.8833 5.175 21.2292 5.32917 21.5375 5.6375C21.8458 5.94583 22 6.29167 22 6.675V19.5C22 19.9 21.8458 20.25 21.5375 20.55C21.2292 20.85 20.8833 21 20.5 21H3.5ZM3.5 19.5H20.5V6.675H16.125L14.3 4.5H9.7L7.875 6.675H3.5V19.5Z" fill="#BDBDBD"/>
</svg>
