<svg width="30" height="30" viewBox="0 0 30 30" fill="none" xmlns="http://www.w3.org/2000/svg">
<path d="M15 21.6562C16.5 21.6562 17.7604 21.1458 18.7812 20.125C19.8021 19.1042 20.3125 17.8438 20.3125 16.3438C20.3125 14.8229 19.8021 13.5573 18.7812 12.5469C17.7604 11.5365 16.5 11.0312 15 11.0312C13.4792 11.0312 12.2135 11.5365 11.2031 12.5469C10.1927 13.5573 9.6875 14.8229 9.6875 16.3438C9.6875 17.8438 10.1927 19.1042 11.2031 20.125C12.2135 21.1458 13.4792 21.6562 15 21.6562ZM15 19.7812C14 19.7812 13.1771 19.4531 12.5312 18.7969C11.8854 18.1406 11.5625 17.3229 11.5625 16.3438C11.5625 15.3438 11.8854 14.5208 12.5312 13.875C13.1771 13.2292 14 12.9062 15 12.9062C15.9792 12.9062 16.7969 13.2292 17.4531 13.875C18.1094 14.5208 18.4375 15.3438 18.4375 16.3438C18.4375 17.3229 18.1094 18.1406 17.4531 18.7969C16.7969 19.4531 15.9792 19.7812 15 19.7812ZM4.375 26.25C3.875 26.25 3.4375 26.0625 3.0625 25.6875C2.6875 25.3125 2.5 24.875 2.5 24.375V8.34375C2.5 7.86458 2.6875 7.43229 3.0625 7.04688C3.4375 6.66146 3.875 6.46875 4.375 6.46875H8.96875L10.6875 4.40625C10.8542 4.17708 11.0625 4.01042 11.3125 3.90625C11.5625 3.80208 11.8333 3.75 12.125 3.75H17.875C18.1667 3.75 18.4375 3.80208 18.6875 3.90625C18.9375 4.01042 19.1458 4.17708 19.3125 4.40625L21.0312 6.46875H25.625C26.1042 6.46875 26.5365 6.66146 26.9219 7.04688C27.3073 7.43229 27.5 7.86458 27.5 8.34375V24.375C27.5 24.875 27.3073 25.3125 26.9219 25.6875C26.5365 26.0625 26.1042 26.25 25.625 26.25H4.375Z" fill="white"/>
</svg>
