<?xml version="1.0" encoding="utf-8"?>
<!-- Generator: Adobe Illustrator 28.1.0, SVG Export Plug-In . SVG Version: 6.00 Build 0)  -->
<svg version="1.1" id="Layer_1" xmlns="http://www.w3.org/2000/svg" xmlns:xlink="http://www.w3.org/1999/xlink" x="0px" y="0px"
	 viewBox="0 0 600 600" style="enable-background:new 0 0 600 600;" xml:space="preserve">
<style type="text/css">
	.st0{fill:#0A691B;}
</style>
<g>
	<circle class="st0" cx="235.9" cy="442.1" r="38.7"/>
	<circle class="st0" cx="390.8" cy="442.1" r="38.7"/>
	<path class="st0" d="M67.3,145.2h55.6c0.7,2.6,66,237.8,61.9,222.9c1.6,5.6,6.6,9.5,12.4,9.5h232.4c5.8,0,10.8-3.8,12.4-9.4
		l52.5-180.7c1.1-3.9,0.3-8.1-2.1-11.3c-2.4-3.2-6.3-5.1-10.3-5.1H156.8l-11.7-42.2c-1.6-5.6-6.6-9.5-12.4-9.5H67.3
		c-7.1,0-12.9,5.8-12.9,12.9C54.4,139.4,60.1,145.2,67.3,145.2L67.3,145.2z M371.8,322.2H255c-6.5,0-11.7-5.2-11.7-11.7
		s5.2-11.7,11.7-11.7h116.8c6.5,0,11.7,5.2,11.7,11.7S378.2,322.2,371.8,322.2z M231.7,252.1h163.5c6.5,0,11.7,5.2,11.7,11.7
		c0,6.5-5.2,11.7-11.7,11.7H231.7c-6.5,0-11.7-5.2-11.7-11.7C220,257.3,225.2,252.1,231.7,252.1z"/>
</g>
</svg>
