<?xml version="1.0" encoding="utf-8"?>
<!-- Generator: Adobe Illustrator 26.3.1, SVG Export Plug-In . SVG Version: 6.00 Build 0)  -->
<svg version="1.1" id="Layer_1" xmlns="http://www.w3.org/2000/svg" xmlns:xlink="http://www.w3.org/1999/xlink" x="0px" y="0px"
	 viewBox="0 0 600 600" style="enable-background:new 0 0 600 600;" xml:space="preserve">
<style type="text/css">
	.st0{fill:#0A691B;}
</style>
<g>
	<path class="st0" d="M238.9,138.55c2.32,0.54,4.66,1.03,6.97,1.62c23.22,5.92,39.46,25.23,40.55,49.8
		c0.72,16.24,0.61,32.58-0.34,48.8c-1.42,24.11-23.08,45.85-47.25,47.18c-17.37,0.96-34.88,0.94-52.25,0.02
		c-23.49-1.25-44.59-21.78-47.17-45.2c-1.01-9.14-0.69-18.45-0.71-27.68c-0.02-9.23-0.43-18.55,0.6-27.68
		c2.71-24.06,21.57-42.86,45.53-46.3c0.6-0.09,1.16-0.37,1.75-0.56C204.01,138.55,221.46,138.55,238.9,138.55z"/>
	<path class="st0" d="M461.49,183.95c-0.49,1.91-0.94,3.83-1.47,5.73c-4.85,17.32-20.67,29.49-38.72,29.56
		c-22.27,0.09-44.54,0.06-66.82,0.01c-21.89-0.04-38.82-15.74-40.88-37.81c-1.85-19.77,13.02-38.48,33.62-42.32
		c0.49-0.09,0.93-0.38,1.4-0.57c25.85,0,51.71,0,77.56,0c0.47,0.19,0.93,0.46,1.42,0.55c12.67,2.24,22.38,8.93,28.55,20.13
		c2.48,4.49,3.6,9.73,5.34,14.63C461.49,177.23,461.49,180.59,461.49,183.95z"/>
	<path class="st0" d="M461.49,305.02c-0.49,1.91-0.94,3.83-1.47,5.73c-4.85,17.32-20.68,29.49-38.73,29.56
		c-22.48,0.09-44.97,0.1-67.46,0c-22.26-0.09-40.35-18.27-40.35-40.34c0-22.07,18.1-40.24,40.35-40.33
		c22.27-0.09,44.55-0.06,66.83-0.01c20.28,0.04,36.67,13.89,40.28,33.88c0.09,0.49,0.36,0.95,0.55,1.42
		C461.49,298.3,461.49,301.66,461.49,305.02z"/>
	<path class="st0" d="M461.49,426.09c-0.53,2.01-1.01,4.03-1.58,6.02c-5.02,17.28-20.64,29.2-38.62,29.27
		c-22.48,0.09-44.97,0.1-67.46,0c-22.26-0.09-40.36-18.27-40.35-40.34c0-22.08,18.1-40.24,40.36-40.33
		c22.27-0.09,44.55-0.06,66.83-0.01c20.28,0.04,36.66,13.87,40.28,33.88c0.09,0.49,0.36,0.95,0.55,1.42
		C461.49,419.36,461.49,422.73,461.49,426.09z"/>
	<path class="st0" d="M212.7,460.83c-9.23,0-18.55,0.8-27.68-0.15c-25.32-2.64-45.79-25.4-46.29-50.98
		c-0.29-14.81-0.28-29.63-0.01-44.43c0.5-27.63,22.83-50.38,51.47-51.66c16.13-0.73,32.38-0.61,48.5,0.35
		c24.37,1.45,46.05,23.05,47.38,47.41c0.95,17.27,0.93,34.67,0.01,51.95c-1.27,23.85-21.87,44.93-45.69,47.36
		c-9.14,0.93-18.45,0.15-27.68,0.15C212.71,460.82,212.7,460.83,212.7,460.83z"/>
</g>
</svg>
