<?xml version="1.0" encoding="utf-8"?>
<!-- Generator: Adobe Illustrator 26.3.1, SVG Export Plug-In . SVG Version: 6.00 Build 0)  -->
<svg version="1.1" id="Layer_1" xmlns="http://www.w3.org/2000/svg" xmlns:xlink="http://www.w3.org/1999/xlink" x="0px" y="0px"
	 viewBox="0 0 600 600" style="enable-background:new 0 0 600 600;" xml:space="preserve">
<style type="text/css">
	.st0{fill:#0A691B;}
</style>
<g>
	<g>
		<path class="st0" d="M295.7,143.57c3.05,0,6.11,0,9.16,0c0.46,0.18,0.91,0.45,1.38,0.51c13.09,1.6,23.9,7.5,32.8,17.14
			c36.27,39.25,72.53,78.51,108.9,117.68c5.72,6.16,8.51,13.08,8.49,21.49c-0.11,38.38-0.04,76.76-0.05,115.14
			c0,23.85-16.86,40.76-40.72,40.81c-15.78,0.03-31.56,0.01-47.34,0.01c-0.98,0-1.95,0-3.13,0c0-1.66,0-2.88,0-4.09
			c0-23.82,0.06-47.65-0.05-71.47c-0.02-4.56-0.29-9.19-1.08-13.67c-6.93-39.25-47.83-64.96-86.73-50.26
			c-25.69,9.71-42.47,34.27-42.56,62.29c-0.08,24.43-0.02,48.87-0.02,73.3c0,1.19,0,2.38,0,3.64c-0.72,0.12-1.1,0.24-1.48,0.24
			c-17.41,0-34.82,0.29-52.22-0.12c-16.82-0.39-31.24-12.05-35.94-28.2c-0.56-1.93-1.03-3.89-1.54-5.83c0-42.57,0-85.13,0-127.7
			c1.57-5.63,4.07-10.67,8.13-15.05c36.52-39.41,72.96-78.89,109.4-118.37c6.86-7.43,15.03-12.73,24.78-15.44
			C289.09,144.73,292.42,144.25,295.7,143.57z"/>
		<path class="st0" d="M339.08,456.32c-26.26,0-52.01,0-78.21,0c0-1.24,0-2.41,0-3.59c0-24.84,0-49.69,0-74.53
			c0-21.76,16.98-38.97,38.68-39.2c21.9-0.24,39.52,17.13,39.53,38.98c0.01,24.95,0,49.89,0,74.84
			C339.08,453.9,339.08,455,339.08,456.32z"/>
	</g>
</g>
</svg>
