<?xml version="1.0" encoding="utf-8"?>
<!-- Generator: Adobe Illustrator 26.3.1, SVG Export Plug-In . SVG Version: 6.00 Build 0)  -->
<svg version="1.1" id="Layer_1" xmlns="http://www.w3.org/2000/svg" xmlns:xlink="http://www.w3.org/1999/xlink" x="0px" y="0px"
	 viewBox="0 0 600 600" style="enable-background:new 0 0 600 600;" xml:space="preserve">
<style type="text/css">
	.st0{fill:#0A691B;}
</style>
<g>
	<path class="st0" d="M429.58,136.1c4.31,1.43,8.89,2.34,12.89,4.38c14.64,7.47,22.8,19.68,22.85,36.09
		c0.22,82.21,0.16,164.42,0.07,246.63c-0.03,22.53-18.72,40.71-41.25,40.59c-22.27-0.12-40.61-18.44-40.63-40.91
		c-0.06-81.89-0.05-163.78-0.01-245.67c0.01-20.13,14.32-37.02,34.07-40.51c0.6-0.11,1.18-0.39,1.77-0.6
		C422.75,136.1,426.16,136.1,429.58,136.1z"/>
	<path class="st0" d="M342.52,427.96c-0.49,1.94-0.95,3.89-1.49,5.81c-5.38,19.2-24.64,32.32-43.76,29.83
		c-21.12-2.75-36.63-19.72-36.66-40.51c-0.08-54.79-0.08-109.58,0-164.37c0.03-21.12,16.62-38.86,37.62-40.6
		c20.98-1.74,39.99,13.06,43.69,33.99c0.11,0.6,0.4,1.17,0.6,1.76C342.52,311.9,342.52,369.93,342.52,427.96z"/>
	<path class="st0" d="M216.49,381.78c0,13.65,0.06,27.29-0.01,40.94c-0.11,21.34-15.99,38.74-37.27,40.94
		c-20.02,2.07-39.07-11.87-43.64-32.06c-0.65-2.88-0.97-5.91-0.97-8.87c-0.07-27.19-0.09-54.38-0.03-81.56
		c0.05-22.86,18.35-41.22,40.94-41.23c22.61,0,40.87,18.33,40.97,41.21C216.54,354.7,216.49,368.24,216.49,381.78z"/>
</g>
</svg>
