<svg width="20" height="20" viewBox="0 0 20 20" fill="none" xmlns="http://www.w3.org/2000/svg">
<path d="M3.5498 20C2.82064 20 2.20085 19.7448 1.69043 19.2344C1.18001 18.724 0.924805 18.1042 0.924805 17.375V15C0.924805 14.7875 0.99668 14.6094 1.14043 14.4656C1.28418 14.3219 1.4623 14.25 1.6748 14.25H4.0998V0.449994C4.0998 0.362494 4.1373 0.303119 4.2123 0.271869C4.2873 0.240619 4.35814 0.258327 4.4248 0.324994L5.3248 1.22499C5.40207 1.30833 5.49222 1.34999 5.59525 1.34999C5.69829 1.34999 5.79147 1.30833 5.8748 1.22499L6.8248 0.274994C6.90207 0.191661 6.99222 0.149994 7.09525 0.149994C7.19829 0.149994 7.29147 0.191661 7.3748 0.274994L8.2998 1.22499C8.37707 1.30833 8.46722 1.34999 8.57025 1.34999C8.67329 1.34999 8.76647 1.30833 8.8498 1.22499L9.7998 0.274994C9.87707 0.191661 9.96722 0.149994 10.0703 0.149994C10.1733 0.149994 10.2665 0.191661 10.3498 0.274994L11.2998 1.22499C11.3771 1.30833 11.4672 1.34999 11.5703 1.34999C11.6733 1.34999 11.7665 1.30833 11.8498 1.22499L12.7998 0.274994C12.8771 0.191661 12.9672 0.149994 13.0703 0.149994C13.1733 0.149994 13.2665 0.191661 13.3498 0.274994L14.2998 1.22499C14.3771 1.30833 14.4672 1.34999 14.5703 1.34999C14.6733 1.34999 14.7665 1.30833 14.8498 1.22499L15.7998 0.274994C15.8771 0.191661 15.9672 0.149994 16.0703 0.149994C16.1733 0.149994 16.2665 0.191661 16.3498 0.274994L17.2998 1.22499C17.3771 1.30833 17.4672 1.34999 17.5703 1.34999C17.6733 1.34999 17.7665 1.30833 17.8498 1.22499L18.7498 0.324994C18.8165 0.258327 18.8873 0.240619 18.9623 0.271869C19.0373 0.303119 19.0748 0.362494 19.0748 0.449994V17.375C19.0748 18.1042 18.8196 18.724 18.3092 19.2344C17.7988 19.7448 17.179 20 16.4498 20H3.5498ZM16.4123 18.5C16.7373 18.5 16.9998 18.3958 17.1998 18.1875C17.3998 17.9792 17.4998 17.7083 17.4998 17.375V2.09999H5.6748V15.5H14.6748C14.8873 15.5 15.0654 15.5719 15.2092 15.7156C15.3529 15.8594 15.4248 16.0375 15.4248 16.25V17.375C15.4248 17.7083 15.5081 17.9792 15.6748 18.1875C15.8415 18.3958 16.0873 18.5 16.4123 18.5ZM7.7498 4.44999H12.2498C12.4623 4.44999 12.6404 4.52229 12.7842 4.66687C12.9279 4.81147 12.9998 4.99064 12.9998 5.20437C12.9998 5.41812 12.9279 5.59583 12.7842 5.73749C12.6404 5.87916 12.4623 5.94999 12.2498 5.94999H7.7498C7.5373 5.94999 7.35918 5.8777 7.21543 5.73312C7.07168 5.58852 6.9998 5.40935 6.9998 5.19562C6.9998 4.98187 7.07168 4.80416 7.21543 4.66249C7.35918 4.52083 7.5373 4.44999 7.7498 4.44999ZM7.7498 7.79999H12.2498C12.4623 7.79999 12.6404 7.87229 12.7842 8.01687C12.9279 8.16147 12.9998 8.34064 12.9998 8.55437C12.9998 8.76812 12.9279 8.94583 12.7842 9.08749C12.6404 9.22916 12.4623 9.29999 12.2498 9.29999H7.7498C7.5373 9.29999 7.35918 9.2277 7.21543 9.08312C7.07168 8.93852 6.9998 8.75935 6.9998 8.54562C6.9998 8.33187 7.07168 8.15416 7.21543 8.01249C7.35918 7.87083 7.5373 7.79999 7.7498 7.79999ZM15.3248 5.94999C15.1248 5.94999 14.9498 5.87499 14.7998 5.72499C14.6498 5.57499 14.5748 5.39999 14.5748 5.19999C14.5748 4.99999 14.6498 4.82499 14.7998 4.67499C14.9498 4.52499 15.1248 4.44999 15.3248 4.44999C15.5248 4.44999 15.6998 4.52499 15.8498 4.67499C15.9998 4.82499 16.0748 4.99999 16.0748 5.19999C16.0748 5.39999 15.9998 5.57499 15.8498 5.72499C15.6998 5.87499 15.5248 5.94999 15.3248 5.94999ZM15.3248 9.17499C15.1248 9.17499 14.9498 9.09999 14.7998 8.94999C14.6498 8.79999 14.5748 8.62499 14.5748 8.42499C14.5748 8.22499 14.6498 8.04999 14.7998 7.89999C14.9498 7.74999 15.1248 7.67499 15.3248 7.67499C15.5248 7.67499 15.6998 7.74999 15.8498 7.89999C15.9998 8.04999 16.0748 8.22499 16.0748 8.42499C16.0748 8.62499 15.9998 8.79999 15.8498 8.94999C15.6998 9.09999 15.5248 9.17499 15.3248 9.17499Z" fill="#09681D"/>
</svg>
