<svg xmlns="http://www.w3.org/2000/svg" xmlns:xlink="http://www.w3.org/1999/xlink" version="1.1" id="Layer_1" x="0px" y="0px" viewBox="0 0 600 600" style="enable-background:new 0 0 600 600;" xml:space="preserve">
<style type="text/css">
	.st0{fill:#cdd9be;}
</style>
<g>
	<g id="Layer_52_00000021800745710729873320000003855149063456072591_">
		<path class="st0" d="M395.7,128.1H204.3c-42.1,0-76.2,34.1-76.2,76.2v191.4c0,42.1,34.1,76.2,76.2,76.2h191.4    c42.1,0,76.2-34.1,76.2-76.2V204.3C471.9,162.2,437.8,128.1,395.7,128.1z M206.8,330.9c-17.1,0-30.9-13.9-30.9-31    c0-17.1,13.9-30.9,31-30.9c17.1,0,30.9,13.9,30.9,30.9C237.8,317.1,223.9,330.9,206.8,330.9z M300,330.9    c-17.1,0-30.9-13.8-30.9-30.9c0-17.1,13.8-30.9,30.9-30.9c17.1,0,30.9,13.8,30.9,30.9v0C330.9,317.1,317.1,330.9,300,330.9    L300,330.9z M393.2,330.9c-17.1,0-30.9-13.8-30.9-30.9s13.8-30.9,30.9-30.9c17.1,0,30.9,13.8,30.9,30.9v0    C424.1,317.1,410.2,330.9,393.2,330.9z" fill="#000000"/>
	</g>
</g>
</svg>