<svg width="24" height="24" viewBox="0 0 24 24" fill="none" xmlns="http://www.w3.org/2000/svg">
<path d="M4.75 19C4.5375 19 4.35938 18.9277 4.21563 18.7831C4.07187 18.6385 4 18.4594 4 18.2456C4 18.0319 4.07187 17.8542 4.21563 17.7125C4.35938 17.5708 4.5375 17.5 4.75 17.5H6V9.9C6 8.5 6.4125 7.24583 7.2375 6.1375C8.0625 5.02917 9.15 4.33333 10.5 4.05V3.5C10.5 3.08333 10.6458 2.72917 10.9375 2.4375C11.2292 2.14583 11.5833 2 12 2C12.4167 2 12.7708 2.14583 13.0625 2.4375C13.3542 2.72917 13.5 3.08333 13.5 3.5V4.05C14.85 4.33333 15.9375 5.02917 16.7625 6.1375C17.5875 7.24583 18 8.5 18 9.9V17.5H19.25C19.4625 17.5 19.6406 17.5723 19.7844 17.7169C19.9281 17.8615 20 18.0406 20 18.2544C20 18.4681 19.9281 18.6458 19.7844 18.7875C19.6406 18.9292 19.4625 19 19.25 19H4.75ZM12 22C11.45 22 10.9792 21.8042 10.5875 21.4125C10.1958 21.0208 10 20.55 10 20H14C14 20.55 13.8042 21.0208 13.4125 21.4125C13.0208 21.8042 12.55 22 12 22ZM7.5 17.5H16.5V9.9C16.5 8.65 16.0625 7.5875 15.1875 6.7125C14.3125 5.8375 13.25 5.4 12 5.4C10.75 5.4 9.6875 5.8375 8.8125 6.7125C7.9375 7.5875 7.5 8.65 7.5 9.9V17.5Z" fill="black"/>
</svg>
