<svg width="24" height="24" viewBox="0 0 24 24" fill="none" xmlns="http://www.w3.org/2000/svg">
<path d="M12 11.975C10.9 11.975 10 11.625 9.3 10.925C8.6 10.225 8.25 9.32501 8.25 8.22501C8.25 7.12501 8.6 6.22501 9.3 5.52501C10 4.82501 10.9 4.47501 12 4.47501C13.1 4.47501 14 4.82501 14.7 5.52501C15.4 6.22501 15.75 7.12501 15.75 8.22501C15.75 9.32501 15.4 10.225 14.7 10.925C14 11.625 13.1 11.975 12 11.975ZM18.5 20H5.5C5.0875 20 4.73438 19.8531 4.44063 19.5594C4.14688 19.2656 4 18.9125 4 18.5V17.65C4 17.0167 4.15833 16.475 4.475 16.025C4.79167 15.575 5.2 15.2333 5.7 15C6.81667 14.5 7.8875 14.125 8.9125 13.875C9.9375 13.625 10.9667 13.5 12 13.5C13.0333 13.5 14.0583 13.6292 15.075 13.8875C16.0917 14.1458 17.1577 14.5183 18.273 15.0049C18.7947 15.2403 19.213 15.5817 19.5278 16.029C19.8426 16.4763 20 17.0167 20 17.65V18.5C20 18.9125 19.8531 19.2656 19.5594 19.5594C19.2656 19.8531 18.9125 20 18.5 20ZM5.5 18.5H18.5V17.65C18.5 17.3833 18.4208 17.1292 18.2625 16.8875C18.1042 16.6458 17.9083 16.4667 17.675 16.35C16.6083 15.8333 15.6333 15.4792 14.75 15.2875C13.8667 15.0958 12.95 15 12 15C11.05 15 10.125 15.0958 9.225 15.2875C8.325 15.4792 7.35 15.8333 6.3 16.35C6.06667 16.4667 5.875 16.6458 5.725 16.8875C5.575 17.1292 5.5 17.3833 5.5 17.65V18.5ZM12 10.475C12.65 10.475 13.1875 10.2625 13.6125 9.83751C14.0375 9.41251 14.25 8.87501 14.25 8.22501C14.25 7.57501 14.0375 7.03751 13.6125 6.61251C13.1875 6.18751 12.65 5.97501 12 5.97501C11.35 5.97501 10.8125 6.18751 10.3875 6.61251C9.9625 7.03751 9.75 7.57501 9.75 8.22501C9.75 8.87501 9.9625 9.41251 10.3875 9.83751C10.8125 10.2625 11.35 10.475 12 10.475Z" fill="#BDBDBD"/>
</svg>
