<?xml version="1.0" encoding="utf-8"?>
<!-- Generator: Adobe Illustrator 26.3.1, SVG Export Plug-In . SVG Version: 6.00 Build 0)  -->
<svg version="1.1" id="Layer_1" xmlns="http://www.w3.org/2000/svg" xmlns:xlink="http://www.w3.org/1999/xlink" x="0px" y="0px"
	 viewBox="0 0 600 600" style="enable-background:new 0 0 600 600;" xml:space="preserve">
<style type="text/css">
	.st0{fill:none;}
	.st1{fill:#FFFFFF;}
	.st2{fill:#0A691B;}
</style>
<g>
	<g>
		<path class="st0" d="M342.63,342.75c-28.73-28.72-57.11-57.09-85.69-85.66c0.43-0.53,0.87-1.19,1.42-1.74
			c22.26-22.06,44.34-44.31,66.87-66.1c17.21-16.64,37.99-21.76,60.75-14.63c22.39,7.01,36.17,23.02,40.98,45.91
			c4.16,19.76-0.5,37.91-14.6,52.51c-22.45,23.23-45.58,45.8-68.42,68.64C343.53,342.1,343.03,342.43,342.63,342.75z"/>
		<path class="st1" d="M305.51,378.29c-1.46,2.65-2.44,5.76-4.45,7.88c-7.21,7.61-14.62,15.05-22.23,22.26
			c-26.12,24.75-66.75,24.62-92.62-0.15c-5.5-5.27-6.07-12.06-1.43-16.97c4.6-4.87,11.47-4.69,17.01,0.44
			c17.96,16.6,44.91,16.18,62.35-1.02c7.04-6.94,13.96-14,21-20.94c3.64-3.6,8.06-4.33,12.67-2.42
			C302.33,369.25,304.65,372.9,305.51,378.29z"/>
	</g>
	<path class="st2" d="M461.62,217.24c-6.72-36.65-27.46-62.33-62.58-74.4c-36.09-12.41-69.59-5.27-97.01,21.46
		c-46.55,45.38-92.57,91.32-137.88,137.93c-26.88,27.65-33.76,61.38-21.1,97.75c23.03,66.17,106.72,84.48,156.91,34.72
		c44.97-44.59,89.72-89.39,134.54-134.13c18.75-18.71,27.98-41.46,28.59-69.96C462.76,227.53,462.55,222.32,461.62,217.24z
		 M301.06,386.18c-7.21,7.61-14.62,15.05-22.23,22.26c-26.12,24.75-66.75,24.62-92.62-0.15c-5.5-5.27-6.07-12.06-1.43-16.97
		c4.6-4.87,11.47-4.69,17.01,0.44c17.96,16.6,44.91,16.18,62.35-1.02c7.04-6.94,13.96-14,21-20.94c3.64-3.6,8.06-4.33,12.67-2.42
		c4.52,1.88,6.84,5.53,7.71,10.91C304.05,380.95,303.07,384.05,301.06,386.18z"/>
</g>
</svg>
