<?xml version="1.0" encoding="utf-8"?>
<!-- Generator: Adobe Illustrator 26.3.1, SVG Export Plug-In . SVG Version: 6.00 Build 0)  -->
<svg version="1.1" id="Layer_1" xmlns="http://www.w3.org/2000/svg" xmlns:xlink="http://www.w3.org/1999/xlink" x="0px" y="0px"
	 viewBox="0 0 600 600" style="enable-background:new 0 0 600 600;" xml:space="preserve">
<style type="text/css">
	.st0{fill:#0A691B;}
</style>
<g>
	<path class="st0" d="M178.08,462.55c0-22.42-0.02-44.85,0-67.27c0.03-33.42,22.15-60.5,54.89-66.98c4.32-0.86,8.82-1.1,13.24-1.11
		c35.86-0.09,71.71-0.11,107.57-0.03c34.1,0.08,61.03,22.59,67.16,56.12c0.74,4.03,0.91,8.2,0.92,12.31
		c0.09,22.32,0.04,44.64,0.04,66.95C340.64,462.55,259.36,462.55,178.08,462.55z"/>
	<path class="st0" d="M300.2,137.45c44.91,0.1,81.26,36.71,81.07,81.64c-0.2,44.78-36.69,81.02-81.48,80.91
		c-44.89-0.11-81.24-36.73-81.06-81.65C218.91,173.59,255.41,137.34,300.2,137.45z"/>
</g>
</svg>
