<svg width="160" height="160" viewBox="0 0 160 160" fill="none" xmlns="http://www.w3.org/2000/svg">
<g clip-path="url(#clip0_320_43557)">
<path d="M0.108887 101.049V109.482H8.52279V101.049V92.6294H0.108887V101.049Z" fill="#09681D"/>
<path d="M8.52279 50.5312H0.108887V58.9509H8.52279V50.5312Z" fill="#09681D"/>
<path d="M60.5282 143.242H52.1143V151.662H60.5282V143.242Z" fill="#09681D"/>
<path d="M8.52279 67.3708V75.7904H0.108887V84.21H8.52279V92.6297H16.9367H25.3506V101.049H33.7645V92.6297H42.1784V84.21V75.7904H33.7645V84.21H25.3506H16.9367V75.7904V67.3708V58.9512H8.52279V67.3708Z" fill="#09681D"/>
<path d="M25.3504 50.5312H16.9365V58.9509H25.3504H33.7643V50.5312H25.3504Z" fill="#09681D"/>
<path d="M63.2198 118.228H67.7462V109.809H63.2198H58.707V118.228H63.2198Z" fill="#09681D"/>
<path d="M42.1781 58.9512H33.7642V67.3708H42.1781V58.9512Z" fill="#09681D"/>
<path d="M101.089 92.6294H92.6753V101.049H101.089V92.6294Z" fill="#09681D"/>
<path d="M109.503 0H101.089V8.41962H109.503V0Z" fill="#09681D"/>
<path d="M59.0196 67.3707V58.9511H67.4335V50.5314H59.0196V42.1118H50.5921V50.5314H42.1782V58.9511H50.5921V67.3707V75.7903V84.2099V92.6295H59.0196V84.2099V75.7903H67.4335V67.3707H59.0196Z" fill="#09681D"/>
<path d="M101.089 151.58H109.503V143.161H101.089H92.6753V151.58H101.089Z" fill="#09681D"/>
<path d="M92.6756 0H84.2617V8.41962H92.6756V0Z" fill="#09681D"/>
<path d="M90.5683 67.3705V58.9509H82.1545V50.5312H73.7406V58.9509V67.3705H65.3267V75.7901H73.7406H82.1545V67.3705H90.5683Z" fill="#09681D"/>
<path d="M138.075 50.5312H129.661V58.9509H138.075V50.5312Z" fill="#09681D"/>
<path d="M50.8368 92.6294H42.4229V101.049H50.8368V92.6294Z" fill="#09681D"/>
<path d="M84.2614 42.1115V33.6783H92.6753V25.2587H101.089H109.503V16.8391H101.089V8.41943H92.6753V16.8391H84.2614V25.2587H75.8475V33.6783H67.4336V42.1115H75.8475H84.2614Z" fill="#09681D"/>
<path d="M84.2614 101.049V92.6291H92.6753V84.2095H84.2614H75.8475V92.6291H67.4336V101.049H75.8475H84.2614Z" fill="#09681D"/>
<path d="M109.503 134.741V126.308H101.089H92.6751V117.888H84.2612V126.308H75.8473V134.741H67.4334H59.0195V143.161H67.4334H75.8473H84.2612V134.741H92.6751V143.161H101.089V134.741H109.503Z" fill="#09681D"/>
<path d="M75.8476 8.41962V0H67.4337H59.0198V8.41962H50.5923V16.8392H59.0198H67.4337V8.41962H75.8476Z" fill="#09681D"/>
<path d="M75.8475 16.8389H67.4336V25.2585H75.8475V16.8389Z" fill="#09681D"/>
<path d="M96.889 50.5311H88.4751V58.9507V67.3703V75.7899H96.889H105.303V67.3703H96.889V58.9507H105.303V50.5311H113.717V42.1114H105.303V33.6782H96.889V42.1114V50.5311Z" fill="#09681D"/>
<path d="M67.4334 25.2588H59.0195V33.6784H67.4334V25.2588Z" fill="#09681D"/>
<path d="M92.6753 109.482V117.902H101.089H109.503V109.482H117.917H126.344V101.049H117.917H109.503H101.089V109.482H92.6753Z" fill="#09681D"/>
<path d="M138.075 75.79H129.661V84.2097H138.075V75.79Z" fill="#09681D"/>
<path d="M109.503 84.2095H101.089V92.6291H109.503V84.2095Z" fill="#09681D"/>
<path d="M130.545 58.9512H122.131H113.717V67.3708H122.131V75.7904H130.545V67.3708V58.9512Z" fill="#09681D"/>
<path d="M126.331 84.2095H117.917V92.6291H126.331V84.2095Z" fill="#09681D"/>
<path d="M33.7643 134.904H59.0196V101.049H25.1873V109.482H16.9365V117.902H25.1873V126.321H16.9365V134.741H25.1873V134.904H25.3504V143.174H16.9365V160.013H25.3504V151.594H33.7643V134.904ZM52.5359 107.537V128.593H31.4943V107.537H52.5359Z" fill="#09681D"/>
<path d="M143.173 101.049H151.586V92.6294H143.173H134.759H126.345V101.049H134.759H143.173Z" fill="#09681D"/>
<path d="M143.172 67.3705H151.586V58.9509V50.5312H143.172V58.9509V67.3705Z" fill="#09681D"/>
<path d="M76.16 109.809H67.7461V118.228V126.648H76.16V118.228V109.809Z" fill="#09681D"/>
<path d="M160 101.049H151.586V109.468H160V101.049Z" fill="#09681D"/>
<path d="M160 84.2097V75.79H151.586V84.2097V92.6293H160V84.2097Z" fill="#09681D"/>
<path d="M8.52279 143.161H0.108887V151.58V160H8.52279V151.58V143.161Z" fill="#09681D"/>
<path d="M160 42.1117V0H117.917V42.1117H160ZM124.238 35.8004V6.31132H153.693V35.7868H124.238V35.8004Z" fill="#09681D"/>
<path d="M147.372 12.6362H130.544V29.4755H147.372V12.6362Z" fill="#09681D"/>
<path d="M160 117.902H117.917V160.014H160V117.902ZM124.238 153.689V124.213H153.693V153.689H124.238Z" fill="#09681D"/>
<path d="M147.372 130.524H130.544V147.364H147.372V130.524Z" fill="#09681D"/>
<path d="M0 0V42.1117H42.0831V0H0ZM35.7625 6.31132V35.7868H6.30703V6.31132H35.7625Z" fill="#09681D"/>
<path d="M29.4557 12.6362H12.6279V29.4755H29.4557V12.6362Z" fill="#09681D"/>
<rect x="50.29" y="53" width="60" height="55" fill="white"/>
<g clip-path="url(#clip1_320_43557)">
<path d="M93.2651 98.9403C91.8602 98.9403 90.3589 98.6289 88.7773 98.0089C87.3181 97.4364 86.0083 96.6464 84.7977 95.7231C83.3412 96.6831 81.8697 97.4038 80.3439 97.9069C78.0844 98.6521 75.6822 98.9335 73.0002 98.7636C71.4947 98.6684 70.0491 98.3311 68.7053 97.76C67.261 97.1468 66.011 96.2942 64.9907 95.2267C63.9146 94.1008 63.1116 92.7152 62.67 91.2194C62.204 89.642 62.1632 88.0157 62.5545 86.5172C63.1306 84.3048 64.598 82.5045 66.6863 81.4479C67.7529 80.9081 68.9553 80.5885 70.1632 80.526C71.4037 80.4607 72.6618 80.6674 73.7991 81.1202C76.0287 82.0095 77.7936 83.6195 79.083 84.9236C79.9839 85.8346 80.8711 86.8232 81.7284 87.7805C82.7705 88.9431 83.829 90.1234 84.9404 91.1963C86.5205 89.6774 87.5613 87.3929 87.8263 84.8202C88.0749 82.4025 87.6116 80.0596 86.545 78.2238C85.6822 79.1444 84.6102 79.8406 83.4879 80.201C81.8806 80.7177 80.2828 80.5355 78.8684 79.6761C77.8371 79.0479 77.1632 77.9968 77.0205 76.7906C76.8643 75.4825 77.3371 74.1377 78.2841 73.1953C79.5233 71.9606 81.3752 71.3365 83.117 71.5663C84.0627 71.6914 84.9839 72.0232 85.8616 72.5508C86.3983 70.9394 86.5002 69.1459 85.8113 67.5087C85.3303 66.3637 84.4186 65.3765 83.1782 64.6517C81.9811 63.9528 80.5572 63.5517 79.1714 63.5217C76.0341 63.4551 74.386 63.791 69.4703 67.6324L68.0871 68.7134L65.9268 65.9435L67.3099 64.8625C72.7135 60.639 75.1347 59.9196 79.2474 60.0067C81.2203 60.0488 83.2447 60.6199 84.9485 61.6153C86.8507 62.7263 88.2692 64.2927 89.0477 66.1434C89.8507 68.0499 90.0192 70.2228 89.5355 72.4243C89.3358 73.3327 89.0341 74.2206 88.6388 75.0678C88.6618 75.0963 88.6836 75.1249 88.7067 75.1548C90.7529 77.7942 91.7053 81.4479 91.3208 85.1792C90.9866 88.4264 89.6714 91.3649 87.6578 93.4468C88.4227 93.9662 89.2203 94.4068 90.0613 94.7372C91.8195 95.4266 93.3575 95.6007 94.632 95.2512C95.8738 94.9113 96.9282 94.0763 97.8561 92.6989L98.8371 91.2425L101.747 93.2074L100.766 94.6638C99.367 96.7402 97.6157 98.0782 95.5572 98.6412C94.8276 98.8411 94.0627 98.9403 93.2678 98.9403H93.2651ZM70.6211 84.0288C69.8113 84.0288 68.9988 84.2151 68.2719 84.5822C67.0939 85.1778 66.2705 86.18 65.9526 87.4025C65.4866 89.1906 66.1048 91.3078 67.5287 92.7968C68.886 94.2164 70.9621 95.1125 73.2216 95.2553C75.4485 95.3953 77.4186 95.171 79.2461 94.5686C80.1972 94.2545 81.1292 93.8316 82.0586 93.289C81.0396 92.2692 80.0722 91.1909 79.117 90.1248C78.2502 89.1566 77.4309 88.2428 76.5898 87.3929C74.5926 85.3723 73.3548 84.7223 72.5015 84.3824C71.9064 84.1444 71.2651 84.0275 70.6211 84.0275V84.0288ZM82.4037 75.031C81.8099 75.031 81.1646 75.2813 80.7624 75.6824C80.583 75.8619 80.4798 76.1393 80.5083 76.3732C80.5287 76.5486 80.6102 76.6206 80.6945 76.6723C81.2271 76.996 81.7909 77.0558 82.4173 76.8545C83.0328 76.6574 83.6591 76.2181 84.136 75.6511C84.1428 75.643 84.1496 75.6348 84.1564 75.6266C83.7053 75.3384 83.2013 75.1181 82.6618 75.0474C82.5776 75.0365 82.492 75.031 82.4051 75.031H82.4037Z" fill="#D3FEB6"/>
<path d="M73.8534 62.2704L68.791 88.8047L72.2396 89.4637L77.302 62.9294L73.8534 62.2704Z" fill="#09681D"/>
<path d="M102.779 87.1753L105.888 90.2471C105.888 90.2471 101.904 93.8832 104.393 99.8622L100.975 102.001C100.975 102.001 99.5249 99.8975 99.4869 97.2799C99.4366 93.8165 100.097 92.9694 100.097 92.9694C100.097 92.9694 94.563 94.9288 91.3252 91.6517L93.6418 89.0912C93.6418 89.0912 100.047 91.3403 102.779 87.1753Z" fill="#D3FEB6"/>
<path d="M73.8524 62.269L73.3483 64.9138C74.832 64.0558 75.9652 63.7036 77.1771 63.5758L77.3008 62.9285L73.8524 62.2704V62.269ZM70.3728 80.5161L69.688 84.1114C69.9964 84.0557 70.3103 84.0285 70.6228 84.0285C71.2668 84.0285 71.9081 84.1454 72.5032 84.3834C72.6989 84.4609 72.9149 84.5561 73.154 84.6785L73.8307 81.1308C73.8211 81.1267 73.8116 81.124 73.8021 81.1199C72.7274 80.6916 71.5467 80.4835 70.3728 80.5161Z" fill="#09681D"/>
<path d="M98.8362 91.2425L97.8552 92.6989C96.9272 94.0763 95.8715 94.9126 94.631 95.2512C93.3566 95.5993 91.8185 95.4266 90.0604 94.7372C89.2193 94.4068 88.4218 93.9676 87.6582 93.4468C89.6731 91.3649 90.987 88.4264 91.3212 85.1792C91.7058 81.4466 90.7533 77.7928 88.7071 75.1534C88.6854 75.1249 88.6623 75.0963 88.6392 75.0678C89.0346 74.2206 89.3375 73.3327 89.5373 72.4243C90.0196 70.2228 89.8511 68.0499 89.0495 66.1434C88.271 64.2927 86.8525 62.7263 84.9503 61.6153C83.2438 60.6199 81.2193 60.0488 79.2479 60.0067C75.1351 59.9196 72.7153 60.639 67.3104 64.8598L65.9272 65.9408L68.0875 68.7107L69.4707 67.6297C71.0468 66.3991 72.2873 65.5274 73.3484 64.9142L73.8525 62.2694L77.3009 62.9275L77.1772 63.5748C77.8022 63.5081 78.4476 63.5027 79.1718 63.5177C80.5577 63.5476 81.9802 63.9487 83.1786 64.6477C84.4191 65.3724 85.3294 66.3596 85.8117 67.5046C86.5006 69.1418 86.3987 70.9367 85.8634 72.5467C84.9856 72.0191 84.0644 71.686 83.1188 71.5622C81.3756 71.3324 79.5237 71.9566 78.2859 73.1912C77.3389 74.1349 76.8674 75.4784 77.0223 76.7865C77.1663 77.9927 77.8389 79.0452 78.8702 79.672C80.2846 80.5328 81.8824 80.715 83.4897 80.1969C84.612 79.8366 85.684 79.1404 86.5468 78.2198C87.6134 80.0555 88.0767 82.3971 87.828 84.8161C87.5631 87.3902 86.5223 89.6733 84.9422 91.1922C83.8308 90.1193 82.7737 88.9404 81.7302 87.7764C80.8729 86.8205 79.9856 85.8305 79.0848 84.9195C77.8009 83.6209 76.0441 82.019 73.828 81.127L73.1514 84.6747C73.9598 85.0895 75.0481 85.8333 76.5889 87.3902C77.4286 88.2401 78.2492 89.1539 79.1161 90.1221C80.0712 91.1881 81.0373 92.2665 82.0577 93.2863C81.1283 93.8289 80.1962 94.2518 79.2452 94.5659C77.4191 95.1683 75.4476 95.394 73.2207 95.2526C70.9598 95.1098 68.8851 94.2137 67.5278 92.7941C66.1052 91.3051 65.4856 89.1879 65.9517 87.3997C66.271 86.1773 67.0943 85.1751 68.271 84.5795C68.7166 84.3538 69.1949 84.1961 69.6854 84.109L70.3702 80.5137C70.3009 80.5151 70.2316 80.5178 70.1636 80.5219C68.9558 80.5858 67.7533 80.904 66.6867 81.4438C64.5984 82.5004 63.131 84.3021 62.5549 86.5132C62.165 88.0117 62.2044 89.638 62.6704 91.2153C63.112 92.7111 63.915 94.0967 64.9911 95.2227C66.0115 96.2901 67.2615 97.1413 68.7058 97.756C70.0495 98.3271 71.4938 98.6643 73.0006 98.7595C75.6827 98.9281 78.0848 98.648 80.3443 97.9028C81.8702 97.3997 83.3403 96.679 84.7981 95.719C86.0087 96.6423 87.3172 97.4323 88.7778 98.0048C90.3593 98.6249 91.8606 98.9363 93.2655 98.9363C94.0604 98.9363 94.8253 98.837 95.5549 98.6371C97.612 98.0741 99.3647 96.7361 100.764 94.6597L101.745 93.2034L98.8348 91.2385L98.8362 91.2425ZM84.1351 75.6525C83.6582 76.2195 83.0318 76.6574 82.4163 76.8559C81.79 77.0571 81.2261 76.9973 80.6935 76.6737C80.6093 76.622 80.5278 76.5513 80.5074 76.3759C80.4802 76.142 80.5821 75.8646 80.7615 75.6851C81.165 75.284 81.809 75.0338 82.4028 75.0338C82.4897 75.0338 82.5753 75.0392 82.6596 75.0501C83.199 75.1208 83.703 75.3411 84.1541 75.6294C84.1473 75.6375 84.1405 75.6457 84.1337 75.6538L84.1351 75.6525Z" fill="#09681D"/>
<path d="M102.779 87.1753L105.888 90.2471C105.888 90.2471 101.904 93.8832 104.393 99.8622L100.975 102.001C100.975 102.001 99.5249 99.8975 99.4869 97.2799C99.4366 93.8165 100.097 92.9694 100.097 92.9694C100.097 92.9694 94.563 94.9288 91.3252 91.6517L93.6418 89.0912C93.6418 89.0912 100.047 91.3403 102.779 87.1753Z" fill="#09681D"/>
<path d="M73.1529 84.6793L72.2399 89.463L68.7915 88.8049L69.6869 84.1122C69.9953 84.0565 70.3092 84.0293 70.6217 84.0293C71.2657 84.0293 71.907 84.1462 72.5021 84.3842C72.6978 84.4617 72.9138 84.5569 73.1529 84.6793Z" fill="url(#paint0_linear_320_43557)"/>
<path d="M75.2467 73.7015L73.8296 81.1314C73.8296 81.1314 72.8404 80.8105 72.085 80.6758C71.3296 80.5412 70.373 80.5167 70.373 80.5167L71.7589 73.25L75.2467 73.7001V73.7015Z" fill="url(#paint1_linear_320_43557)"/>
<path d="M77.1773 63.5762L75.2466 73.7012L71.7588 73.2511L73.3485 64.9156C73.3485 64.9156 73.7968 64.5756 75.0903 64.1228C76.3838 63.67 77.1773 63.5775 77.1773 63.5775V63.5762Z" fill="url(#paint2_linear_320_43557)"/>
<path d="M86.5465 78.2226C87.6131 80.0583 88.0764 82.3999 87.8278 84.819C87.5628 87.3931 86.5221 89.6762 84.9419 91.195L87.6566 93.4469C89.6715 91.365 90.9854 88.4265 91.3196 85.1793C91.7041 81.4467 90.7517 77.7929 88.7055 75.1535C88.6837 75.125 88.6606 75.0964 88.6375 75.0679C88.6375 75.0679 88.1729 76.051 87.7422 76.7608C87.2517 77.5699 86.5465 78.2226 86.5465 78.2226Z" fill="url(#paint3_linear_320_43557)"/>
<path d="M80.5071 76.3748C80.48 76.1409 80.5819 75.8635 80.7612 75.684C81.1647 75.2828 81.8088 75.0326 82.4025 75.0326C82.4895 75.0326 82.5751 75.0381 82.6593 75.049C83.1987 75.1197 83.7028 75.34 84.1539 75.6282C84.1471 75.6364 84.1403 75.6446 84.1335 75.6527C84.1335 75.6527 84.7313 74.9647 85.1824 74.1542C85.6335 73.3438 85.8618 72.551 85.8618 72.551C84.984 72.0234 84.0628 71.6903 83.1172 71.5665C81.374 71.3367 79.5221 71.9609 78.2843 73.1956C77.3373 74.1393 76.8658 75.4827 77.0207 76.7909L80.5071 76.3761V76.3748Z" fill="url(#paint4_linear_320_43557)"/>
<path d="M94.6295 95.2512C93.355 95.5993 91.817 95.4266 90.0588 94.7372C89.2178 94.4068 88.4202 93.9676 87.6567 93.4468C87.6567 93.4468 86.4855 94.7209 84.7993 95.7217C86.0099 96.645 87.3183 97.4351 88.7789 98.0075C90.3605 98.6276 91.8618 98.939 93.2667 98.939L94.6308 95.2499L94.6295 95.2512Z" fill="url(#paint5_linear_320_43557)"/>
<path d="M76.5903 87.3946C77.43 88.2445 78.2507 89.1582 79.1175 90.1264C80.0727 91.1925 81.0387 92.2708 82.0591 93.2907C82.0591 93.2907 82.8308 92.9793 83.6338 92.3279C84.5305 91.6004 84.9436 91.1966 84.9436 91.1966C83.8322 90.1237 82.7751 88.9447 81.7316 87.7808C80.8743 86.8248 79.9871 85.8349 79.0863 84.9238L76.5903 87.3959V87.3946Z" fill="url(#paint6_linear_320_43557)"/>
</g>
</g>
<defs>
<linearGradient id="paint0_linear_320_43557" x1="70.8948" y1="87.1799" x2="71.6881" y2="82.7717" gradientUnits="userSpaceOnUse">
<stop stop-opacity="0"/>
<stop offset="0.85" stop-opacity="0.43"/>
<stop offset="0.96" stop-opacity="0.6"/>
</linearGradient>
<linearGradient id="paint1_linear_320_43557" x1="72.4614" y1="78.7109" x2="71.6775" y2="82.2761" gradientUnits="userSpaceOnUse">
<stop stop-opacity="0"/>
<stop offset="0.85" stop-opacity="0.43"/>
<stop offset="0.96" stop-opacity="0.6"/>
</linearGradient>
<linearGradient id="paint2_linear_320_43557" x1="74.4979" y1="68.4918" x2="72.2924" y2="62.7615" gradientUnits="userSpaceOnUse">
<stop stop-opacity="0"/>
<stop offset="0.96" stop-opacity="0.6"/>
</linearGradient>
<linearGradient id="paint3_linear_320_43557" x1="88.0234" y1="84.169" x2="83.4489" y2="80.9049" gradientUnits="userSpaceOnUse">
<stop stop-opacity="0"/>
<stop offset="0.85" stop-opacity="0.43"/>
<stop offset="0.96" stop-opacity="0.6"/>
</linearGradient>
<linearGradient id="paint4_linear_320_43557" x1="82.6675" y1="75.4093" x2="84.4468" y2="76.4809" gradientUnits="userSpaceOnUse">
<stop stop-opacity="0"/>
<stop offset="0.85" stop-opacity="0.43"/>
<stop offset="0.96" stop-opacity="0.6"/>
</linearGradient>
<linearGradient id="paint5_linear_320_43557" x1="90.1798" y1="95.9502" x2="85.6789" y2="91.4801" gradientUnits="userSpaceOnUse">
<stop stop-opacity="0"/>
<stop offset="0.96" stop-opacity="0.6"/>
</linearGradient>
<linearGradient id="paint6_linear_320_43557" x1="81.733" y1="90.4024" x2="84.3604" y2="93.4096" gradientUnits="userSpaceOnUse">
<stop offset="0.25" stop-opacity="0"/>
<stop offset="0.96" stop-opacity="0.6"/>
</linearGradient>
<clipPath id="clip0_320_43557">
<rect width="160" height="160" fill="white"/>
</clipPath>
<clipPath id="clip1_320_43557">
<rect width="43.5978" height="42" fill="white" transform="translate(62.29 60)"/>
</clipPath>
</defs>
</svg>
