<svg width="24" height="24" viewBox="0 0 24 24" fill="none" xmlns="http://www.w3.org/2000/svg">
<path d="M5.54999 22C4.82082 22 4.20103 21.7448 3.69061 21.2344C3.1802 20.724 2.92499 20.1042 2.92499 19.375V17C2.92499 16.7875 2.99686 16.6094 3.14061 16.4656C3.28436 16.3219 3.46249 16.25 3.67499 16.25H6.09999V2.44999C6.09999 2.36249 6.13749 2.30312 6.21249 2.27187C6.28749 2.24062 6.35832 2.25833 6.42499 2.32499L7.32499 3.22499C7.40225 3.30833 7.4924 3.34999 7.59544 3.34999C7.69847 3.34999 7.79165 3.30833 7.87499 3.22499L8.82499 2.27499C8.90225 2.19166 8.9924 2.14999 9.09544 2.14999C9.19847 2.14999 9.29165 2.19166 9.37499 2.27499L10.3 3.22499C10.3773 3.30833 10.4674 3.34999 10.5704 3.34999C10.6735 3.34999 10.7667 3.30833 10.85 3.22499L11.8 2.27499C11.8773 2.19166 11.9674 2.14999 12.0704 2.14999C12.1735 2.14999 12.2667 2.19166 12.35 2.27499L13.3 3.22499C13.3773 3.30833 13.4674 3.34999 13.5704 3.34999C13.6735 3.34999 13.7667 3.30833 13.85 3.22499L14.8 2.27499C14.8773 2.19166 14.9674 2.14999 15.0704 2.14999C15.1735 2.14999 15.2667 2.19166 15.35 2.27499L16.3 3.22499C16.3773 3.30833 16.4674 3.34999 16.5704 3.34999C16.6735 3.34999 16.7667 3.30833 16.85 3.22499L17.8 2.27499C17.8773 2.19166 17.9674 2.14999 18.0704 2.14999C18.1735 2.14999 18.2667 2.19166 18.35 2.27499L19.3 3.22499C19.3773 3.30833 19.4674 3.34999 19.5704 3.34999C19.6735 3.34999 19.7667 3.30833 19.85 3.22499L20.75 2.32499C20.8167 2.25833 20.8875 2.24062 20.9625 2.27187C21.0375 2.30312 21.075 2.36249 21.075 2.44999V19.375C21.075 20.1042 20.8198 20.724 20.3094 21.2344C19.7989 21.7448 19.1792 22 18.45 22H5.54999ZM18.45 20.5C18.7833 20.5 19.0542 20.3958 19.2625 20.1875C19.4708 19.9792 19.575 19.7083 19.575 19.375V4.49999H7.59999V16.25H16.575C16.7875 16.25 16.9656 16.3219 17.1094 16.4656C17.2531 16.6094 17.325 16.7875 17.325 17V19.3711C17.325 19.707 17.4292 19.9792 17.6375 20.1875C17.8458 20.3958 18.1167 20.5 18.45 20.5ZM9.67499 6.94999H14.175C14.3875 6.94999 14.5656 7.02229 14.7094 7.16687C14.8531 7.31147 14.925 7.49064 14.925 7.70437C14.925 7.91812 14.8531 8.09583 14.7094 8.23749C14.5656 8.37916 14.3875 8.44999 14.175 8.44999H9.67499C9.46249 8.44999 9.28436 8.3777 9.14061 8.23312C8.99686 8.08852 8.92499 7.90935 8.92499 7.69562C8.92499 7.48187 8.99686 7.30416 9.14061 7.16249C9.28436 7.02083 9.46249 6.94999 9.67499 6.94999ZM9.67499 10.3H14.175C14.3875 10.3 14.5656 10.3723 14.7094 10.5169C14.8531 10.6615 14.925 10.8406 14.925 11.0544C14.925 11.2681 14.8531 11.4458 14.7094 11.5875C14.5656 11.7292 14.3875 11.8 14.175 11.8H9.67499C9.46249 11.8 9.28436 11.7277 9.14061 11.5831C8.99686 11.4385 8.92499 11.2594 8.92499 11.0456C8.92499 10.8319 8.99686 10.6542 9.14061 10.5125C9.28436 10.3708 9.46249 10.3 9.67499 10.3ZM17.25 8.44999C17.05 8.44999 16.875 8.37499 16.725 8.22499C16.575 8.07499 16.5 7.89999 16.5 7.69999C16.5 7.49999 16.575 7.32499 16.725 7.17499C16.875 7.02499 17.05 6.94999 17.25 6.94999C17.45 6.94999 17.625 7.02499 17.775 7.17499C17.925 7.32499 18 7.49999 18 7.69999C18 7.89999 17.925 8.07499 17.775 8.22499C17.625 8.37499 17.45 8.44999 17.25 8.44999ZM17.25 11.675C17.05 11.675 16.875 11.6 16.725 11.45C16.575 11.3 16.5 11.125 16.5 10.925C16.5 10.725 16.575 10.55 16.725 10.4C16.875 10.25 17.05 10.175 17.25 10.175C17.45 10.175 17.625 10.25 17.775 10.4C17.925 10.55 18 10.725 18 10.925C18 11.125 17.925 11.3 17.775 11.45C17.625 11.6 17.45 11.675 17.25 11.675ZM5.52499 20.5H15.825V17.75H4.42499V19.375C4.42499 19.7083 4.5304 19.9792 4.74124 20.1875C4.95207 20.3958 5.21332 20.5 5.52499 20.5Z" fill="#BDBDBD"/>
</svg>
