<?xml version="1.0" encoding="utf-8"?>
<!-- Generator: Adobe Illustrator 26.3.1, SVG Export Plug-In . SVG Version: 6.00 Build 0)  -->
<svg version="1.1" id="Layer_1" xmlns="http://www.w3.org/2000/svg" xmlns:xlink="http://www.w3.org/1999/xlink" x="0px" y="0px"
	 viewBox="0 0 600 600" style="enable-background:new 0 0 600 600;" xml:space="preserve">
<style type="text/css">
	.st0{fill:#0A691B;}
</style>
<g>
	<path class="st0" d="M463.45,266.14c0,45.11,0,90.23,0,135.34c-0.2,0.81-0.48,1.61-0.59,2.43c-4.54,34.25-33.03,59.41-67.72,59.47
		c-63.4,0.1-126.81,0.11-190.21,0c-38.11-0.07-68.22-30.25-68.31-68.35c-0.1-40.74-0.07-81.49,0.05-122.23
		c0.01-4.85,0.52-9.81,1.57-14.54c7.12-31.81,34.06-53.33,66.92-53.53c20.64-0.12,41.28-0.03,61.91-0.02
		c43.3,0.01,86.6-0.25,129.89,0.13c31.2,0.28,57.66,22.23,64.68,52.64C462.31,260.35,462.85,263.25,463.45,266.14z M299.93,408.97
		c45.42-0.19,81.9-36.84,81.8-82.18c-0.1-44.93-36.95-81.45-81.96-81.24c-45.44,0.22-81.64,36.82-81.46,82.37
		C218.48,372.4,255.5,409.16,299.93,408.97z"/>
	<path class="st0" d="M331.3,136.55c1.94,0.49,3.89,0.92,5.81,1.46c8.09,2.3,15.07,6.48,20.35,13.03
		c6.68,8.27,13.05,16.78,19.55,25.19c0.17,0.22,0.22,0.54,0.4,1.01c-51.64,0-103.11,0-155.16,0c2.01-2.6,3.73-4.83,5.46-7.07
		c4.35-5.64,8.71-11.27,13.04-16.92c6.84-8.92,15.72-14.42,26.86-16.2c0.39-0.06,0.75-0.33,1.13-0.51
		C289.59,136.55,310.45,136.55,331.3,136.55z"/>
	<path class="st0" d="M354.43,327.17c0.04,30.06-24.2,54.44-54.2,54.52c-30.19,0.08-54.59-24.24-54.61-54.43
		c-0.02-30.16,24.46-54.66,54.52-54.56C330.15,272.79,354.38,297.1,354.43,327.17z"/>
</g>
</svg>
