<svg width="24" height="24" viewBox="0 0 24 24" fill="none" xmlns="http://www.w3.org/2000/svg">
<path d="M13.65 22H10.35C10.1666 22 10.0041 21.9417 9.86248 21.825C9.72081 21.7083 9.63331 21.5583 9.59998 21.375L9.19998 18.85C8.88331 18.7333 8.54998 18.575 8.19998 18.375C7.84998 18.175 7.54164 17.9667 7.27498 17.75L4.94998 18.825C4.76664 18.9083 4.58331 18.9208 4.39998 18.8625C4.21664 18.8042 4.07498 18.6833 3.97498 18.5L2.32498 15.575C2.22498 15.4083 2.19998 15.2333 2.24998 15.05C2.29998 14.8667 2.39998 14.7167 2.54998 14.6L4.69998 13.025C4.66664 12.875 4.64581 12.7042 4.63748 12.5125C4.62914 12.3208 4.62498 12.15 4.62498 12C4.62498 11.85 4.62914 11.6792 4.63748 11.4875C4.64581 11.2958 4.66664 11.125 4.69998 10.975L2.54998 9.4C2.39998 9.28333 2.29998 9.13333 2.24998 8.95C2.19998 8.76667 2.22498 8.59167 2.32498 8.425L3.97498 5.5C4.07498 5.31667 4.21664 5.19583 4.39998 5.1375C4.58331 5.07917 4.76664 5.09167 4.94998 5.175L7.27498 6.25C7.54164 6.03333 7.84998 5.825 8.19998 5.625C8.54998 5.425 8.88331 5.275 9.19998 5.175L9.59998 2.625C9.63331 2.44167 9.72081 2.29167 9.86248 2.175C10.0041 2.05833 10.1666 2 10.35 2H13.65C13.8333 2 13.9958 2.05833 14.1375 2.175C14.2791 2.29167 14.3666 2.44167 14.4 2.625L14.8 5.15C15.1166 5.26667 15.4541 5.42083 15.8125 5.6125C16.1708 5.80417 16.475 6.01667 16.725 6.25L19.05 5.175C19.2333 5.09167 19.4166 5.07917 19.6 5.1375C19.7833 5.19583 19.925 5.31667 20.025 5.5L21.675 8.4C21.775 8.56667 21.8041 8.74583 21.7625 8.9375C21.7208 9.12917 21.6166 9.28333 21.45 9.4L19.3 10.925C19.3333 11.0917 19.3541 11.2708 19.3625 11.4625C19.3708 11.6542 19.375 11.8333 19.375 12C19.375 12.1667 19.3708 12.3417 19.3625 12.525C19.3541 12.7083 19.3333 12.8833 19.3 13.05L21.45 14.6C21.6 14.7167 21.7 14.8667 21.75 15.05C21.8 15.2333 21.775 15.4083 21.675 15.575L20.025 18.5C19.925 18.6833 19.7833 18.8042 19.6 18.8625C19.4166 18.9208 19.2333 18.9083 19.05 18.825L16.725 17.75C16.4583 17.9667 16.1541 18.1792 15.8125 18.3875C15.4708 18.5958 15.1333 18.75 14.8 18.85L14.4 21.375C14.3666 21.5583 14.2791 21.7083 14.1375 21.825C13.9958 21.9417 13.8333 22 13.65 22ZM12 15.25C12.9 15.25 13.6666 14.9333 14.3 14.3C14.9333 13.6667 15.25 12.9 15.25 12C15.25 11.1 14.9333 10.3333 14.3 9.7C13.6666 9.06667 12.9 8.75 12 8.75C11.1 8.75 10.3333 9.06667 9.69998 9.7C9.06664 10.3333 8.74998 11.1 8.74998 12C8.74998 12.9 9.06664 13.6667 9.69998 14.3C10.3333 14.9333 11.1 15.25 12 15.25ZM12 13.75C11.5166 13.75 11.1041 13.5792 10.7625 13.2375C10.4208 12.8958 10.25 12.4833 10.25 12C10.25 11.5167 10.4208 11.1042 10.7625 10.7625C11.1041 10.4208 11.5166 10.25 12 10.25C12.4833 10.25 12.8958 10.4208 13.2375 10.7625C13.5791 11.1042 13.75 11.5167 13.75 12C13.75 12.4833 13.5791 12.8958 13.2375 13.2375C12.8958 13.5792 12.4833 13.75 12 13.75ZM10.9 20.5H13.1L13.45 17.7C14 17.5667 14.5208 17.3583 15.0125 17.075C15.5041 16.7917 15.95 16.45 16.35 16.05L19 17.2L20 15.4L17.65 13.675C17.7166 13.3917 17.7708 13.1125 17.8125 12.8375C17.8541 12.5625 17.875 12.2833 17.875 12C17.875 11.7167 17.8583 11.4375 17.825 11.1625C17.7916 10.8875 17.7333 10.6083 17.65 10.325L20 8.6L19 6.8L16.35 7.95C15.9666 7.51667 15.5333 7.15417 15.05 6.8625C14.5666 6.57083 14.0333 6.38333 13.45 6.3L13.1 3.5H10.9L10.55 6.3C9.98331 6.41667 9.45414 6.61667 8.96248 6.9C8.47081 7.18333 8.03331 7.53333 7.64998 7.95L4.99998 6.8L3.99998 8.6L6.34998 10.325C6.28331 10.6083 6.22914 10.8875 6.18748 11.1625C6.14581 11.4375 6.12498 11.7167 6.12498 12C6.12498 12.2833 6.14581 12.5625 6.18748 12.8375C6.22914 13.1125 6.28331 13.3917 6.34998 13.675L3.99998 15.4L4.99998 17.2L7.64998 16.05C8.04998 16.45 8.49581 16.7917 8.98748 17.075C9.47914 17.3583 9.99998 17.5667 10.55 17.7L10.9 20.5Z" fill="black"/>
</svg>
