<svg width="390" height="412" viewBox="0 0 390 412" fill="none" xmlns="http://www.w3.org/2000/svg">
<g clip-path="url(#clip0_262_7731)">
<path d="M503.881 235.24C503.735 236.002 503.572 236.765 503.394 237.527C503.215 238.257 503.053 238.987 502.875 239.717C502.859 239.766 502.859 239.814 502.842 239.863C502.664 240.496 502.502 241.145 502.34 241.777C502.323 241.81 502.323 241.858 502.307 241.891C502.275 242.069 502.226 242.231 502.161 242.41C501.042 246.611 499.679 250.829 498.09 255.03C497.96 255.387 497.814 255.76 497.668 256.117C497.668 256.133 497.652 256.149 497.652 256.165C487.886 281.26 469.589 306.354 439.531 329.112C437.633 330.556 435.687 331.983 433.691 333.411C418.33 344.328 400.259 354.709 378.961 364.231C376.495 365.334 373.965 366.437 371.402 367.524C368.547 368.741 365.627 369.925 362.675 371.109C359.998 372.163 357.241 373.234 354.451 374.272C354.24 374.337 354.061 374.434 353.851 374.499C328.189 384.07 298.585 392.537 264.456 399.48C234.625 405.563 206.53 409.277 180.186 410.932C143.575 413.252 110.338 411.629 80.4583 406.909C53.9042 402.724 30.0104 396.09 8.79303 387.638C-119.744 336.477 -150.597 218.37 -82.7432 168.246C8.35506 100.945 62.2743 194.427 194.818 119.94C301.975 59.6779 378.182 47.6417 446.279 92.3312C449.264 94.3102 452.248 96.3865 455.217 98.5763C456.271 99.355 457.326 100.134 458.38 100.945C475.299 113.938 492.007 137.637 500.669 166.511C506.946 187.42 509.006 211.038 503.881 235.24Z" fill="#E9F7ED"/>
<path d="M-6.71428 285.185C3.27799 336.606 1.34766 387.703 18.8179 387.411C36.2233 388.255 64.7401 326.841 49.2002 263.903C34.0496 200.916 -6.90893 175.416 -17.7934 186.333C-30.089 197.364 -15.7657 233.375 -6.71428 285.169V285.185Z" fill="#226B3C"/>
<path d="M18.413 323.909C32.1956 311.012 24.7105 280.618 1.69452 256.022C-21.3214 231.427 -51.1525 221.944 -64.9351 234.841C-78.7176 247.739 -71.2325 278.133 -48.2166 302.728C-25.2006 327.324 4.63047 336.807 18.413 323.909Z" fill="#226B3C"/>
<path d="M26.5553 328.269C53.0121 363.842 32.6221 383.469 18.3636 386.113C13.2702 387.379 12.7673 389.569 7.51164 387.427C7.51164 387.427 -21.1675 374.84 -44.8666 358.878C-75.6869 338.099 -111.714 319.866 -91.7297 301.033C-82.4025 292.339 -58.9791 288.121 -35.0528 293.101C-11.0616 297.643 13.4324 311.399 26.5553 328.285V328.269Z" fill="#226B3C"/>
<path d="M51.6656 267.18C34.9253 299.736 36.6123 337.563 43.1008 333.833C49.2649 330.702 58.1054 297.903 70.8391 277.383C83.0374 256.392 92.4619 246.141 90.1099 237.592C88.3904 229.563 68.5357 234.38 51.6656 267.18Z" fill="#226B3C"/>
<path d="M52.7689 299.963C39.6784 315.308 38.916 336.882 43.4904 339.186C47.9187 341.846 53.7746 326.468 63.8804 312.875C73.8078 299.038 83.3458 291.463 81.6264 287.18C80.3287 283.141 65.7134 284.536 52.7689 299.979V299.963Z" fill="#226B3C"/>
<path d="M43.7171 316.314C43.7171 316.314 43.636 316.314 43.5873 316.297C43.3765 316.233 43.2629 316.005 43.3278 315.778C52.1035 288.575 74.6023 284.682 74.8294 284.65C75.0403 284.617 75.2511 284.763 75.2998 284.99C75.3322 285.218 75.1862 285.412 74.9591 285.461C74.732 285.493 52.7199 289.338 44.0902 316.038C44.0415 316.216 43.8793 316.314 43.7009 316.314H43.7171Z" fill="#340000"/>
<path d="M36.8396 348.61C36.7099 348.61 36.5801 348.545 36.499 348.432C35.3148 346.631 34.2442 344.539 32.9952 342.122C27.5449 331.529 19.2883 315.535 -11.4995 301.228C-47.4295 284.536 -75.8977 293.377 -79.0122 294.447L-79.1744 294.074L-79.3042 293.685C-76.1086 292.598 -47.3646 283.677 -11.1589 300.498C19.8885 314.919 28.21 331.075 33.7089 341.765C34.9417 344.165 36.0124 346.242 37.1803 348.01C37.3101 348.205 37.2452 348.448 37.0667 348.578C37.0018 348.626 36.9207 348.642 36.8396 348.642V348.61Z" fill="#340000"/>
<path d="M21.997 286.207C21.8348 286.207 21.6888 286.126 21.6239 285.964C-1.29665 234.932 -46.2943 229.579 -46.7322 229.546C-46.9593 229.546 -47.1215 229.336 -47.1053 229.108C-47.1053 228.881 -46.8782 228.703 -46.6674 228.735C-46.2132 228.768 -0.745129 234.169 22.3701 285.623C22.4674 285.834 22.3701 286.061 22.1592 286.158C22.1106 286.175 22.0457 286.191 21.997 286.191V286.207Z" fill="#340000"/>
<path d="M41.7061 294.821C41.7061 294.821 41.6412 294.821 41.6088 294.821C41.3979 294.772 41.2519 294.545 41.3168 294.334C41.4141 293.896 51.9742 250.829 73.4997 238.63C73.6944 238.517 73.9377 238.582 74.0512 238.776C74.1648 238.971 74.0999 239.214 73.9052 239.328C52.6879 251.348 42.2252 294.074 42.1117 294.512C42.063 294.691 41.9008 294.821 41.7224 294.821H41.7061Z" fill="#340000"/>
<path d="M236.052 89.8006C232.402 111.488 226.709 143.331 220.999 175.465C220.22 179.877 219.328 184.192 218.339 188.361C217.641 191.345 216.862 194.265 216.019 197.088C212.256 202.23 204.551 206.642 195.142 208.459C194.607 208.572 194.088 208.653 193.553 208.734C184.647 205.571 175.563 202.408 166.252 199.261C166.204 199.067 166.155 198.856 166.123 198.661C165.96 197.85 165.928 197.039 165.993 196.212C165.977 196.212 165.993 196.179 165.993 196.179C166.56 194.573 167.128 192.967 167.647 191.345C174.33 171.539 180.008 150.63 184.89 131.165C190.243 109.882 199.976 103.053 216.895 96.4351C227.487 92.2824 236.036 89.8006 236.036 89.8006H236.052Z" fill="#CDF4AB"/>
<path d="M216.019 197.088C212.256 202.23 204.551 206.642 195.142 208.459C194.607 208.572 194.088 208.653 193.553 208.735C180.105 210.876 168.264 206.788 166.252 199.261C166.204 199.067 166.155 198.856 166.123 198.661C165.96 197.85 165.928 197.039 165.993 196.228V196.196C166.139 194.557 166.707 192.935 167.664 191.362C169.983 187.501 174.525 183.949 180.43 181.467C183.155 180.299 186.172 179.374 189.384 178.742C190.13 178.596 190.892 178.466 191.687 178.352C197.267 177.574 202.539 177.849 206.919 178.985C207.649 179.179 208.346 179.39 209.028 179.634C214.024 181.402 217.511 184.435 218.339 188.361C218.339 188.426 218.371 188.474 218.387 188.539C218.939 191.394 218.03 194.346 216.019 197.088Z" fill="#340000"/>
<path d="M204.956 298.389H316.363L308.301 242.393H213.018L204.956 298.389Z" fill="#162847"/>
<path d="M207.244 137.896C211.607 178.985 209.758 211.054 210.455 257.431C210.455 257.431 222.491 267.455 268.203 263.449C307.247 260.026 312.016 250.001 312.016 250.001C313.265 217.445 314.725 168.376 318.943 128.569C320.322 115.56 318.878 103.751 308.058 98.2843C302.997 95.7214 297.79 93.6126 292.47 91.9256C271.853 85.3398 249.857 85.2911 229.207 91.7472C224.389 93.2395 219.653 95.105 215.013 97.311C202.896 103.102 205.735 123.476 207.244 137.88V137.896Z" fill="#CDF4AB"/>
<path d="M275.827 88.065C284.943 107.336 295.373 141.287 308.967 170.096C315.812 184.597 323.452 197.801 332.131 207.161C344.394 198.272 357.16 189.253 370.461 180.153C356.057 156.778 342.82 138.432 332.131 118.902C321.603 99.6469 309.048 95.9972 292.453 91.585C282.38 88.9085 275.811 88.0488 275.811 88.0488L275.827 88.065Z" fill="#CDF4AB"/>
<path d="M254.934 75.5746L271.625 78.0889L272.907 18.6544L251.657 18.8977C244.471 18.9788 238.761 24.9807 239.053 32.1667L240.14 59.0614C240.481 67.3991 246.677 74.3094 254.918 75.5584L254.934 75.5746Z" fill="#340000"/>
<path d="M229.207 91.7472C231.218 104.189 244.812 118.593 261.341 118.902C279.331 119.242 291.026 104.108 292.664 91.6337C268.17 84.691 249.857 85.2749 229.207 91.7472Z" fill="#F79E7E"/>
<path d="M275.81 52.946H248.851V98.9981H275.81V52.946Z" fill="#F79E7E"/>
<path d="M261.795 79.5813C261.795 79.5813 270.084 84.8694 275.827 86.3131V78.6891L261.795 79.5813Z" fill="#340000"/>
<path d="M276.021 80.6682H266.386C256.702 80.6682 248.851 72.8171 248.851 63.133V28.2737L285.738 28.2737V70.9516C285.738 76.3209 281.391 80.6682 276.021 80.6682Z" fill="#F79E7E"/>
<path d="M243.417 59.2561C245.639 62.0299 248.948 63.0843 250.797 61.6082C252.646 60.132 252.354 56.6769 250.132 53.8869C247.91 51.113 244.601 50.0587 242.751 51.5348C240.902 53.0109 241.194 56.466 243.417 59.2561Z" fill="#F79E7E"/>
<path d="M367.85 192.14C367.622 192.448 367.395 192.757 367.152 193.065C364.751 196.147 361.475 199.326 357.549 202.23C352.018 206.334 346.324 209.01 341.701 209.984C341.312 210.065 340.922 210.146 340.549 210.194C336.964 210.762 334.158 210.211 332.796 208.345C331.238 206.236 331.806 202.862 334.012 199.067C336.332 195.011 340.517 190.486 345.918 186.495C350.12 183.381 354.451 181.077 358.311 179.731C358.344 179.715 358.393 179.699 358.425 179.699C364.102 177.703 368.774 177.784 370.672 180.364C372.57 182.927 371.321 187.355 367.85 192.14Z" fill="#340000"/>
<path d="M173.098 174.313C173.016 174.313 172.935 174.281 172.854 174.232C172.676 174.102 172.627 173.843 172.757 173.664C183.252 159.033 201.404 162.358 201.598 162.39C201.809 162.439 201.955 162.65 201.923 162.861C201.874 163.088 201.679 163.218 201.452 163.185C201.274 163.153 183.609 159.941 173.438 174.135C173.357 174.248 173.227 174.297 173.114 174.297L173.098 174.313Z" fill="#340000"/>
<path d="M406.91 263.141C404.266 267.455 398.605 268.769 394.306 266.109C393.074 265.363 391.841 264.536 390.624 263.676C389.943 263.222 389.537 262.897 389.067 262.508L387.656 261.356C386.731 260.594 385.677 259.799 384.882 259.069L382.351 256.749C380.632 255.208 379.042 253.684 377.501 252.11C375.912 250.537 374.371 248.963 372.862 247.373C369.812 244.21 366.974 240.966 364.054 237.738L355.7 227.876C351.109 222.231 346.535 216.618 342.317 210.811C342.107 210.535 341.912 210.259 341.701 209.984C341.117 209.205 340.549 208.41 339.998 207.599C338.278 205.15 335.586 201.597 334.012 199.067C336.332 195.011 340.517 190.486 345.919 186.495C350.12 183.381 354.451 181.077 358.312 179.731C358.344 179.715 358.393 179.699 358.425 179.699C361.053 182.829 363.486 186.041 365.838 189.302C366.487 190.194 367.136 191.118 367.769 192.027C367.801 192.059 367.817 192.108 367.85 192.14C369.585 194.671 371.272 197.201 372.911 199.78L379.756 210.389L393.074 231.639C394.144 233.423 395.231 235.175 396.334 236.862C397.453 238.582 398.491 240.398 399.578 242.02C400.681 243.691 401.752 245.443 402.758 246.903L404.234 249.109C404.607 249.644 404.996 250.212 405.369 250.845L407.024 253.732C408.678 256.555 408.743 260.172 406.91 263.141Z" fill="#F79E7E"/>
<path d="M423.229 275.193C422.466 274.852 418.281 268.948 408.175 269.45C398.07 269.953 392.83 268.38 389.716 263.432C386.601 258.485 404.85 250.001 404.85 250.001L423.229 275.177V275.193Z" fill="#F79E7E"/>
<path d="M196.067 216.586C200.203 219.684 225.135 235.354 236.052 246.935C239.459 250.553 243.757 245.865 246.742 241.907C248.672 239.328 249.094 231.785 247.261 229.417C241.438 221.874 228.769 206.966 220.918 199.813C214.624 194.087 208.492 185.7 200.236 183.235C192.758 181.029 181.111 186.301 178.905 193.779C178.905 193.779 180.121 199.505 184.388 204.679C187.826 208.848 194.023 215.012 196.067 216.586Z" fill="#F79E7E"/>
<path d="M244.358 225.783L237.285 247.373L257.237 256.068L263.044 242.718L252.501 233.78C249.419 231.168 247.261 229.417 244.358 225.799V225.783Z" fill="#F79E7E"/>
<path d="M252.371 240.836C252.582 240.885 252.939 241.047 252.987 241.096L253.198 241.209L253.458 241.372L253.847 241.647L254.544 242.15L255.891 243.107C256.783 243.724 257.691 244.308 258.616 244.827C260.433 245.865 262.379 246.708 264.131 246.952C264.569 247.017 264.991 247.017 265.38 246.984L265.624 246.952C265.51 246.984 265.445 247.017 265.429 247.033C265.38 247.065 265.461 247.033 265.559 246.935C265.997 246.498 266.516 245.524 266.921 244.583C267.748 242.653 268.397 240.479 268.916 238.371V238.322C269.144 237.446 270.019 236.927 270.895 237.138C271.723 237.349 272.242 238.16 272.112 238.971C271.723 241.339 271.252 243.594 270.474 245.93C270.052 247.114 269.663 248.266 268.641 249.596C268.381 249.92 268.024 250.293 267.505 250.618C267.246 250.78 266.905 250.926 266.516 251.023C266.256 251.088 266.126 251.104 265.915 251.137C265.169 251.25 264.439 251.283 263.742 251.234C260.952 251.039 258.583 250.066 256.377 249.028C255.274 248.493 254.22 247.909 253.198 247.292L251.689 246.368L250.976 245.914L250.651 245.719L250.554 245.67H250.57C250.57 245.67 250.846 245.832 250.992 245.849C249.613 245.459 248.802 244.032 249.175 242.653C249.565 241.274 250.992 240.463 252.371 240.836Z" fill="#F79E7E"/>
<path d="M253.49 235.808C253.766 235.905 254.042 236.035 254.301 236.181C254.528 236.327 254.48 236.311 254.593 236.392L254.966 236.684L255.55 237.186L256.637 238.127C257.351 238.744 258.048 239.328 258.778 239.879C260.206 240.982 261.698 241.972 263.142 242.572C263.482 242.685 263.855 242.831 264.164 242.88L264.407 242.945C264.407 242.945 264.228 242.945 264.164 242.961C264.001 243.01 263.969 243.059 264.001 243.059C264.18 243.01 264.748 242.28 265.104 241.566C265.883 240.074 266.483 238.257 266.954 236.521V236.457C267.213 235.597 268.105 235.078 268.965 235.321C269.776 235.548 270.279 236.359 270.133 237.17C269.776 239.198 269.354 241.112 268.56 243.14C268.105 244.145 267.748 245.2 266.402 246.351C266.045 246.627 265.575 246.919 264.942 247.033C264.65 247.114 264.293 247.114 263.985 247.098L263.515 247.033C262.866 246.968 262.314 246.789 261.73 246.643C259.557 245.93 257.74 244.859 256.021 243.756C255.161 243.205 254.334 242.621 253.539 242.02L252.371 241.144L251.819 240.739C251.722 240.658 251.673 240.642 251.608 240.609C251.754 240.706 251.933 240.771 252.095 240.804C250.716 240.431 249.905 238.987 250.278 237.608C250.668 236.229 252.095 235.418 253.474 235.791L253.49 235.808Z" fill="#F79E7E"/>
<path d="M242.54 244.048C242.978 244.145 243.433 244.275 243.708 244.372C244.049 244.486 244.341 244.6 244.617 244.713C245.217 244.94 245.72 245.2 246.271 245.459C247.326 245.978 248.364 246.53 249.353 247.114C251.365 248.249 253.263 249.515 255.161 250.78C257.026 252.078 258.875 253.408 260.643 254.835C262.428 256.246 264.163 257.722 265.769 259.426C266.402 260.107 266.386 261.161 265.721 261.794C265.266 262.232 264.618 262.362 264.05 262.183C261.795 261.453 259.67 260.448 257.642 259.328C255.615 258.209 253.668 256.976 251.77 255.662C249.889 254.332 248.056 252.953 246.32 251.477C245.444 250.747 244.584 249.985 243.741 249.239L242.524 248.12L241.956 247.584C241.746 247.373 241.665 247.292 241.567 247.162L241.016 246.384C240.545 245.719 240.691 244.794 241.356 244.308C241.713 244.048 242.135 243.983 242.54 244.064V244.048Z" fill="#F79E7E"/>
<path d="M249.435 244.665L263.823 250.812C265.234 251.526 267.083 250.991 267.927 249.563L271.69 242.88C272.128 242.102 273.118 241.826 273.896 242.264C274.643 242.686 274.918 243.61 274.561 244.373L271.269 251.315C270.506 252.889 269.111 254.17 267.457 254.803C265.818 255.468 263.823 255.419 262.217 254.803L248.056 249.677L247.537 249.482C246.191 248.996 245.493 247.519 245.98 246.173C246.466 244.827 247.942 244.129 249.289 244.616C249.337 244.616 249.386 244.648 249.419 244.665H249.435Z" fill="#F79E7E"/>
<path d="M284.732 258.761L284.002 259.345L257.854 229.222C256.945 228.167 255.291 227.584 254.107 227.843C254.074 227.843 254.042 227.859 253.993 227.875L238.972 232.239L238.842 231.963L237.934 231.347L237.658 233.358C237.658 233.537 237.674 233.748 237.788 233.958L264.65 265.103C265.559 266.158 267.197 266.742 268.381 266.482C268.414 266.482 268.446 266.466 268.495 266.45C269.29 266.222 270.084 265.995 270.879 265.752C272.615 265.249 274.367 264.746 276.102 264.243C277.838 263.741 279.574 263.238 281.326 262.735C281.666 262.638 281.991 262.54 282.331 262.443C282.85 262.297 283.402 262.2 283.872 261.972C284.262 261.778 284.635 261.453 284.716 261.015C284.716 260.934 284.716 258.761 284.716 258.761H284.732Z" fill="#241E2C"/>
<path d="M247.294 228.816C247.732 228.719 248.332 228.946 248.673 229.335C249.013 229.741 248.932 230.163 248.51 230.292C248.51 230.292 248.494 230.292 248.478 230.292C248.04 230.39 247.407 230.163 247.067 229.773C246.71 229.368 246.791 228.946 247.229 228.816C247.245 228.816 247.261 228.816 247.278 228.816H247.294Z" fill="#162847"/>
<path d="M268.527 264.471C268.527 264.471 268.592 264.454 268.641 264.438L283.807 260.042C284.992 259.702 285.186 258.55 284.262 257.463L257.999 227.21C257.091 226.156 255.436 225.572 254.252 225.832C254.22 225.832 254.187 225.848 254.139 225.864L238.972 230.26C237.788 230.601 237.609 231.769 238.534 232.823L264.796 263.076C265.704 264.13 267.343 264.714 268.527 264.454V264.471Z" fill="#6C949F"/>
<path d="M266.532 263.303L283.516 258.404L257.773 228.735L240.805 233.65L266.532 263.303Z" fill="white"/>
<path d="M248.494 230.309C248.494 230.309 248.51 230.309 248.527 230.309C248.965 230.179 249.029 229.741 248.689 229.352C248.348 228.962 247.732 228.735 247.31 228.833C247.294 228.833 247.278 228.833 247.261 228.833C246.807 228.962 246.726 229.384 247.099 229.79C247.44 230.179 248.072 230.406 248.51 230.309H248.494Z" fill="white"/>
<path d="M254.123 243.724L253.668 243.14L254.512 242.848L254.966 243.432L254.123 243.724Z" fill="#241E2C"/>
<path d="M259.508 250.504L259.005 249.855L259.881 249.563L260.4 250.212L259.508 250.504Z" fill="#241E2C"/>
<path d="M268.738 247.406L268.187 246.773L269.062 246.481L269.614 247.114L268.738 247.406Z" fill="#241E2C"/>
<path d="M265.38 242.929L265.899 243.513L264.894 243.853L264.391 243.269L265.396 242.929H265.38ZM269.322 245.735L270.766 247.357L268.446 248.136L267.035 246.514L269.322 245.735ZM263.872 243.432L264.374 244.016L263.434 244.34L262.931 243.756L263.872 243.432ZM266.353 244.681L265.769 244.875L265.185 244.21L266.191 243.87L267.797 245.703L266.061 246.287L266.581 246.887L264.277 247.665L263.304 246.514L266.889 245.297L266.353 244.681ZM261.26 241.128L262.282 242.312L263.255 241.988L262.233 240.804L263.223 240.463L264.942 242.426L260.514 243.935L259.33 242.523L260.692 242.053L260.206 241.485L261.276 241.112L261.26 241.128ZM262.785 246.676L263.758 247.828L263.466 247.925L262.509 246.773L262.801 246.676H262.785ZM259.589 244.583L259.978 245.054L261.114 244.665L260.919 244.437L262.12 244.032L262.623 244.616L259.524 245.67L258.859 244.843L259.605 244.583H259.589ZM258.194 242.896L259.362 244.308L257.156 245.054L256.329 244.032L256.88 243.853L256.556 243.464L258.194 242.913V242.896ZM258.129 245.086L258.794 245.914L258.048 246.173L257.383 245.346L258.129 245.086ZM255.372 244.373L256.377 245.622L255.777 245.816L254.788 244.551L255.372 244.356V244.373ZM254.788 242.166L255.988 243.659L253.814 244.405L252.63 242.913L254.771 242.183L254.788 242.166ZM260.157 248.817L261.471 250.455L259.184 251.218L257.886 249.58L260.141 248.817H260.157ZM258.94 251.85L262.428 250.683L260.4 248.201L259.832 248.395L259.557 248.055L260.676 247.682L260.498 247.455L259.378 247.828L259.054 247.422L259.524 247.26L259.167 246.822L258.697 246.984L258.324 246.53L264.666 244.373L265.25 245.038L263.904 245.492L263.45 244.956L263.207 245.038L263.661 245.573L260.368 246.692L260.871 247.309L262.022 246.919L262.979 248.071L261.098 248.704L261.487 249.174L263.563 248.476L264.374 249.45L264.975 249.255L264.31 248.444L264.829 248.266L264.699 248.103L267.018 247.325L268.235 248.736L271.771 247.552L269.581 245.102L268.981 245.297L265.477 241.355L266.386 241.047L265.899 240.512L264.991 240.82L263.644 239.295L262.558 239.668L262.963 240.123L261.195 240.723L260.66 240.09L260.06 240.301L260.595 240.934L259.962 241.145L258.729 241.566L258.616 241.599L258.081 240.966L257.351 241.226L257.87 241.858L255.875 242.54L255.08 241.55L251.835 242.669L253.62 244.94L254.382 244.681L255.372 245.946L254.739 246.157L255.161 246.692L256.864 246.108L257.789 247.276L256.231 247.811L256.588 248.249L258.145 247.714L258.908 248.671L257.042 249.304L259.005 251.802L258.94 251.85Z" fill="#241E2C"/>
<path d="M267.846 243.497L267.148 242.718L267.684 242.54L268.381 243.318L267.846 243.497Z" fill="#241E2C"/>
<path d="M260.984 243.286L260.514 242.734L261.325 242.458L261.795 243.01L260.984 243.286Z" fill="#241E2C"/>
<path d="M257.74 244.275L257.48 243.951L258.275 243.691L258.535 244.016L257.74 244.275Z" fill="#241E2C"/>
<path d="M255.761 241.599L255.534 241.339L256.621 240.966L256.831 241.242L255.761 241.599Z" fill="#241E2C"/>
<path d="M266.548 249.45L266.078 248.914L267.116 248.558L267.586 249.109L266.548 249.45Z" fill="#241E2C"/>
<path d="M263.028 250.18L262.477 249.515L263.401 249.19L263.969 249.871L263.028 250.18Z" fill="#241E2C"/>
<path d="M261.601 239.587L261.374 239.328L263.109 238.744L263.336 239.003L261.601 239.587Z" fill="#241E2C"/>
<path d="M240.091 250.034C242.135 251.234 249.792 255.873 253.068 256.798C255.323 257.431 257.773 257.593 260.206 257.268C261.325 257.122 266.694 256.279 266.11 254.673C265.251 252.305 262.185 253.1 259.946 252.97C256.004 252.743 253.02 250.374 250.57 248.022C247.764 245.33 245.736 243.724 242.427 241.469C240.513 240.155 236.945 239.555 235.258 241.355C234.252 242.426 234.365 246.66 240.091 250.034Z" fill="#F79E7E"/>
<path d="M269.484 45.3545L269.533 45.3869H269.484L269.354 45.4356L269.046 45.4843L268.397 45.5816L267.083 45.7763L264.488 46.198C263.628 46.3764 262.866 46.5062 262.022 46.7495L259.427 47.4957L259.33 47.5281C259.021 47.6093 258.697 47.447 258.616 47.1388C258.567 46.9928 258.6 46.8469 258.648 46.7171C259.167 45.6789 259.93 44.9328 260.822 44.3001C261.698 43.6837 262.769 43.2458 263.79 43.0024C264.796 42.7429 265.834 42.6131 266.889 42.6293C267.408 42.6293 267.927 42.678 268.446 42.7429C268.705 42.7916 268.965 42.824 269.225 42.9051L269.63 43.0187L270.198 43.2133C270.782 43.408 271.106 44.0406 270.912 44.6246C270.717 45.2085 270.084 45.5329 269.5 45.3383L269.484 45.3545Z" fill="#340000"/>
<path d="M277.546 42.8078C278.827 42.3212 280.125 42.4023 281.407 42.7591C282.039 42.9538 282.688 43.2296 283.272 43.6675C283.856 44.0893 284.424 44.6732 284.651 45.4681C284.732 45.7925 284.553 46.1169 284.229 46.2143C284.148 46.2305 284.067 46.2467 283.986 46.2143H283.84C283.256 46.1007 282.769 46.0845 282.266 46.052C281.763 46.0196 281.261 45.9547 280.725 45.9061C279.687 45.7601 278.616 45.6141 277.513 45.0626L277.449 45.0301C276.832 44.7381 276.589 43.992 276.881 43.3918C277.027 43.0998 277.27 42.8889 277.546 42.7916V42.8078Z" fill="#340000"/>
<path d="M274.318 64.0738C272.891 64.0738 270.717 63.8142 269.906 62.3219C269.792 62.1272 269.873 61.8839 270.068 61.7704C270.263 61.6568 270.506 61.7379 270.62 61.9326C271.333 63.2465 273.864 63.3438 275.145 63.2303L274.367 49.4909C274.367 49.2638 274.529 49.0692 274.756 49.0692C274.983 49.0367 275.178 49.2314 275.178 49.4585L275.973 63.5871C275.973 63.798 275.827 63.9765 275.616 64.0089C275.551 64.0089 275.032 64.09 274.302 64.09L274.318 64.0738Z" fill="#C73112"/>
<path d="M269.5 68.5022C268.77 68.5022 267.748 68.34 266.791 67.6263C265.493 66.6692 264.715 64.9984 264.455 62.6788C264.423 62.4517 264.585 62.257 264.812 62.2246C265.055 62.1922 265.234 62.3544 265.266 62.5815C265.493 64.674 266.175 66.1339 267.278 66.9612C268.478 67.8533 269.808 67.6749 270.198 67.61C270.441 67.5614 270.636 67.7074 270.668 67.9345C270.717 68.1616 270.571 68.3724 270.344 68.4049C270.181 68.4373 269.889 68.486 269.5 68.486V68.5022Z" fill="#C73112"/>
<path d="M264.569 52.4594C264.196 53.4326 264.472 54.4383 265.186 54.7141C265.899 54.9899 266.759 54.4059 267.132 53.4489C267.505 52.4756 267.229 51.4699 266.516 51.1941C265.802 50.9183 264.942 51.5023 264.569 52.4594Z" fill="#340000"/>
<path d="M279.947 52.4594C279.573 53.4326 279.849 54.4383 280.563 54.7141C281.277 54.9899 282.136 54.4059 282.51 53.4489C282.883 52.4756 282.607 51.4699 281.893 51.1941C281.179 50.9183 280.32 51.5023 279.947 52.4594Z" fill="#340000"/>
<path d="M262.655 53.5463C262.558 53.5463 262.46 53.5138 262.379 53.4489C262.217 53.3029 262.201 53.0434 262.347 52.8812C262.395 52.8163 263.661 51.4213 265.85 50.5453C268.267 49.5721 270.344 50.5129 270.441 50.5453C270.636 50.6427 270.733 50.886 270.636 51.0806C270.538 51.2753 270.295 51.3726 270.1 51.2753C270.084 51.2753 268.235 50.448 266.159 51.2753C264.147 52.0864 262.963 53.384 262.963 53.4003C262.882 53.4976 262.768 53.53 262.655 53.53V53.5463Z" fill="#340000"/>
<path d="M278.438 53.3516C278.341 53.3516 278.243 53.3192 278.162 53.2543C278 53.1083 277.984 52.8488 278.13 52.6865C278.179 52.6217 279.444 51.2266 281.634 50.3507C284.051 49.3774 286.127 50.3183 286.224 50.3507C286.419 50.448 286.516 50.6913 286.419 50.886C286.322 51.0806 286.078 51.178 285.884 51.0806C285.867 51.0806 284.018 50.2534 281.942 51.0806C279.93 51.8917 278.746 53.1894 278.746 53.2056C278.665 53.303 278.552 53.3354 278.438 53.3354V53.3516Z" fill="#340000"/>
<path d="M313.2 218.873C312.973 218.873 312.795 218.694 312.795 218.467C312.714 206.301 313.801 192.092 314.725 182.294C315.05 178.66 315.439 174.994 315.828 171.685C316.574 165.229 317.483 159.422 318.115 155.61C319.008 150.306 319.737 146.834 319.737 146.802C319.786 146.575 320.013 146.429 320.224 146.494C320.451 146.542 320.581 146.753 320.532 146.98C320.532 147.013 319.802 150.468 318.91 155.74C318.294 159.552 317.369 165.343 316.639 171.783C316.25 175.092 315.877 178.758 315.552 182.375C314.628 192.14 313.541 206.334 313.622 218.467C313.622 218.694 313.444 218.873 313.217 218.873H313.2Z" fill="#340000"/>
<path d="M362.221 167.452C362.091 167.452 361.961 167.387 361.88 167.273C361.231 166.267 350.379 156.648 337.921 152.625C337.71 152.56 337.597 152.333 337.662 152.122C337.727 151.912 337.954 151.798 338.181 151.863C351.077 156.016 361.88 165.748 362.578 166.835C362.707 167.03 362.642 167.273 362.448 167.403C362.383 167.452 362.302 167.468 362.237 167.468L362.221 167.452Z" fill="#340000"/>
<path d="M316.234 180.12C316.234 180.12 316.169 180.12 316.136 180.12C315.926 180.072 315.78 179.845 315.828 179.634C317.434 172.61 326.129 166.949 326.502 166.705C326.696 166.576 326.94 166.64 327.07 166.819C327.199 167.014 327.134 167.257 326.956 167.387C326.875 167.452 318.18 173.113 316.639 179.812C316.591 180.007 316.428 180.12 316.25 180.12H316.234Z" fill="#340000"/>
<path d="M210.455 188.555C210.228 188.555 210.05 188.361 210.05 188.15C210.082 186.171 210.082 185.344 210.05 183.316C209.952 175.708 209.466 166.576 208.606 156.178C207.763 145.861 206.854 138.01 206.854 137.929C206.822 137.702 206.984 137.507 207.211 137.475C207.438 137.459 207.633 137.605 207.665 137.832C207.665 137.913 208.59 145.78 209.417 156.113C210.277 166.527 210.764 175.676 210.861 183.3C210.893 185.344 210.893 186.155 210.861 188.15C210.861 188.377 210.682 188.555 210.455 188.555Z" fill="#340000"/>
<path d="M313.363 99.4036C313.363 99.4036 313.233 99.4036 313.168 99.3549L313.006 99.2576C308.934 96.8731 302.138 96.2405 293.897 97.4408C293.67 97.4733 293.475 97.3111 293.443 97.1002C293.411 96.8731 293.557 96.6784 293.784 96.646C302.202 95.4132 309.178 96.0945 313.411 98.5601L313.541 98.6412C313.736 98.7385 313.817 98.9981 313.703 99.1927C313.638 99.3225 313.492 99.4036 313.346 99.4036H313.363Z" fill="#340000"/>
<path d="M209.855 170.306C209.676 170.306 209.53 170.193 209.465 170.015C205.718 158.043 199.035 145.456 198.289 144.742C198.094 144.628 198.046 144.385 198.175 144.19C198.289 143.996 198.565 143.947 198.743 144.061C199.522 144.531 206.432 157.605 210.228 169.755C210.293 169.966 210.179 170.193 209.968 170.258C209.936 170.258 209.887 170.274 209.855 170.274V170.306Z" fill="#340000"/>
<path d="M302.105 227.794C301.959 227.794 301.813 227.713 301.732 227.567C300.256 224.372 289.242 216.748 283.953 213.082C282.266 211.914 281.05 211.07 280.644 210.73C280.466 210.584 280.45 210.324 280.596 210.162C280.742 210 281.001 209.967 281.163 210.113C281.52 210.422 282.802 211.297 284.408 212.417C290.166 216.407 300.872 223.836 302.446 227.227C302.543 227.438 302.446 227.665 302.251 227.762C302.202 227.794 302.137 227.794 302.073 227.794H302.105Z" fill="#340000"/>
<path d="M291.512 198.645C291.512 198.645 291.366 198.629 291.302 198.596C287.473 196.358 271.625 189.042 262.525 187.387C262.298 187.355 262.152 187.144 262.201 186.917C262.233 186.69 262.444 186.544 262.671 186.593C271.852 188.247 287.846 195.644 291.707 197.899C291.902 198.012 291.967 198.256 291.853 198.45C291.772 198.58 291.642 198.645 291.496 198.645H291.512Z" fill="#340000"/>
<path d="M315.13 182.343C320.337 191.929 325.982 200.494 332.146 207.145C322.868 190.453 318.634 156.616 318.521 155.675C317.807 160.022 316.931 165.667 316.233 171.734C315.893 174.719 315.503 178.336 315.13 182.343Z" fill="#340000"/>
<path d="M370.769 196.877C370.623 196.877 370.493 196.796 370.412 196.666C367.476 191.232 363.097 189.448 358.847 187.712C356.105 186.593 353.266 185.441 350.963 183.316C350.801 183.17 350.785 182.91 350.947 182.748C351.093 182.586 351.352 182.57 351.515 182.732C353.704 184.76 356.349 185.846 359.155 186.982C363.535 188.766 368.06 190.599 371.126 196.293C371.24 196.488 371.158 196.731 370.964 196.844C370.899 196.877 370.834 196.893 370.769 196.893V196.877Z" fill="#C73112"/>
<path d="M209.028 179.634L205.329 198.239C205.329 198.239 181.825 201.873 178.905 193.779C177.348 189.464 180.43 181.467 180.43 181.467C183.155 180.299 186.172 179.374 189.384 178.742C190.13 178.596 190.892 178.466 191.687 178.352C197.267 177.574 202.539 177.849 206.919 178.985C207.649 179.179 208.346 179.39 209.028 179.634Z" fill="#F79E7E"/>
<path d="M242.382 21.5352C241.606 25.7141 253.388 38.5374 269.314 38.9195C285.369 39.3732 293.505 26.4783 290.333 20.3412C287.333 13.7744 278.205 16.6399 266.012 18.2399C253.733 20.1502 242.836 17.1653 242.382 21.5591V21.5352Z" fill="#340000"/>
<path d="M264.554 33.3537C260.225 32.169 254.881 29.9423 252.781 27.4673C250.843 25.1705 249.017 24.6193 248.738 24.605C248.588 24.5948 248.441 24.4822 248.415 24.3409C248.389 24.1996 248.487 24.0922 248.641 24.0826C249.027 24.0849 251.041 24.6258 253.209 27.1918C256.002 30.5073 265.553 33.565 269.251 33.7299C283.057 34.3264 287.128 23.3242 287.168 23.2113C287.212 23.0785 287.371 23.0293 287.526 23.0922C287.68 23.1551 287.762 23.3118 287.719 23.4445C287.678 23.5575 283.514 34.8648 269.325 34.2462C268.173 34.1995 266.466 33.8769 264.554 33.3537Z" fill="#8C3E0D"/>
<path d="M269.211 24.3228C266.658 24.3228 263.705 24.0296 260.401 23.2414C260.244 23.2048 260.147 23.0765 260.208 22.9573C260.256 22.8382 260.425 22.774 260.583 22.8107C272.733 25.7159 280.369 21.7201 280.683 21.2802C280.683 21.1519 280.792 21.0878 280.998 21.0878C281.167 21.0878 281.288 21.2252 281.276 21.3535C281.276 21.4269 281.252 21.6193 280.356 22.0959C279.788 22.3983 275.818 24.332 269.223 24.332L269.211 24.3228Z" fill="#8C3E0D"/>
<path d="M7.51172 387.411C69.8174 412.213 155.076 421.265 263.174 399.253C340.598 383.469 395.361 360.208 433.026 333.411L41.8358 382.934L9.00407 299.914L7.52793 387.411H7.51172Z" fill="#DBDBDB"/>
<path d="M8.98779 299.914L41.8195 382.934L433.01 333.411C435.005 331.983 436.968 330.556 438.866 329.112L372.619 267.455L8.98779 299.93V299.914Z" fill="white"/>
<path d="M20.3428 303.466L27.3828 320.401L97.8964 296.751L20.3428 303.466Z" fill="#340000"/>
<path d="M27.3828 320.401L49.2977 373.136L142.278 362.95L97.8964 296.751L27.3828 320.401Z" fill="#BED9E0"/>
<path d="M222.702 271.916L213.683 261.956L200.95 253.408L209.969 263.351L222.702 271.916Z" fill="#BED9E0"/>
<path d="M185.702 309.257L194.704 319.201L194.721 318.828L196.473 274.674L187.454 264.714L186.578 286.759L185.702 309.257Z" fill="#D9965F"/>
<path d="M209.969 263.351L200.95 253.408L187.454 264.714L196.456 274.674L209.969 263.351Z" fill="#BED9E0"/>
<path d="M209.969 263.351L196.456 274.674L194.721 319.201L220.95 316.443L222.702 271.916L209.969 263.351Z" fill="#D9965F"/>
<path d="M194.704 319.607C194.477 319.607 194.299 319.412 194.315 319.185L196.067 274.641C196.067 274.414 196.31 274.252 196.489 274.252C196.716 274.252 196.894 274.447 196.878 274.674L195.126 319.217C195.126 319.428 194.931 319.607 194.721 319.607H194.704Z" fill="#B35C15"/>
<path d="M185.702 309.257L194.704 319.217V318.828C192.644 314.091 189.433 305.9 189.124 299.881C188.638 290.262 186.951 287.294 186.578 286.759L185.702 309.257Z" fill="#340000"/>
<path d="M345.01 280.335L333.201 270.845L333.964 292.29L345.773 301.779L345.01 280.335Z" fill="#8C3E0D"/>
<path d="M403.277 273.895L391.468 264.406L333.201 270.845L345.01 280.335L403.277 273.895Z" fill="#994F12"/>
<path d="M345.01 280.335L345.773 301.779L404.023 295.339L403.277 273.895L345.01 280.335Z" fill="#340000"/>
<path d="M296.12 276.993V277.042C296.12 277.042 296.152 277.172 296.168 277.237C296.168 277.139 296.136 277.075 296.12 276.993Z" fill="#9E9E9E"/>
<path d="M296.039 287.261V304.196C298.228 306.824 303.841 308.69 310.411 308.69C316.98 308.69 322.593 306.824 324.783 304.196V287.261C322.593 289.873 316.98 291.739 310.411 291.739C303.841 291.739 298.228 289.873 296.039 287.261Z" fill="#F2745A"/>
<path d="M296.039 276.474V287.261C298.228 289.873 303.841 291.739 310.411 291.739C316.98 291.739 322.593 289.873 324.783 287.261V276.345C324.783 276.588 324.75 276.831 324.701 277.058C324.669 277.221 324.62 277.367 324.572 277.529C324.523 277.642 324.474 277.788 324.426 277.902C324.182 278.405 323.842 278.875 323.388 279.329C323.29 279.427 323.177 279.556 323.063 279.654C322.933 279.751 322.787 279.881 322.658 279.978C322.528 280.092 322.382 280.189 322.236 280.286C321.928 280.497 321.619 280.692 321.295 280.87C321.133 280.968 320.971 281.065 320.776 281.146C320.419 281.324 320.046 281.503 319.64 281.665C319.494 281.73 319.332 281.795 319.154 281.844C318.927 281.941 318.683 282.022 318.44 282.103C318.343 282.136 318.278 282.168 318.181 282.2C317.872 282.298 317.564 282.379 317.256 282.46C317.159 282.492 317.045 282.525 316.948 282.557C316.656 282.638 316.38 282.687 316.072 282.752C316.039 282.752 316.007 282.752 315.974 282.752C315.91 282.752 315.861 282.784 315.796 282.801C315.618 282.833 315.439 282.865 315.244 282.898C315.066 282.947 314.888 282.979 314.693 282.995C314.336 283.06 313.963 283.093 313.574 283.141C313.379 283.174 313.201 283.19 313.006 283.206C312.828 283.206 312.633 283.239 312.454 283.255C312.276 283.255 312.114 283.255 311.935 283.287C311.724 283.287 311.514 283.287 311.286 283.287C310.995 283.287 310.719 283.287 310.427 283.287H310.037C309.827 283.287 309.632 283.287 309.421 283.287C309.178 283.287 308.918 283.287 308.691 283.255C308.594 283.255 308.48 283.255 308.383 283.222C307.994 283.19 307.621 283.157 307.247 283.125H307.183C306.842 283.093 306.485 283.028 306.161 282.995C305.82 282.947 305.479 282.882 305.155 282.833C305.09 282.833 305.025 282.801 304.96 282.784C304.863 282.784 304.749 282.752 304.652 282.719C303.857 282.557 303.095 282.363 302.397 282.119C301.586 281.86 300.824 281.552 300.126 281.195C299.623 280.951 299.185 280.676 298.764 280.416C298.456 280.205 298.196 279.994 297.936 279.783C297.839 279.686 297.726 279.605 297.628 279.491C297.531 279.394 297.434 279.297 297.336 279.216C297.336 279.216 297.239 279.102 297.207 279.054C297.125 278.972 297.077 278.908 297.012 278.826C296.963 278.762 296.931 278.729 296.898 278.664C296.769 278.486 296.655 278.307 296.558 278.129C296.46 277.95 296.379 277.788 296.314 277.61C296.266 277.496 296.233 277.383 296.217 277.285C296.217 277.221 296.185 277.156 296.168 277.091V277.042C296.12 276.864 296.103 276.701 296.087 276.523L296.039 276.474Z" fill="#BED9E0"/>
<path d="M310.427 308.69C303.857 308.69 298.245 306.824 296.055 304.196V309.42C296.055 309.598 296.087 309.76 296.136 309.939C296.136 310.036 296.168 310.133 296.201 310.231C296.233 310.328 296.266 310.409 296.298 310.506C296.363 310.685 296.444 310.863 296.541 311.042C296.606 311.139 296.639 311.22 296.704 311.318C296.752 311.415 296.801 311.496 296.882 311.593C296.996 311.772 297.158 311.95 297.336 312.129C297.433 312.226 297.515 312.323 297.628 312.421C297.725 312.518 297.839 312.615 297.936 312.713C298.05 312.81 298.163 312.907 298.277 313.021C298.423 313.118 298.585 313.248 298.764 313.345C299.185 313.637 299.64 313.88 300.126 314.14C301.262 314.692 302.559 315.162 304.003 315.503C304.376 315.6 304.749 315.665 305.139 315.746C305.804 315.876 306.485 315.973 307.166 316.054H307.215C307.701 316.103 308.188 316.151 308.691 316.168C309.145 316.2 309.599 316.216 310.037 316.216C310.167 316.216 310.297 316.216 310.427 316.216C310.719 316.216 310.994 316.216 311.286 316.216H311.367C311.741 316.216 312.114 316.184 312.471 316.151C312.844 316.119 313.217 316.087 313.606 316.054C313.979 316.022 314.352 315.973 314.725 315.924C315.098 315.859 315.471 315.811 315.845 315.73C316.234 315.649 316.623 315.567 316.996 315.47C317.434 315.373 317.84 315.243 318.245 315.13C318.57 315.032 318.91 314.919 319.202 314.805C319.365 314.74 319.527 314.692 319.689 314.627C320.078 314.464 320.451 314.302 320.824 314.108C321.003 314.01 321.165 313.929 321.344 313.832C321.717 313.621 322.074 313.394 322.398 313.167C322.657 312.972 322.885 312.794 323.112 312.599L323.436 312.275C323.631 312.08 323.793 311.885 323.955 311.691C324.15 311.415 324.328 311.139 324.474 310.847C324.539 310.734 324.572 310.588 324.62 310.474C324.669 310.377 324.701 310.263 324.718 310.15C324.718 310.101 324.718 310.068 324.75 310.02C324.799 309.793 324.831 309.549 324.831 309.306V304.245C322.641 306.873 317.029 308.738 310.459 308.738L310.427 308.69Z" fill="#BED9E0"/>
<path d="M310.427 283.271C318.364 283.271 324.799 280.163 324.799 276.328C324.799 272.494 318.364 269.386 310.427 269.386C302.489 269.386 296.055 272.494 296.055 276.328C296.055 280.163 302.489 283.271 310.427 283.271Z" fill="#6C949F"/>
<path d="M346.713 305.689C346.713 305.689 346.599 305.77 346.567 305.818C346.616 305.77 346.664 305.721 346.713 305.689Z" fill="#384D53"/>
<path d="M347.216 305.429L347.119 305.478C347.119 305.478 347.184 305.445 347.216 305.429Z" fill="#3F565C"/>
<path d="M347.329 305.397C347.329 305.397 347.248 305.429 347.216 305.445C347.216 305.445 347.297 305.397 347.329 305.397Z" fill="#41595F"/>
<path d="M347.475 305.348L347.329 305.397C347.329 305.397 347.426 305.364 347.459 305.348H347.475Z" fill="#435C63"/>
<path d="M347.605 305.316C347.605 305.316 347.508 305.348 347.475 305.364C347.475 305.364 347.572 305.332 347.605 305.316Z" fill="#455F66"/>
<path d="M347.735 305.299C347.735 305.299 347.654 305.316 347.605 305.332C347.605 305.332 347.702 305.299 347.735 305.299Z" fill="#476269"/>
<path d="M347.865 305.283L347.735 305.299C347.784 305.299 347.816 305.283 347.865 305.283Z" fill="#49656C"/>
<path d="M347.995 305.283C347.995 305.283 347.913 305.283 347.865 305.299L347.995 305.283Z" fill="#4C686F"/>
<path d="M410.56 312.777C410.56 312.777 410.543 312.875 410.543 312.907C410.543 312.907 410.543 313.004 410.527 313.053V313.118C410.495 313.199 410.478 313.296 410.446 313.377V313.426L407.283 321.715C407.299 321.667 407.315 321.618 407.315 321.569C407.332 321.537 407.332 321.521 407.332 321.488C407.332 321.472 407.332 321.439 407.332 321.423C407.332 321.375 407.348 321.342 407.348 321.293V321.034C407.348 321.034 407.348 320.969 407.332 320.92C407.332 320.888 407.332 320.839 407.332 320.807C407.332 320.774 407.315 320.742 407.315 320.726V320.693C407.315 320.693 407.299 320.612 407.283 320.58C407.267 320.531 407.25 320.499 407.234 320.45C407.218 320.417 407.202 320.369 407.186 320.336H407.169C407.169 320.336 407.153 320.255 407.137 320.207C407.104 320.158 407.088 320.126 407.056 320.077L406.958 319.931C406.958 319.931 406.877 319.817 406.829 319.769C406.764 319.688 406.699 319.606 406.618 319.542C406.52 319.444 406.423 319.363 406.31 319.298C406.212 319.233 406.131 319.168 406.034 319.12C406.001 319.104 405.985 319.087 405.953 319.087C405.888 319.039 405.823 319.006 405.742 318.99C405.677 318.958 405.612 318.941 405.547 318.925C405.482 318.893 405.434 318.876 405.369 318.876C405.32 318.86 405.271 318.844 405.207 318.844C405.158 318.828 405.109 318.828 405.061 318.812H404.963L386.163 317.157L362.464 315.081L343.647 313.442H343.598C343.598 313.442 343.517 313.426 343.469 313.426H343.339C343.339 313.426 343.242 313.442 343.209 313.442C343.16 313.442 343.128 313.442 343.079 313.459C343.031 313.459 342.998 313.459 342.95 313.475C342.901 313.475 342.868 313.475 342.82 313.507C342.771 313.507 342.739 313.523 342.69 313.54C342.641 313.556 342.593 313.556 342.56 313.588L342.414 313.637C342.414 313.637 342.301 313.686 342.252 313.718C342.187 313.751 342.122 313.799 342.057 313.848C341.976 313.897 341.911 313.961 341.847 314.026C341.749 314.124 341.652 314.237 341.571 314.351L346.015 306.565C346.129 306.273 346.307 306.013 346.551 305.818C346.583 305.77 346.632 305.737 346.697 305.705C346.697 305.705 346.826 305.608 346.891 305.575C346.94 305.543 347.005 305.51 347.054 305.494C347.07 305.478 347.086 305.478 347.102 305.478C347.135 305.462 347.167 305.445 347.2 305.445C347.232 305.429 347.264 305.413 347.313 305.397C347.362 305.38 347.41 305.364 347.459 305.364C347.491 305.348 347.54 305.332 347.589 305.332C347.638 305.316 347.686 305.316 347.719 305.299H347.848C347.848 305.299 347.929 305.283 347.978 305.283H348.286L367.103 306.938L386.163 308.608H386.195L387.623 308.738L390.818 309.014L393.187 309.209L408.159 310.425C408.159 310.425 408.224 310.425 408.256 310.441C408.305 310.441 408.353 310.458 408.402 310.458C408.451 310.474 408.499 310.474 408.548 310.49C408.613 310.506 408.662 310.523 408.727 310.539C408.791 310.555 408.873 310.587 408.937 310.604C408.937 310.604 409.002 310.636 409.019 310.652C409.083 310.685 409.165 310.717 409.229 310.75C409.311 310.798 409.408 310.847 409.489 310.912C409.603 310.977 409.7 311.058 409.797 311.155L409.846 311.204C409.846 311.204 409.976 311.334 410.024 311.398C410.073 311.463 410.105 311.496 410.154 311.561C410.187 311.593 410.219 311.642 410.235 311.69C410.268 311.739 410.3 311.788 410.316 311.836C410.332 311.869 410.365 311.918 410.381 311.95C410.381 311.95 410.414 312.031 410.43 312.08C410.43 312.08 410.446 312.161 410.462 312.193C410.478 312.226 410.478 312.274 410.495 312.307C410.511 312.356 410.511 312.388 410.527 312.42C410.527 312.42 410.543 312.518 410.543 312.566V312.664C410.543 312.664 410.56 312.745 410.56 312.777Z" fill="#6C949F"/>
<path d="M404.98 318.795C406.294 318.909 407.38 319.963 407.38 321.147C407.38 322.332 406.294 323.191 404.98 323.078L343.663 317.709C342.349 317.595 341.263 316.541 341.263 315.356C341.263 314.172 342.349 313.313 343.663 313.426L362.48 315.064L386.179 317.141L404.98 318.779V318.795Z" fill="#F2C29D"/>
<path d="M387.639 293.409V296.735L387.623 308.738V313.345L386.163 317.157V308.608L386.179 297.237L387.639 293.409Z" fill="#6C949F"/>
<path d="M362.48 295.145L363.94 291.333L387.639 293.409L386.179 297.221L362.48 295.145Z" fill="#587982"/>
<path d="M386.179 297.221L386.212 312.485L362.512 310.409L362.48 295.145L386.179 297.221Z" fill="#F2C29D"/>
<mask id="mask0_262_7731" style="mask-type:luminance" maskUnits="userSpaceOnUse" x="317" y="281" width="5" height="8">
<path d="M317.061 285.753L318.504 281.925C318.504 283.449 319.883 284.796 321.586 284.958L320.143 288.786C318.439 288.64 317.061 287.278 317.061 285.753Z" fill="white"/>
</mask>
<g mask="url(#mask0_262_7731)">
<path d="M317.061 285.753L318.504 281.925C318.504 281.925 318.504 282.022 318.504 282.071L317.061 285.899C317.061 285.899 317.061 285.801 317.061 285.753Z" fill="#7A8B8F"/>
<path d="M317.061 285.899L318.504 282.071C318.504 282.071 318.504 282.168 318.504 282.233L317.061 286.061C317.061 286.061 317.061 285.964 317.061 285.899Z" fill="#7D8F94"/>
<path d="M317.077 286.061L318.52 282.233C318.52 282.233 318.52 282.33 318.537 282.379L317.093 286.207C317.093 286.207 317.077 286.11 317.077 286.061Z" fill="#819498"/>
<path d="M317.093 286.207L318.536 282.379C318.536 282.379 318.553 282.476 318.569 282.525L317.125 286.353C317.125 286.353 317.109 286.256 317.093 286.207Z" fill="#85989D"/>
<path d="M317.125 286.369L318.569 282.541C318.569 282.541 318.602 282.638 318.618 282.687L317.174 286.515C317.174 286.515 317.142 286.418 317.125 286.369Z" fill="#899CA1"/>
<path d="M317.174 286.515L318.618 282.687C318.618 282.687 318.65 282.784 318.667 282.833L317.223 286.661C317.223 286.661 317.191 286.564 317.174 286.515Z" fill="#8DA1A6"/>
<path d="M317.223 286.661L318.666 282.833C318.666 282.833 318.699 282.93 318.731 282.995L317.288 286.823C317.288 286.823 317.239 286.726 317.223 286.661Z" fill="#90A5AA"/>
<path d="M317.288 286.823L318.731 282.995C318.731 282.995 318.78 283.109 318.812 283.157L317.369 286.986C317.369 286.986 317.32 286.872 317.288 286.823Z" fill="#94A9AF"/>
<path d="M317.353 286.986L318.796 283.157C318.796 283.157 318.861 283.271 318.894 283.336L317.45 287.164C317.45 287.164 317.385 287.05 317.353 286.986Z" fill="#98AEB3"/>
<path d="M317.45 287.148L318.893 283.32C318.893 283.32 318.975 283.449 319.023 283.498L317.58 287.326C317.58 287.326 317.498 287.196 317.466 287.148H317.45Z" fill="#9CB2B8"/>
<path d="M317.58 287.342L319.023 283.514C319.023 283.514 319.137 283.66 319.185 283.725L317.742 287.553C317.742 287.553 317.628 287.407 317.58 287.342Z" fill="#A0B6BC"/>
<path d="M317.742 287.553L319.185 283.725C319.266 283.822 319.364 283.92 319.461 284.017L318.017 287.845C317.92 287.748 317.823 287.651 317.742 287.553Z" fill="#A3BBC1"/>
<path d="M318.018 287.845L319.461 284.017C319.672 284.212 319.932 284.39 320.191 284.536L318.748 288.364C318.472 288.218 318.228 288.04 318.018 287.845Z" fill="#A7BFC5"/>
<path d="M318.748 288.364L320.191 284.536C320.305 284.601 320.435 284.666 320.564 284.715L319.121 288.543C318.991 288.494 318.861 288.429 318.748 288.364Z" fill="#A3BBC1"/>
<path d="M319.137 288.543L320.58 284.715C320.662 284.747 320.759 284.779 320.856 284.812L319.413 288.64C319.315 288.608 319.234 288.575 319.137 288.543Z" fill="#A0B6BC"/>
<path d="M319.396 288.64L320.84 284.812C320.84 284.812 320.986 284.861 321.067 284.877L319.624 288.705C319.624 288.705 319.478 288.673 319.396 288.64Z" fill="#9CB2B8"/>
<path d="M319.624 288.705L321.067 284.877C321.067 284.877 321.197 284.909 321.278 284.925L319.834 288.754C319.834 288.754 319.705 288.721 319.624 288.705Z" fill="#98AEB3"/>
<path d="M319.818 288.737L321.262 284.909C321.262 284.909 321.392 284.925 321.457 284.942L320.013 288.77C320.013 288.77 319.883 288.754 319.818 288.737Z" fill="#94A9AF"/>
<path d="M320.013 288.77L321.456 284.942C321.456 284.942 321.537 284.942 321.586 284.942L320.142 288.77C320.142 288.77 320.061 288.77 320.013 288.77Z" fill="#90A5AA"/>
</g>
<path d="M320.143 288.786L321.586 284.958L429.976 294.447L428.533 298.259L320.143 288.786Z" fill="#9BB1B7"/>
<path d="M317.109 216.748L318.553 212.936L318.504 281.941L317.061 285.753L317.109 216.748Z" fill="#7C8D92"/>
<mask id="mask1_262_7731" style="mask-type:luminance" maskUnits="userSpaceOnUse" x="317" y="212" width="2" height="5">
<path d="M318.553 212.936C318.521 213.082 318.439 213.244 318.391 213.39C318.358 213.455 318.326 213.552 318.31 213.617C318.066 214.282 317.807 214.931 317.563 215.596L317.125 216.764C317.125 216.456 317.174 216.18 317.271 215.92L318.715 212.092C318.618 212.352 318.569 212.644 318.569 212.936H318.553Z" fill="white"/>
</mask>
<g mask="url(#mask1_262_7731)">
<path d="M317.256 215.904L318.699 212.076C318.699 212.076 318.683 212.141 318.667 212.173L317.223 216.002C317.223 216.002 317.239 215.937 317.256 215.904Z" fill="#677579"/>
<path d="M317.223 216.002L318.667 212.173C318.667 212.173 318.618 212.303 318.602 212.384L317.158 216.212C317.158 216.212 317.191 216.066 317.223 216.002Z" fill="#6A7A7D"/>
<path d="M317.174 216.212L318.618 212.384C318.618 212.384 318.585 212.514 318.585 212.579L317.142 216.407C317.142 216.407 317.158 216.277 317.174 216.212Z" fill="#6E7E82"/>
<path d="M317.126 216.391L318.569 212.563C318.569 212.563 318.569 212.676 318.553 212.741L317.109 216.569C317.109 216.569 317.109 216.456 317.126 216.391Z" fill="#728286"/>
<path d="M317.109 216.569L318.553 212.741C318.553 212.741 318.553 212.855 318.553 212.903L317.109 216.731C317.109 216.731 317.109 216.618 317.109 216.569Z" fill="#76878B"/>
<path d="M317.109 216.748L318.553 212.92V212.936L317.109 216.748Z" fill="#7A8B8F"/>
</g>
<mask id="mask2_262_7731" style="mask-type:luminance" maskUnits="userSpaceOnUse" x="317" y="210" width="5" height="6">
<path d="M317.255 215.904L318.699 212.076C319.105 211.005 320.256 210.324 321.635 210.438L320.191 214.266C318.813 214.152 317.661 214.834 317.255 215.904Z" fill="white"/>
</mask>
<g mask="url(#mask2_262_7731)">
<path d="M317.255 215.904L318.699 212.076C318.878 211.622 319.186 211.233 319.575 210.957L318.131 214.785C317.726 215.077 317.418 215.45 317.255 215.904Z" fill="#0B1525"/>
<path d="M318.147 214.785L319.591 210.957C319.591 210.957 319.753 210.843 319.834 210.795L318.391 214.623C318.31 214.671 318.229 214.72 318.147 214.785Z" fill="#0C1626"/>
<path d="M318.391 214.623L319.834 210.795C319.834 210.795 319.964 210.73 320.045 210.697L318.602 214.525C318.602 214.525 318.456 214.59 318.391 214.623Z" fill="#0C1628"/>
<path d="M318.602 214.525L320.045 210.697C320.045 210.697 320.175 210.649 320.24 210.616L318.796 214.444C318.796 214.444 318.666 214.493 318.602 214.525Z" fill="#0D1729"/>
<path d="M318.78 214.444L320.224 210.616C320.224 210.616 320.338 210.568 320.402 210.551L318.959 214.38C318.959 214.38 318.845 214.412 318.78 214.444Z" fill="#0D182B"/>
<path d="M318.958 214.396L320.402 210.567C320.402 210.567 320.516 210.535 320.564 210.519L319.121 214.347C319.121 214.347 319.007 214.379 318.958 214.396Z" fill="#0E192C"/>
<path d="M319.121 214.347L320.564 210.519C320.564 210.519 320.678 210.486 320.727 210.486L319.283 214.315C319.283 214.315 319.169 214.331 319.121 214.347Z" fill="#0E1A2D"/>
<path d="M319.299 214.315L320.743 210.486C320.743 210.486 320.857 210.47 320.905 210.454L319.462 214.282C319.462 214.282 319.348 214.282 319.299 214.315Z" fill="#0F1A2F"/>
<path d="M319.461 214.282L320.905 210.454C320.905 210.454 321.019 210.454 321.067 210.438L319.624 214.266C319.624 214.266 319.51 214.266 319.461 214.282Z" fill="#0F1B30"/>
<path d="M319.624 214.266L321.067 210.438C321.067 210.438 321.181 210.438 321.229 210.438L319.786 214.266C319.786 214.266 319.672 214.266 319.624 214.266Z" fill="#0F1C32"/>
<path d="M319.786 214.25L321.229 210.422C321.229 210.422 321.343 210.422 321.392 210.422L319.948 214.25C319.948 214.25 319.834 214.25 319.786 214.25Z" fill="#101D33"/>
<path d="M319.964 214.25L321.408 210.422C321.408 210.422 321.522 210.422 321.586 210.422L320.143 214.25C320.143 214.25 320.029 214.25 319.964 214.25Z" fill="#101E35"/>
<path d="M320.143 214.266L321.586 210.438C321.586 210.438 321.635 210.438 321.651 210.438L320.207 214.266C320.207 214.266 320.159 214.266 320.143 214.266Z" fill="#111E36"/>
</g>
<path d="M316.736 208.053V208.086C316.655 208.118 316.59 208.167 316.525 208.232C316.59 208.151 316.655 208.102 316.736 208.053Z" fill="#637174"/>
<path d="M316.85 207.988C316.85 207.988 316.753 208.037 316.72 208.086V208.053C316.72 208.053 316.818 207.988 316.85 207.988Z" fill="#677579"/>
<path d="M316.979 207.891V207.923C316.979 207.923 316.931 207.94 316.915 207.94C316.931 207.923 316.963 207.907 316.979 207.891Z" fill="#677579"/>
<path d="M317.19 207.794C317.19 207.794 317.028 207.875 316.963 207.923V207.891C316.963 207.891 317.126 207.826 317.19 207.794Z" fill="#6A7A7D"/>
<path d="M317.385 207.713C317.385 207.713 317.353 207.729 317.336 207.745C317.353 207.729 317.369 207.729 317.385 207.713Z" fill="#6E7E82"/>
<path d="M317.547 207.648V207.68C317.547 207.68 317.434 207.696 317.385 207.729C317.385 207.729 317.499 207.68 317.547 207.648Z" fill="#728286"/>
<path d="M317.726 207.615C317.726 207.615 317.596 207.648 317.531 207.68V207.648C317.531 207.648 317.661 207.648 317.726 207.615Z" fill="#76878B"/>
<path d="M318.375 207.518C318.375 207.518 318.342 207.534 318.326 207.518H318.375Z" fill="#85989D"/>
<path d="M320.191 214.266L321.651 210.454L430.041 219.927L428.598 223.755L320.191 214.266Z" fill="#12213A"/>
<path d="M428.598 223.755C430.285 223.901 431.663 225.248 431.663 226.772L431.615 295.778C431.615 297.302 430.236 298.405 428.533 298.259L320.143 288.77C318.439 288.624 317.061 287.278 317.061 285.737L317.109 216.732C317.109 215.207 318.488 214.104 320.207 214.25L428.598 223.739V223.755Z" fill="white"/>
<path d="M435.978 220.544L435.93 294.885L434.486 298.697L434.535 224.372V224.226C434.535 224.226 434.518 224.112 434.518 224.064C434.518 224.015 434.518 223.966 434.518 223.918C434.502 223.885 434.486 223.836 434.486 223.804V223.772L434.437 223.626C434.437 223.626 434.405 223.512 434.389 223.463C434.372 223.415 434.356 223.366 434.324 223.317C434.307 223.252 434.275 223.204 434.243 223.155C434.226 223.09 434.194 223.042 434.145 222.977C434.113 222.912 434.08 222.847 434.032 222.798C434.032 222.798 434.032 222.798 434.015 222.798C433.967 222.717 433.918 222.669 433.869 222.587C433.869 222.587 433.859 222.582 433.837 222.571C433.756 222.474 433.659 222.377 433.578 222.295C433.464 222.182 433.334 222.068 433.188 221.987C433.075 221.89 432.961 221.825 432.831 221.76L432.734 221.711C432.653 221.663 432.556 221.63 432.458 221.598C432.377 221.549 432.28 221.533 432.199 221.501C432.15 221.484 432.118 221.468 432.085 221.468C432.053 221.452 432.02 221.436 431.972 221.436C431.907 221.419 431.842 221.403 431.777 221.403C431.712 221.387 431.647 221.371 431.582 221.371C431.55 221.355 431.501 221.355 431.469 221.355L317.353 211.379C317.353 211.379 317.32 211.362 317.288 211.362H316.785C316.785 211.362 316.671 211.379 316.623 211.379C316.606 211.379 316.59 211.395 316.574 211.395C316.525 211.395 316.493 211.395 316.46 211.411C316.396 211.427 316.347 211.427 316.298 211.443C316.233 211.443 316.185 211.476 316.12 211.492C316.055 211.508 316.006 211.525 315.941 211.557C315.876 211.573 315.828 211.606 315.763 211.622C315.682 211.654 315.617 211.703 315.552 211.735L315.309 211.881C315.098 212.027 314.936 212.19 314.773 212.384C314.627 212.579 314.498 212.79 314.417 213.017L315.86 209.205C315.958 208.962 316.087 208.734 316.25 208.524C316.347 208.426 316.428 208.329 316.541 208.248C316.606 208.183 316.671 208.134 316.736 208.102C316.769 208.053 316.817 208.021 316.866 208.005C316.882 207.988 316.898 207.972 316.931 207.956C316.947 207.956 316.963 207.94 316.979 207.94C317.044 207.891 317.125 207.842 317.207 207.826L317.223 207.81C317.271 207.81 317.304 207.777 317.353 207.761C317.369 207.745 317.385 207.745 317.401 207.745C317.45 207.713 317.499 207.696 317.547 207.696C317.612 207.664 317.677 207.648 317.742 207.631C317.791 207.615 317.855 207.599 317.904 207.599C317.953 207.583 318.018 207.567 318.066 207.567C318.115 207.55 318.18 207.55 318.228 207.55C318.261 207.534 318.31 207.534 318.342 207.534C318.358 207.55 318.374 207.55 318.391 207.55L318.569 207.534C318.618 207.534 318.683 207.534 318.748 207.55H318.796L432.912 217.526C432.912 217.526 432.994 217.526 433.026 217.526C433.091 217.543 433.156 217.543 433.221 217.559L433.415 217.607C433.415 217.607 433.577 217.64 433.642 217.656C433.74 217.689 433.821 217.721 433.902 217.753C433.918 217.753 433.934 217.77 433.951 217.77C434.048 217.802 434.129 217.851 434.226 217.899C434.243 217.916 434.275 217.916 434.291 217.932C434.551 218.078 434.81 218.256 435.021 218.451C435.021 218.451 435.135 218.548 435.167 218.597C435.216 218.646 435.264 218.711 435.313 218.775C435.378 218.84 435.427 218.905 435.475 218.97C435.524 219.035 435.573 219.1 435.605 219.181C435.638 219.246 435.67 219.294 435.686 219.359C435.719 219.392 435.735 219.424 435.751 219.457C435.751 219.457 435.757 219.468 435.767 219.489C435.767 219.489 435.784 219.538 435.8 219.57C435.816 219.603 435.816 219.635 435.816 219.668C435.848 219.716 435.865 219.765 435.865 219.814C435.897 219.862 435.913 219.911 435.913 219.96C435.946 220.008 435.946 220.073 435.946 220.138C435.962 220.187 435.978 220.235 435.962 220.284C435.978 220.333 435.994 220.381 435.978 220.43C435.994 220.462 435.994 220.511 435.994 220.544H435.978Z" fill="#6C949F"/>
<path d="M431.453 221.338C433.14 221.484 434.535 222.847 434.535 224.372L434.47 298.714C434.47 300.222 433.075 301.341 431.372 301.195L386.163 297.237L362.464 295.161L317.255 291.203C315.552 291.057 314.173 289.695 314.173 288.17L314.238 213.828C314.238 212.319 315.617 211.2 317.336 211.346L431.453 221.322V221.338ZM431.615 295.778L431.664 226.773C431.664 225.248 430.285 223.901 428.598 223.755L320.208 214.266C318.504 214.12 317.126 215.223 317.109 216.748L317.061 285.753C317.061 287.278 318.44 288.624 320.143 288.786L428.533 298.276C430.22 298.422 431.615 297.319 431.615 295.794V295.778Z" fill="#F2C29D"/>
<path d="M403.033 231.947L328.124 225.296C326.988 225.199 326.048 226.059 326.048 227.21L325.95 272.468C325.95 273.619 326.875 274.641 328.01 274.739L402.92 281.389C404.055 281.487 404.98 280.643 404.98 279.491L405.077 234.234C405.077 233.083 404.169 232.061 403.033 231.947Z" fill="#6C949F"/>
<path d="M403.228 275.615L327.734 268.704L327.815 267.893L403.309 274.803L403.228 275.615Z" fill="#F5E8E8"/>
<path d="M403.228 270.748L327.734 263.838L327.815 263.027L403.309 269.937L403.228 270.748Z" fill="#F5E8E8"/>
<path d="M403.228 265.882L327.734 258.972L327.815 258.16L403.309 265.071L403.228 265.882Z" fill="#F5E8E8"/>
<path d="M403.228 261.015L327.734 254.105L327.815 253.294L403.309 260.204L403.228 261.015Z" fill="#F5E8E8"/>
<path d="M403.228 256.149L327.734 249.239L327.815 248.428L403.309 255.338L403.228 256.149Z" fill="#F5E8E8"/>
<path d="M403.228 251.283L327.734 244.372L327.815 243.561L403.309 250.472L403.228 251.283Z" fill="#F5E8E8"/>
<path d="M422.515 261.372L388.823 258.615C387.607 258.517 386.601 259.361 386.601 260.513L386.536 284.342C386.536 285.493 387.526 286.515 388.742 286.613L422.434 289.435C423.666 289.532 424.672 288.689 424.672 287.537L424.737 263.643C424.737 262.492 423.731 261.47 422.499 261.372H422.515Z" fill="#BED9E0"/>
<path d="M403.276 243.853L327.783 236.959V233.504L403.276 240.398V243.853Z" fill="#F5E8E8"/>
<path d="M422.434 271.932L388.872 269.256V264.146L422.434 266.677V271.932Z" fill="white"/>
<path d="M393.187 309.209L387.623 311.82L386.212 312.485L386.195 308.608L386.179 297.237L387.639 297.351L387.623 308.738L390.818 309.014L393.187 309.209Z" fill="#340000"/>
<path d="M101.546 318.779L59.5493 306.159L80.6207 237.397C84.8382 222.214 94.5385 218.224 109.689 216.277L110.727 216.213C122.325 219.7 126.705 235.045 123.234 246.644L101.562 318.763L101.546 318.779Z" fill="#09681D"/>
<path d="M102.097 317.676C101.595 319.606 97.961 320.499 92.6892 320.304C88.8285 320.19 84.0919 319.477 79.0796 318.179C73.2399 316.67 68.114 314.643 64.5291 312.583C60.8307 310.441 58.7706 308.268 59.2086 306.581C59.6465 304.845 62.615 303.953 67.0272 303.904C71.1312 303.872 76.4842 304.586 82.2102 306.062C87.3361 307.392 91.9268 309.128 95.3981 310.928C99.94 313.296 102.584 315.778 102.097 317.676Z" fill="#340000"/>
<path d="M95.3981 310.928L92.6891 320.304L88.5851 334.579C86.7359 340.97 80.8963 345.139 74.5538 345.139C73.2237 345.139 71.8611 344.96 70.5147 344.571C62.761 342.332 58.2839 334.254 60.5225 326.5L64.5291 312.583L67.0272 303.904C71.1311 303.872 76.4841 304.586 82.2102 306.062C87.3361 307.392 91.9267 309.128 95.3981 310.928Z" fill="#F29C8A"/>
<path d="M140.153 378.927C133.778 376.673 127.581 374.094 121.417 371.449C118.351 370.103 115.286 368.757 112.252 367.345C109.203 365.967 106.185 364.539 103.184 363.079C97.134 360.224 91.2295 357.159 85.3574 353.979C79.5502 350.719 73.7754 347.377 68.2927 343.517C61.6744 338.845 60.0847 329.68 64.7727 323.062C68.8442 317.287 76.3222 315.357 82.5673 318.049C88.7314 320.693 94.5872 323.873 100.411 327.133C106.185 330.458 111.895 333.914 117.492 337.563C120.314 339.348 123.104 341.181 125.878 343.062C128.668 344.895 131.426 346.809 134.167 348.724C139.65 352.584 145.084 356.526 150.34 360.792C154.865 364.474 155.563 371.125 151.881 375.651C148.993 379.203 144.257 380.387 140.169 378.96L140.153 378.927Z" fill="#F29C8A"/>
<path d="M137.346 229.417C128.149 227.389 118.935 225.523 109.689 223.788C111.96 212.984 113.241 201.889 113.436 190.599C122.844 190.648 132.269 190.843 141.677 191.199C141.45 204.16 139.974 216.959 137.346 229.417Z" fill="#F29C8A"/>
<path d="M143.705 201.046L124.402 203.187L122.682 153.874L152.594 152.836L154.687 188.052C155.076 194.622 150.258 200.348 143.705 201.062V201.046Z" fill="#F29C8A"/>
<path d="M148.977 205.101C148.75 199.407 142.213 194.963 139.131 190.826C137.298 188.361 135.74 185.684 134.816 182.748C134.491 181.726 133.81 180.721 132.885 179.763C139.828 175.724 137.508 170.485 136.422 166.089C135.237 161.223 136.422 156.308 141.645 155.999L138.66 141.173H113.793C104.952 141.173 98.2531 147.321 96.631 155.999C95.1711 163.883 97.3285 170.355 97.8638 175.53C98.4802 181.369 95.1873 186.836 92.2675 192.919C90.7265 196.131 89.4612 200.721 90.3371 204.355C93.4516 217.186 111.019 215.223 119.892 215.353C126.154 215.32 132.561 215.191 138.693 213.779C142.569 212.887 148.62 210.665 148.928 205.912C148.944 205.653 148.944 205.393 148.928 205.133L148.977 205.101Z" fill="#8C3E0D"/>
<path d="M136.032 174.573C138.773 177.509 139.503 181.288 137.654 183.008C135.805 184.743 132.09 183.754 129.349 180.818C126.608 177.882 125.878 174.102 127.727 172.383C129.576 170.647 133.291 171.637 136.032 174.573Z" fill="#F29C8A"/>
<path d="M156.958 154.572C152.578 157.362 145.149 155.188 138.011 154.896C130.728 153.907 122.78 156.308 119.811 154.604C116.486 153.128 124.596 141.676 140.299 140.362C159.975 138.724 161.694 151.993 156.958 154.572Z" fill="#8C3E0D"/>
<path d="M154.249 152.431C155.06 155.983 151.783 160.071 146.154 157.557C139.228 154.458 136.438 156.291 136.438 156.291C136.438 153.453 141.694 147.289 146.154 147.289C150.615 147.289 153.616 149.657 154.249 152.415V152.431Z" fill="#8C3E0D"/>
<path d="M180.186 410.932C160.818 412.165 142.407 412.278 124.937 411.435C120.281 411.208 115.691 410.916 111.181 410.543C100.573 409.683 90.337 408.466 80.4583 406.909C77.3763 389.617 78.09 371.806 82.6157 354.725L90.4506 325.187H157.687L166.998 353.606C173.114 372.293 177.526 391.483 180.186 410.932Z" fill="#340000"/>
<path d="M138.352 218.078C138.352 218.078 111.019 213.325 97.5553 218.597C77.1815 226.578 81.0746 240.95 88.0983 277.853C89.6718 286.093 90.2558 294.512 89.8989 302.899L88.9418 325.511C88.9094 325.608 88.8445 325.689 88.8445 325.787C88.8445 328.528 104.174 330.767 123.071 330.767C141.969 330.767 157.298 328.544 157.298 325.787C157.298 325.608 157.217 325.43 157.087 325.251L162.797 249.239C164.046 228.654 156.763 220.836 138.335 218.078H138.352Z" fill="#09681D"/>
<path d="M173.747 313.004L130.096 317.141L122.991 242.166C121.855 230.114 130.371 221.322 142.424 220.187C154.476 219.051 166.074 232.158 167.226 244.21L173.731 313.004H173.747Z" fill="#09681D"/>
<path d="M173.844 312.161C173.633 312.161 173.455 311.999 173.439 311.788L166.545 242.199C166.528 241.972 166.691 241.777 166.901 241.761C167.112 241.728 167.323 241.907 167.339 242.118L174.233 311.707C174.25 311.934 174.087 312.129 173.877 312.145H173.844V312.161Z" fill="#340000"/>
<path d="M173.844 311.755C174.104 313.734 171.086 315.924 166.139 317.741C162.522 319.071 157.866 320.207 152.724 320.888C146.738 321.683 141.239 321.731 137.119 321.18C132.902 320.596 130.16 319.363 129.933 317.627C129.706 315.876 132.107 313.913 136.162 312.226C139.958 310.636 145.197 309.29 151.069 308.495C156.325 307.797 161.208 307.668 165.101 308.025C170.211 308.511 173.585 309.825 173.844 311.739V311.755Z" fill="#340000"/>
<path d="M165.085 308.041L166.123 317.757L167.696 332.519C168.54 340.386 162.927 347.475 155.125 348.529L154.719 348.578C146.706 349.437 139.504 343.63 138.644 335.601L137.103 321.196L136.146 312.242C139.942 310.652 145.181 309.306 151.053 308.511C156.309 307.814 161.192 307.684 165.085 308.041Z" fill="#F29C8A"/>
<path d="M241.519 320.061C226.027 325.105 187.664 342.43 180.77 344.717C170.389 348.805 142.472 355.115 139.552 339.315C138.254 332.291 144.532 325.495 150.875 322.786C157.574 319.915 164.468 317.611 171.394 315.389C178.337 313.264 185.328 311.253 192.385 309.468C195.905 308.544 199.425 307.651 202.977 306.824C206.513 305.948 210.066 305.153 213.634 304.359C220.772 302.801 227.925 301.341 235.192 300.222C240.951 299.346 246.32 303.288 247.212 309.046C247.926 313.67 245.493 318.049 241.535 320.044L241.519 320.061Z" fill="#F29C8A"/>
<path d="M250.473 309.776L252.014 308.706L253.376 307.814L256.101 306.078L258.713 304.44C259.297 304.034 259.832 303.547 260.254 302.963C261.098 301.796 261.519 300.287 261.357 298.73C261.325 298.405 261.195 297.805 261.081 297.27C260.968 296.718 260.854 296.183 260.757 295.631C260.578 294.528 260.351 293.442 260.222 292.322C260.108 291.414 260.757 290.603 261.665 290.489C262.347 290.408 262.995 290.765 263.304 291.333C263.839 292.322 264.293 293.344 264.78 294.35C265.023 294.853 265.234 295.356 265.461 295.875C265.688 296.394 265.899 296.832 266.142 297.578C267.018 300.319 266.661 303.515 265.12 306.062C264.374 307.359 263.32 308.462 262.103 309.338C261.033 310.101 260.108 310.604 259.102 311.204C258.097 311.755 257.091 312.274 256.053 312.745C255.534 312.988 255.015 313.199 254.495 313.426L253.701 313.734L253.311 313.88L253.117 313.945L253.036 313.978C253.036 313.978 253.084 313.945 253.1 313.913C251.965 314.643 250.456 314.302 249.743 313.183C249.013 312.047 249.353 310.539 250.473 309.825V309.776Z" fill="#F29C8A"/>
<path d="M249.483 265.363C249.483 265.363 249.418 265.379 249.402 265.411H249.37C249.37 265.411 249.418 265.379 249.451 265.363H249.483Z" fill="#8F230D"/>
<path d="M249.402 265.411C249.402 265.411 249.353 265.428 249.321 265.46H249.289C249.289 265.46 249.337 265.428 249.37 265.411H249.402Z" fill="#94240D"/>
<path d="M249.321 265.46C249.321 265.46 249.256 265.509 249.224 265.541C249.256 265.509 249.272 265.493 249.289 265.46H249.321Z" fill="#98250E"/>
<path d="M249.224 265.541C249.224 265.541 249.175 265.574 249.159 265.606C249.159 265.574 249.191 265.557 249.207 265.541H249.224Z" fill="#9D270E"/>
<path d="M249.143 265.622C249.143 265.622 249.094 265.687 249.062 265.736C249.062 265.736 249.126 265.655 249.143 265.622Z" fill="#A1280E"/>
<path d="M273.004 267.796C273.004 267.796 272.955 267.796 272.923 267.812C272.923 267.812 272.89 267.812 272.874 267.828H272.842C272.842 267.828 272.793 267.861 272.761 267.877C272.728 267.893 272.712 267.909 272.679 267.926C272.679 267.958 272.631 267.974 272.598 268.007L272.517 268.088C272.517 268.088 272.469 268.153 272.436 268.201C272.436 268.218 272.404 268.25 272.388 268.283L254.885 294.918C254.885 294.918 254.885 294.966 254.852 294.983C254.82 295.031 254.787 295.096 254.755 295.161C254.755 295.194 254.706 295.242 254.69 295.291C254.674 295.34 254.658 295.372 254.642 295.421C254.609 295.486 254.577 295.55 254.56 295.615C254.496 295.761 254.447 295.923 254.398 296.086V296.118C254.333 296.329 254.285 296.54 254.252 296.767C254.252 296.799 254.22 296.848 254.22 296.881L254.171 297.221C254.171 297.319 254.139 297.4 254.139 297.497C254.139 297.578 254.139 297.659 254.106 297.756C254.106 297.821 254.106 297.902 254.106 297.984V298.843C254.106 298.843 254.106 298.973 254.106 299.038C254.106 299.119 254.106 299.184 254.106 299.249C254.106 299.33 254.106 299.395 254.139 299.476C254.139 299.557 254.139 299.638 254.171 299.719L254.22 299.914L256.539 309.63C256.539 309.63 256.539 309.695 256.572 309.728C256.62 309.922 256.685 310.085 256.75 310.214C256.783 310.312 256.831 310.377 256.88 310.425C256.929 310.506 256.977 310.555 257.058 310.604C257.058 310.636 257.107 310.652 257.156 310.669L232.629 307.814C232.629 307.814 232.483 307.781 232.418 307.733C232.337 307.684 232.289 307.635 232.24 307.554C232.191 307.505 232.143 307.424 232.11 307.343C232.045 307.213 231.98 307.051 231.932 306.857C231.932 306.824 231.932 306.792 231.899 306.759L229.58 297.043C229.58 297.043 229.547 296.913 229.547 296.848C229.547 296.767 229.515 296.686 229.515 296.605C229.515 296.605 229.515 296.459 229.482 296.394V296.183C229.482 296.183 229.482 296.053 229.482 295.972C229.482 295.907 229.482 295.842 229.482 295.761V295.55C229.482 295.55 229.482 295.404 229.482 295.34C229.482 295.258 229.482 295.194 229.482 295.112C229.482 295.031 229.482 294.966 229.482 294.885C229.482 294.804 229.482 294.723 229.515 294.626C229.515 294.545 229.515 294.447 229.547 294.35C229.547 294.237 229.547 294.123 229.596 294.009C229.596 293.977 229.596 293.944 229.596 293.896C229.628 293.669 229.693 293.458 229.742 293.247C229.742 293.247 229.742 293.231 229.742 293.215C229.742 293.182 229.742 293.15 229.774 293.101C229.823 292.906 229.888 292.728 229.969 292.549C229.969 292.501 230.001 292.468 230.018 292.42C230.034 292.371 230.066 292.339 230.083 292.29C230.115 292.225 230.147 292.16 230.18 292.112C230.18 292.095 230.212 292.079 230.212 292.063L248.964 265.817C248.964 265.817 248.997 265.752 249.013 265.736C249.013 265.736 249.061 265.655 249.094 265.622C249.094 265.606 249.094 265.606 249.094 265.606C249.094 265.574 249.143 265.557 249.159 265.541C249.191 265.509 249.224 265.476 249.256 265.46C249.288 265.428 249.305 265.411 249.337 265.411C249.337 265.379 249.386 265.363 249.418 265.363C249.418 265.363 249.451 265.363 249.467 265.363C249.467 265.363 249.499 265.347 249.532 265.347H249.58L272.923 267.812L273.004 267.796Z" fill="#0F1C32"/>
<path d="M229.807 293.101C229.807 293.101 229.774 293.182 229.774 293.215C229.774 293.215 229.774 293.133 229.823 293.101H229.807Z" fill="#B32C10"/>
<path d="M229.612 293.896C229.612 293.896 229.612 293.977 229.612 294.009C229.612 294.009 229.612 293.928 229.645 293.896H229.612Z" fill="#B32C10"/>
<path d="M229.596 294.009C229.564 294.123 229.547 294.236 229.547 294.35L229.596 294.009Z" fill="#AF2B10"/>
<path d="M229.548 294.35C229.548 294.447 229.515 294.545 229.515 294.626C229.515 294.626 229.515 294.447 229.548 294.35Z" fill="#AA2A0F"/>
<path d="M229.515 294.626C229.515 294.723 229.482 294.804 229.482 294.885C229.482 294.885 229.482 294.707 229.515 294.626Z" fill="#A6290F"/>
<path d="M229.564 296.848C229.564 296.767 229.531 296.686 229.531 296.605C229.531 296.686 229.531 296.767 229.564 296.848Z" fill="#7D1F0B"/>
<path d="M229.596 297.043L229.547 296.848C229.547 296.848 229.547 296.978 229.58 297.043H229.596Z" fill="#791E0B"/>
<path d="M254.69 295.291C254.755 295.161 254.82 295.031 254.885 294.918L272.371 268.266C272.907 267.455 273.491 267.682 273.766 268.834L274.513 271.981C274.837 273.327 274.61 275.404 274.058 276.588C273.994 276.718 273.929 276.831 273.864 276.945L264.845 290.976C264.78 291.073 264.715 291.203 264.65 291.333C264.52 291.593 264.423 291.917 264.326 292.274L261.974 301.374C261.876 301.731 261.763 302.055 261.649 302.315L258.145 309.809C257.578 311.026 256.864 310.944 256.54 309.614L254.204 299.882C253.879 298.535 254.106 296.459 254.658 295.275L254.69 295.291Z" fill="#BED9E0"/>
<path d="M233.749 290.668L250.245 266.888L269.533 269.029L253.068 293.247L233.749 290.668Z" fill="white"/>
<path d="M221.615 303.856C222.816 302.915 223.529 301.666 224.162 299.606C224.778 297.594 225.168 295.129 225.946 292.501C226.368 291.203 226.887 289.841 227.65 288.543C228.023 287.894 228.461 287.261 228.931 286.661L230.115 285.347C231.608 283.612 233.116 281.681 234.333 279.832L234.43 279.686C234.852 279.037 235.728 278.843 236.393 279.264C236.863 279.573 237.09 280.124 237.025 280.643C236.831 282.103 236.49 283.32 236.036 284.585C235.614 285.834 235.063 287.05 234.479 288.218C234.187 288.802 233.862 289.419 233.57 289.938C233.343 290.343 233.132 290.765 232.954 291.219C232.613 292.128 232.305 293.101 232.078 294.172C231.559 296.297 231.332 298.73 230.586 301.455C230.196 302.817 229.677 304.277 228.769 305.689C227.877 307.1 226.595 308.381 225.135 309.225C223.61 310.133 221.631 309.614 220.739 308.089C219.912 306.694 220.269 304.91 221.518 303.937L221.631 303.856H221.615Z" fill="#F29C8A"/>
<path d="M232.354 293.361C231.948 295.08 237.528 299.995 244.503 300.368L233.457 305.478L229.158 300.806L229.531 298.551L232.354 293.361Z" fill="#F29C8A"/>
<path d="M246.126 321.537L227.844 322.656L228.85 301.909L260.4 298.389L260.887 307.295C260.141 315.032 253.879 321.066 246.126 321.537Z" fill="#F29C8A"/>
<path d="M245.655 302.639C248.04 302.152 250.457 301.763 252.874 301.39L254.609 301.131C255.064 301.066 255.534 300.952 255.972 300.806C256.864 300.53 257.708 300.109 258.503 299.59C259.297 299.087 260.011 298.438 260.628 297.708L262.785 294.983C264.261 293.133 265.753 291.3 267.294 289.5C267.878 288.819 268.9 288.738 269.582 289.321C270.182 289.841 270.312 290.7 269.922 291.365C268.722 293.409 267.473 295.421 266.208 297.416C265.559 298.438 264.991 299.362 264.229 300.449C263.418 301.601 262.428 302.623 261.293 303.483C260.173 304.359 258.892 305.024 257.546 305.494C256.88 305.737 256.183 305.932 255.485 306.062C254.772 306.192 254.318 306.273 253.717 306.37C251.463 306.727 249.224 307.067 246.937 307.311L246.369 307.376C245.055 307.522 243.855 306.565 243.725 305.251C243.595 304.002 244.439 302.882 245.639 302.639H245.655Z" fill="#F29C8A"/>
<path d="M129.933 318.049C129.933 318.049 129.885 318.049 129.868 318.049C129.641 318.017 129.495 317.806 129.528 317.579C129.706 316.524 129.171 303.483 128.652 290.879C128.165 278.875 127.646 266.45 127.646 262.119V260.772C127.614 244.81 127.565 222.928 143.413 220.479C143.64 220.446 143.835 220.592 143.884 220.819C143.916 221.046 143.77 221.241 143.543 221.29C128.392 223.642 128.425 245.102 128.457 260.788V262.135C128.457 266.466 128.976 278.875 129.463 290.862C130.031 304.667 130.517 316.589 130.339 317.725C130.306 317.919 130.128 318.065 129.933 318.065V318.049Z" fill="#340000"/>
<path d="M88.8446 326.192C88.731 326.192 88.6012 326.144 88.5201 326.046C88.0173 325.479 88.147 322.851 88.6661 314.837C89.2987 304.975 90.1747 291.463 88.6823 284.212C86.4925 273.473 84.4324 253.44 84.4162 253.245C84.3999 253.018 84.5622 252.824 84.773 252.808C85.0163 252.775 85.1948 252.954 85.211 253.164C85.2272 253.359 87.2711 273.376 89.461 284.066C90.9695 291.43 90.0936 304.991 89.461 314.902C89.1365 320.061 88.8121 324.943 89.1365 325.543C89.2825 325.706 89.2663 325.949 89.0879 326.111C89.0068 326.176 88.9257 326.209 88.8283 326.209L88.8446 326.192Z" fill="#340000"/>
<path d="M129.43 300.319C129.236 300.319 129.074 300.19 129.025 299.995C127.338 291.398 117.118 286.969 112.22 284.844C110.354 284.033 109.576 283.693 109.332 283.303C109.219 283.109 109.267 282.865 109.462 282.752C109.657 282.638 109.9 282.687 110.014 282.882C110.192 283.093 111.376 283.612 112.528 284.114C117.556 286.288 128.035 290.83 129.803 299.849C129.852 300.06 129.706 300.287 129.479 300.319C129.447 300.319 129.43 300.319 129.398 300.319H129.43Z" fill="#340000"/>
<path d="M89.6073 306.402C89.4289 306.402 89.2667 306.289 89.218 306.127C87.7905 301.585 79.6799 292.241 78.4796 291.901C78.2687 291.836 78.1389 291.609 78.2038 291.398C78.2687 291.187 78.4958 291.057 78.7067 291.122C80.2639 291.56 88.5043 301.131 89.9966 305.883C90.0615 306.094 89.948 306.321 89.7371 306.386C89.6884 306.386 89.656 306.402 89.6073 306.402Z" fill="#340000"/>
<path d="M172.676 302.12C172.676 302.12 172.546 302.12 172.497 302.071C166.268 298.908 153.194 299.152 153.048 299.152C152.821 299.152 152.643 298.973 152.643 298.746C152.643 298.519 152.821 298.34 153.048 298.34C153.583 298.34 166.463 298.113 172.87 301.358C173.065 301.455 173.146 301.698 173.049 301.909C172.984 302.055 172.838 302.136 172.692 302.136L172.676 302.12Z" fill="#340000"/>
<path d="M128.279 263.205C128.051 263.205 127.873 263.027 127.873 262.8C127.873 255.76 133.21 249.904 135.643 248.331C136.373 247.86 136.876 247.714 137.249 247.86C137.46 247.957 137.541 248.185 137.46 248.395C137.379 248.59 137.152 248.687 136.941 248.606C136.762 248.606 136.065 248.898 134.978 249.872C132.642 251.932 128.717 256.976 128.7 262.784C128.7 263.011 128.522 263.189 128.295 263.189L128.279 263.205Z" fill="#340000"/>
<path d="M152.821 167.987C152.675 169.009 151.961 169.69 151.231 169.512C150.501 169.333 150.031 168.36 150.177 167.338C150.323 166.316 151.037 165.635 151.767 165.813C152.497 165.992 152.967 166.965 152.821 167.987Z" fill="#340000"/>
<path d="M147.744 169.074C147.744 169.074 147.582 169.057 147.517 169.009C147.338 168.879 147.273 168.636 147.403 168.441C147.484 168.311 149.577 165.245 153.454 164.661C153.665 164.629 153.875 164.791 153.908 165.002C153.94 165.229 153.794 165.424 153.567 165.456C150.031 165.975 148.085 168.847 148.068 168.879C147.987 168.993 147.857 169.057 147.728 169.057L147.744 169.074Z" fill="#340000"/>
<path d="M144.824 163.12C145.311 162.196 146.025 161.531 146.706 160.963C147.42 160.395 148.15 159.925 148.928 159.519C149.723 159.13 150.55 158.789 151.426 158.546C152.318 158.303 153.146 158.124 154.2 158.141C154.962 158.141 155.579 158.773 155.579 159.536C155.579 160.055 155.287 160.509 154.849 160.752L154.638 160.866C154.038 161.19 153.275 161.515 152.578 161.823L150.421 162.747C149.674 163.056 148.912 163.315 148.166 163.575C147.42 163.85 146.657 164.013 145.943 164.288H145.879C145.441 164.483 144.938 164.256 144.776 163.818C144.678 163.575 144.711 163.331 144.808 163.12H144.824Z" fill="#340000"/>
<path d="M150.436 158.773C150.242 158.773 150.063 158.773 149.869 158.725C149.642 158.692 149.496 158.481 149.528 158.27C149.561 158.043 149.755 157.897 149.982 157.93C151.037 158.092 152.091 157.67 152.853 156.778C153.94 155.529 154.281 153.663 153.762 151.895C152.789 148.586 148.847 148.035 148.814 148.035C148.587 148.002 148.441 147.808 148.474 147.581C148.506 147.353 148.685 147.191 148.928 147.224C149.106 147.256 153.421 147.856 154.54 151.668C155.141 153.712 154.719 155.87 153.47 157.313C152.643 158.254 151.556 158.773 150.42 158.773H150.436Z" fill="#340000"/>
<path d="M125.683 144.304C125.537 144.304 125.391 144.223 125.326 144.077C125.229 143.882 125.326 143.639 125.521 143.541C125.634 143.493 136.957 138.059 149.074 140.346C149.301 140.395 149.447 140.605 149.399 140.816C149.35 141.043 149.155 141.189 148.928 141.141C137.054 138.902 125.991 144.223 125.878 144.271C125.813 144.304 125.764 144.32 125.699 144.32L125.683 144.304Z" fill="#340000"/>
<path d="M91.959 208.621C91.8292 208.621 91.6994 208.556 91.6183 208.443C88.0172 203.122 90.7424 193.487 95.041 186.301C99.3559 179.082 101.075 170.647 101.092 170.55C101.14 170.339 101.335 170.177 101.562 170.225C101.789 170.274 101.919 170.485 101.886 170.696C101.87 170.777 100.118 179.358 95.7385 186.69C91.5859 193.649 88.9094 202.927 92.2996 207.956C92.4294 208.134 92.3807 208.394 92.1861 208.524C92.1212 208.572 92.0401 208.589 91.959 208.589V208.621Z" fill="#340000"/>
<path d="M138.725 214.169C138.644 214.169 138.547 214.136 138.482 214.088C138.303 213.958 138.271 213.698 138.417 213.52C140.542 210.778 141.321 207.145 140.574 203.576C139.666 199.31 136.698 195.53 132.415 193.211C123.542 188.426 123.964 181.742 123.996 181.467C123.996 181.24 124.207 181.077 124.434 181.094C124.661 181.11 124.824 181.304 124.807 181.532C124.807 181.596 124.434 187.988 132.804 192.497C137.298 194.93 140.428 198.904 141.385 203.398C142.197 207.21 141.353 211.087 139.082 214.006C139.001 214.104 138.887 214.169 138.758 214.169H138.725Z" fill="#340000"/>
<path d="M130.436 215.385C130.339 215.385 130.241 215.353 130.177 215.288C129.998 215.142 129.982 214.882 130.128 214.72C134.735 209.318 130.128 200.364 130.079 200.283C129.982 200.089 130.047 199.845 130.258 199.732C130.452 199.634 130.696 199.699 130.809 199.894C131.004 200.283 135.724 209.416 130.76 215.239C130.679 215.337 130.566 215.385 130.452 215.385H130.436Z" fill="#340000"/>
<path d="M100.427 214.169C100.427 214.169 100.329 214.169 100.281 214.136C97.8152 213.163 96.0308 211.476 95.2522 209.351C94.4412 207.161 94.7494 204.647 96.1282 202.051C97.3123 199.813 98.3667 198.613 99.3075 197.542C100.719 195.92 101.838 194.638 102.876 190.502C102.925 190.291 103.152 190.161 103.363 190.21C103.574 190.259 103.72 190.486 103.655 190.697C102.568 195.028 101.335 196.439 99.9077 198.077C98.9993 199.115 97.9774 200.283 96.8419 202.441C95.5766 204.825 95.2846 207.112 96.0146 209.075C96.7121 210.973 98.3342 212.498 100.573 213.374C100.784 213.455 100.881 213.698 100.8 213.893C100.735 214.055 100.589 214.152 100.427 214.152V214.169Z" fill="#340000"/>
<path d="M162.489 318.471C159.326 318.471 158.304 315.73 157.882 314.562C157.833 314.416 157.769 314.254 157.72 314.156C157.623 314.075 157.542 313.962 157.542 313.832C157.542 313.605 157.72 313.426 157.947 313.426C158.32 313.426 158.434 313.751 158.628 314.286C159.164 315.73 160.283 318.747 164.679 317.254C171.2 315.032 186.951 310.474 187.113 310.425C187.34 310.36 187.551 310.49 187.616 310.701C187.68 310.912 187.551 311.139 187.34 311.204C187.178 311.253 171.443 315.795 164.938 318.017C163.998 318.341 163.186 318.471 162.489 318.471Z" fill="#C73112"/>
<path d="M251.154 308.3C250.959 308.3 250.797 308.17 250.749 307.976C250.7 307.749 250.846 307.538 251.073 307.505C251.154 307.505 258.713 306.046 261.503 303.369C263.498 301.455 269.517 290.522 269.581 290.408C269.695 290.214 269.938 290.133 270.133 290.246C270.328 290.36 270.393 290.603 270.295 290.798C270.052 291.252 264.164 301.958 262.071 303.953C259.119 306.792 251.56 308.235 251.235 308.3C251.203 308.3 251.187 308.3 251.154 308.3Z" fill="#C73112"/>
<path d="M253.506 314.253C253.328 314.253 253.166 314.14 253.117 313.961C253.052 313.751 253.182 313.524 253.393 313.459C253.458 313.442 259.735 311.674 262.006 309.517C262.168 309.355 262.428 309.371 262.574 309.517C262.72 309.679 262.72 309.939 262.574 310.085C260.157 312.372 253.896 314.14 253.62 314.221C253.587 314.221 253.555 314.221 253.506 314.221V314.253Z" fill="#C73112"/>
<path d="M150.631 179.163L153.438 169.609C153.438 169.609 157.168 178.92 156.26 179.828C155.352 180.737 150.631 179.423 150.631 179.423V179.163Z" fill="#F29C8A"/>
<path d="M154.703 183.819C154.703 183.819 154.654 183.819 154.638 183.819C150.42 183.056 149.479 181.077 149.447 180.98C149.35 180.769 149.447 180.542 149.658 180.445C149.853 180.347 150.096 180.445 150.193 180.639C150.209 180.688 151.069 182.343 154.8 183.008C155.027 183.04 155.173 183.251 155.124 183.478C155.092 183.673 154.914 183.819 154.719 183.819H154.703Z" fill="#C73112"/>
<path d="M250.765 273.619L249.84 273.506L249.256 274.414L250.181 274.528L250.765 273.619Z" fill="#241E2C"/>
<path d="M261.211 274.82L260.254 274.706L259.622 275.631L260.579 275.744L261.211 274.82Z" fill="#241E2C"/>
<path d="M254.837 284.26L253.912 284.131L253.328 285.007L254.253 285.153L254.837 284.26Z" fill="#241E2C"/>
<path d="M248.121 283.79L248.786 282.784L249.662 282.914L248.997 283.92L248.121 283.79ZM252.128 285.607L253.652 283.336L256.037 283.66L254.496 285.947L252.128 285.607ZM249.094 282.281L249.711 281.324L250.587 281.438L249.954 282.395L249.078 282.281H249.094ZM250.83 283.693L251.722 283.822L254.123 280.205L255.858 280.432L254.301 282.768L253.442 282.655L252.29 284.39L249.532 284.001L250.197 282.995L251.219 283.141L250.83 283.725V283.693ZM245.655 281.276L246.369 280.157L247.245 280.27L248.17 278.843L250.343 279.118L247.359 283.677L244.374 283.255L245.023 282.249L246.823 282.492L247.472 281.503L245.672 281.26L245.655 281.276ZM254.496 279.67L254.691 279.378L256.426 279.605L256.232 279.897L254.496 279.67ZM251.527 278.015L252.046 277.22L253.296 277.366L251.171 280.594L250.278 280.481L251.089 279.232L251.446 279.281L252.225 278.113L251.527 278.032V278.015ZM248.916 277.691L250.035 275.955L250.651 276.036L251.025 275.469L252.614 275.663L251.106 277.983L248.932 277.707L248.916 277.691ZM252.533 276.49L253.052 275.696L254.301 275.842L253.782 276.636L252.533 276.49ZM251.69 274.414L252.095 273.782L254.058 274.009L253.636 274.641L251.673 274.414H251.69ZM248.088 275.047L249.581 272.711L251.933 272.97L250.424 275.306L248.088 275.031V275.047ZM258.373 276.28L259.962 273.895L262.46 274.171L260.838 276.572L258.373 276.28ZM263.547 273.619L259.752 273.198L258.405 275.209L256.929 275.031L258.048 273.36L257.367 273.279L256.264 274.949L254.463 274.739L255.664 272.906L254.853 272.808L254.399 273.506L252.436 273.279L252.987 272.435L249.37 272.03L247.099 275.582L248.656 275.777L247.277 277.918L246.304 277.788L245.818 278.551L246.791 278.68L246.71 278.81L245.882 280.108L245.461 280.773L244.504 280.643L244.114 281.26L245.071 281.389L243.903 283.206L243.206 283.109L242.492 284.228L244.812 284.569L244.228 285.477L245.055 285.591L245.639 284.682L251.527 285.542L251.138 286.11L254.723 286.629L257.091 283.141L255.015 282.849L256.588 280.513L256.848 280.546L257.221 279.994L258.405 280.14L258.811 279.54L257.367 279.362L258.811 277.22L258.097 277.139L256.783 279.102L255.047 278.875L255.858 277.658L254.934 277.545L252.663 280.984L251.868 280.87L251.69 281.13L252.484 281.243L251.576 282.606L250.554 282.46L254.901 275.874L255.615 275.955L255.291 276.442L255.956 276.523L256.28 276.036L256.864 276.101L256.086 277.269L256.442 277.318L257.221 276.134L257.724 276.199L257.335 276.782L261.082 277.237L263.58 273.571L263.547 273.619Z" fill="#241E2C"/>
<path d="M248.77 285.526L247.569 285.347L247.212 285.899L248.397 286.077L248.77 285.526Z" fill="#241E2C"/>
<path d="M249.208 279.881L248.348 279.767L247.796 280.611L248.656 280.724L249.208 279.881Z" fill="#241E2C"/>
<path d="M251.236 276.539L250.733 276.474L250.181 277.318L250.684 277.383L251.236 276.539Z" fill="#241E2C"/>
<path d="M247.018 276.198L246.612 276.15L245.882 277.302L246.288 277.35L247.018 276.198Z" fill="#241E2C"/>
<path d="M258.421 281.389L257.626 281.292L256.913 282.346L257.707 282.444L258.421 281.389Z" fill="#241E2C"/>
<path d="M260.141 278.031L259.135 277.902L258.47 278.875L259.492 279.005L260.141 278.031Z" fill="#241E2C"/>
<path d="M243.092 282.363L242.687 282.298L241.551 284.082L241.957 284.147L243.092 282.363Z" fill="#241E2C"/>
</g>
<defs>
<clipPath id="clip0_262_7731">
<rect width="624.549" height="411.97" fill="white" transform="translate(-117.765)"/>
</clipPath>
</defs>
</svg>
