<svg width="20" height="12" viewBox="0 0 20 12" fill="none" xmlns="http://www.w3.org/2000/svg">
<path d="M14.85 11.15L16.29 9.70997L11.41 4.82997L8.11998 8.11997C7.72998 8.50997 7.09998 8.50997 6.70998 8.11997L0.70998 2.10997C0.31998 1.71997 0.31998 1.08997 0.70998 0.699971C1.09998 0.309971 1.72998 0.309971 2.11998 0.699971L7.40998 5.99997L10.7 2.70997C11.09 2.31997 11.72 2.31997 12.11 2.70997L17.7 8.28997L19.14 6.84997C19.45 6.53997 19.99 6.75997 19.99 7.19997V11.49C19.99 11.77 19.77 11.99 19.49 11.99H15.2C14.76 12 14.54 11.46 14.85 11.15Z" fill="#09681D"/>
</svg>
