<svg id="Layer_1" data-name="Layer 1" xmlns="http://www.w3.org/2000/svg" xmlns:xlink="http://www.w3.org/1999/xlink" viewBox="0 0 840.37 1080"><defs><style>.cls-1,.cls-17{fill:none;}.cls-2{fill:#eee9dc;}.cls-3{fill:#004a03;}.cls-4{clip-path:url(#clip-path);}.cls-5{fill:#fff;}.cls-6{fill:#006a08;}.cls-7{fill:url(#linear-gradient);}.cls-8{fill:url(#linear-gradient-2);}.cls-9{fill:url(#linear-gradient-3);}.cls-10{fill:#2d2d2d;}.cls-11{fill:url(#linear-gradient-4);}.cls-12{fill:url(#linear-gradient-5);}.cls-13{fill:url(#linear-gradient-6);}.cls-14{fill:url(#linear-gradient-7);}.cls-15{fill:url(#linear-gradient-8);}.cls-16{fill:url(#linear-gradient-9);}.cls-17{stroke:#d7ccb2;stroke-miterlimit:10;stroke-width:1.25px;}.cls-18{fill:#ba9662;}</style><clipPath id="clip-path"><path class="cls-1" d="M650.19,875.67h-460a16,16,0,0,1-16-16v-549h492v549A16,16,0,0,1,650.19,875.67Z"/></clipPath><linearGradient id="linear-gradient" x1="566.69" y1="832.48" x2="435.33" y2="738.66" gradientTransform="translate(22.03 -6.13) rotate(-0.56)" gradientUnits="userSpaceOnUse"><stop offset="0" stop-opacity="0"/><stop offset="0.85" stop-opacity="0.43"/><stop offset="0.96" stop-opacity="0.6"/></linearGradient><linearGradient id="linear-gradient-2" x1="412.81" y1="581" x2="463.88" y2="611.79" xlink:href="#linear-gradient"/><linearGradient id="linear-gradient-3" x1="385.92" y1="1011.43" x2="461.37" y2="1097.83" gradientTransform="translate(22.03 -6.13) rotate(-0.56)" gradientUnits="userSpaceOnUse"><stop offset="0.25" stop-opacity="0"/><stop offset="0.96" stop-opacity="0.6"/></linearGradient><linearGradient id="linear-gradient-4" x1="200.92" y1="263.95" x2="199.64" y2="269.78" xlink:href="#linear-gradient"/><linearGradient id="linear-gradient-5" x1="204.59" y1="245.51" x2="201.01" y2="236.19" gradientTransform="translate(22.03 -6.13) rotate(-0.56)" gradientUnits="userSpaceOnUse"><stop offset="0" stop-opacity="0"/><stop offset="0.96" stop-opacity="0.6"/></linearGradient><linearGradient id="linear-gradient-6" x1="227.9" y1="273.19" x2="219.98" y2="267.53" xlink:href="#linear-gradient"/><linearGradient id="linear-gradient-7" x1="218.63" y1="258.03" x2="221.7" y2="259.89" xlink:href="#linear-gradient"/><linearGradient id="linear-gradient-8" x1="233.14" y1="295.07" x2="225.35" y2="287.33" xlink:href="#linear-gradient-5"/><linearGradient id="linear-gradient-9" x1="217.01" y1="283.97" x2="221.55" y2="289.18" xlink:href="#linear-gradient-3"/></defs><rect class="cls-2" x="174.17" y="204.33" width="492.03" height="671.35" rx="16.01"/><path class="cls-3" d="M650.19,875.67h-460a16,16,0,0,1-16-16v-549h492v549A16,16,0,0,1,650.19,875.67Z"/><g class="cls-4"><rect class="cls-5" x="219.64" y="729.99" width="411.99" height="93.03"/><path class="cls-6" d="M909.39,1021.28l-27.76,42c-26.3,39.82-56.38,64.12-91.93,74.19-36.53,10.38-80.73,5.84-131.49-13.48-24.24-9.25-47.29-21.64-69.37-36.36,57.3-60.33,94.21-145.07,102.92-238.36,10-107.25-18.4-211.84-77.92-287.06l-2-2.43a362.36,362.36,0,0,0,25.05-76.13c13.26-63.37,7.8-125.7-15.8-180.19-22.89-52.92-64.06-97.51-119-128.84a344.89,344.89,0,0,0-164.23-44.59c-118.12-1.35-187.49,20-341.6,142.64l-38,30.35,70.94,72.46,30-23.87C199.3,240,246.59,229.85,336.68,230.93a242.27,242.27,0,0,1,115.48,31.33c35.82,20.46,62.28,48.54,76.4,81.28,20.29,46.8,17.86,98.37,2.87,144.74-25.33-14.93-51.89-24.18-79.11-27.48-50.11-6.12-103.14,12.28-138.42,48.1C287,536.23,273.81,575,278.62,612.47a111.77,111.77,0,0,0,53.95,82.3c40.85,24.3,86.79,29.11,132.84,13.8,32.14-10.66,62.77-31,87.28-57.63,31.17,52.38,45.13,119.53,38.64,189-6.87,74-36.15,139.82-81.11,183.87C478,993.35,447.29,959.75,417,926.69c-24.89-27.27-50.64-55.41-76.78-81.27-37.39-37.07-88.58-82.85-152.86-107.74A249.74,249.74,0,0,0,82.69,721.61,252.36,252.36,0,0,0-16.93,749.1c-59.74,30.9-101.35,83-117.31,146.69-10.82,43.13-9.2,89.77,4.65,134.9a282.79,282.79,0,0,0,67.8,114.44c29.6,30.31,65.75,54.44,107.41,71.65a374.8,374.8,0,0,0,123.64,27.59c77.11,4.12,146.05-4.6,210.77-26.62,43.72-14.88,85.76-36,127.37-64,35,26.19,72.84,48.49,114.93,64.5,45.62,17.37,88.85,25.92,129.22,25.49a248.13,248.13,0,0,0,65.69-9.25c59-16.72,108.93-55.63,148.53-115.59l27.82-42.09ZM482.67,577.84c-13.52,16.39-31.38,29.16-49,35-18,5.95-34.14,4.38-49.57-4.76-2.43-1.47-4.76-3.47-5.41-8.5-.86-6.71,2-14.72,7.15-19.91,11.41-11.64,29.92-19,47-19.16a56.17,56.17,0,0,1,7.36.38c15.53,1.9,30.09,8.06,43.13,16.23A8.92,8.92,0,0,0,482.67,577.84ZM347.51,1122.25c-52.28,17.8-108.82,24.83-172.89,21.42-64.93-3.46-124.83-28.62-164.22-69-41.29-42.37-59.69-103-46.81-154.43,8.82-35.17,32.2-64.17,65.85-81.6a150,150,0,0,1,67.37-16.56,145.55,145.55,0,0,1,54.11,9.64c24.62,9.57,60.33,27.86,118.29,85.33,24.4,24.13,48.16,50.16,73.37,77.7,27.76,30.3,55.79,61,85.39,90A423.09,423.09,0,0,1,347.51,1122.25Z"/><path class="cls-6" d="M1082.79,1017.61l-.56-.59.58-.27-80.15-81.82-.27.56-.57-.58s-95.64,105.15-253.21,39.72l-56.21,90.16c-1.78,2.85,57.49,27.3,62.52,28.76,40.4,11.79,81.64,12.48,123.18,7.74,15.4-1.76,33.72-3.7,48-11.24-7.48,13.53-9.84,30.87-11.94,45.58-7.08,49.69-6,100.26,12.18,147.55.89,2.31,18.71,41.94,20.15,41.08l91.31-54.33C975.68,1111,1082.79,1017.61,1082.79,1017.61Z"/><path class="cls-7" d="M552.7,650.5c31.16,52.38,45.13,119.5,38.65,189-6.91,74-36.17,139.8-81.13,183.86l78.62,63.87c57.29-60.33,94.23-145.06,102.94-238.36,10-107.25-18.39-211.88-77.92-287.06-.65-.82-1.31-1.65-2-2.46,0,0-13.08,28.37-25.25,48.86C572.76,631.59,552.7,650.5,552.7,650.5Z"/><path class="cls-8" d="M378.68,599.12c-.86-6.71,2-14.71,7.11-19.9,11.46-11.65,29.93-19,47-19.17a57.81,57.81,0,0,1,7.37.4c15.52,1.89,30.08,8.07,43.12,16.21-.2.24-.4.48-.58.72,0,0,17-19.94,29.71-43.31a245.6,245.6,0,0,0,19.06-46.24c-25.35-14.9-51.92-24.19-79.12-27.5-50.14-6.1-103.16,12.33-138.4,48.1C287,535.79,273.8,574.5,278.64,612Z"/><path class="cls-9" d="M269.21,916.59c24.38,24.16,48.18,50.17,73.36,77.7,27.74,30.33,55.82,61,85.39,90a197.94,197.94,0,0,0,45-28.07c25.55-21.14,37.31-32.86,37.31-32.86C478,992.89,447.28,959.31,417,926.21c-24.9-27.22-50.66-55.37-76.79-81.27Z"/></g><path class="cls-10" d="M268.74,243.35a.24.24,0,0,1,.28-.28h6.42a5.85,5.85,0,0,1,4.15,1.33A4.77,4.77,0,0,1,281,248a4.58,4.58,0,0,1-.81,2.84,4,4,0,0,1-2.15,1.46v.06a3.89,3.89,0,0,1,1.11.44,3.56,3.56,0,0,1,1.06.9,4.92,4.92,0,0,1,.79,1.37,5.27,5.27,0,0,1,.31,1.85,5,5,0,0,1-1.52,3.87,6.29,6.29,0,0,1-4.36,1.39H269a.25.25,0,0,1-.28-.28Zm6.67,8.35a4.13,4.13,0,0,0,3-1,3.8,3.8,0,0,0,0-5.18,4.25,4.25,0,0,0-3-.95h-4.9a.15.15,0,0,0-.17.17v6.78c0,.11.06.16.17.16Zm-5.07,8.81a.15.15,0,0,0,.17.17h5a4.36,4.36,0,0,0,3.11-1,3.59,3.59,0,0,0,1-2.7,3.64,3.64,0,0,0-1-2.72,4.32,4.32,0,0,0-3.11-1h-5a.15.15,0,0,0-.17.17Z"/><path class="cls-10" d="M283.48,245.21c-.19,0-.28-.1-.28-.29v-1.57a.24.24,0,0,1,.28-.28h1.24a.24.24,0,0,1,.28.28v1.57c0,.19-.09.29-.28.29Zm.14,17a.25.25,0,0,1-.28-.28V249.06a.24.24,0,0,1,.28-.28h1a.24.24,0,0,1,.28.28v12.86a.25.25,0,0,1-.28.28Z"/><path class="cls-10" d="M290.54,262.28a2.71,2.71,0,0,1-2.15-.73,3.7,3.7,0,0,1-.63-2.42V243.35a.24.24,0,0,1,.28-.28h1a.25.25,0,0,1,.28.28v15.73a2,2,0,0,0,.34,1.36,1.4,1.4,0,0,0,1.09.38h.48a.24.24,0,0,1,.28.28v.9a.24.24,0,0,1-.28.28Z"/><path class="cls-10" d="M295.66,262.28a2.71,2.71,0,0,1-2.15-.73,3.7,3.7,0,0,1-.63-2.42V243.35a.24.24,0,0,1,.28-.28h1a.25.25,0,0,1,.28.28v15.73a2,2,0,0,0,.34,1.36,1.4,1.4,0,0,0,1.09.38h.48a.24.24,0,0,1,.28.28v.9a.24.24,0,0,1-.28.28Z"/><path class="cls-10" d="M297.35,258.15a.65.65,0,0,1,.14-.4l6.73-7a4.11,4.11,0,0,0,.74-1,2.46,2.46,0,0,0,.21-1c0-1-.43-1.46-1.29-1.46a1.38,1.38,0,0,0-1,.42,2.62,2.62,0,0,0-.49,1.58c0,.21-.1.29-.31.25l-4.42-.59c-.17,0-.25-.12-.25-.31a5.9,5.9,0,0,1,.59-2.4,5.68,5.68,0,0,1,1.44-1.85,6.61,6.61,0,0,1,2.12-1.18,8,8,0,0,1,2.63-.42,7.79,7.79,0,0,1,2.6.42,6.31,6.31,0,0,1,2.06,1.18,5.45,5.45,0,0,1,1.81,4.11,6.18,6.18,0,0,1-.6,2.8,9.25,9.25,0,0,1-1.68,2.27l-3.94,4v.05h5.94c.19,0,.28.1.28.29v4.05a.25.25,0,0,1-.28.28H297.63a.25.25,0,0,1-.28-.28Z"/><path class="cls-10" d="M312.77,257.87q-.16-.51-.27-1a7.66,7.66,0,0,1-.15-1.07q-.06-.59-.09-1.35t0-1.83q0-1.06,0-1.83t.09-1.35a7.88,7.88,0,0,1,.15-1.07c.07-.31.16-.64.27-1a6,6,0,0,1,2.6-3.49,8.26,8.26,0,0,1,4.43-1.15,8.88,8.88,0,0,1,2.45.31,6.91,6.91,0,0,1,1.95.86,5.91,5.91,0,0,1,1.47,1.29,6.28,6.28,0,0,1,.94,1.62c.09.19.06.33-.11.42l-3,1.27c-.21.05-.34,0-.4-.15a4.16,4.16,0,0,0-1.33-1.47,3.59,3.59,0,0,0-2-.49,3.27,3.27,0,0,0-2,.57,3.16,3.16,0,0,0-1.07,1.56c-.05.17-.1.37-.14.58s-.07.48-.09.79-.05.68-.06,1.12,0,1,0,1.59,0,1.16,0,1.61,0,.83.06,1.14.06.57.09.78a5.52,5.52,0,0,0,.14.58,3,3,0,0,0,1.09,1.55,3.4,3.4,0,0,0,2,.56,3.62,3.62,0,0,0,1.91-.51,2.51,2.51,0,0,0,1.15-1.46,4.44,4.44,0,0,0,.17-.81,8.27,8.27,0,0,0,.06-1.07.15.15,0,0,0-.17-.17h-2.59a.25.25,0,0,1-.28-.28v-2.7c0-.19.09-.29.28-.29H327a.26.26,0,0,1,.28.29v1.57a22.61,22.61,0,0,1-.12,2.39,9.14,9.14,0,0,1-.36,1.92,6.52,6.52,0,0,1-2.58,3.54,7.64,7.64,0,0,1-4.4,1.24,8.26,8.26,0,0,1-4.43-1.16A6,6,0,0,1,312.77,257.87Z"/><path class="cls-10" d="M334.35,262.51a6.9,6.9,0,0,1-3.75-1,5,5,0,0,1-2.16-2.84,9.58,9.58,0,0,1-.34-1.5,14.62,14.62,0,0,1,0-3.58,9.58,9.58,0,0,1,.34-1.5,5,5,0,0,1,2.16-2.84,7.58,7.58,0,0,1,7.49,0,5,5,0,0,1,2.16,2.84,9.58,9.58,0,0,1,.34,1.5,14.62,14.62,0,0,1,0,3.58,9.58,9.58,0,0,1-.34,1.5,5,5,0,0,1-2.16,2.84A6.89,6.89,0,0,1,334.35,262.51Zm0-3.32a2,2,0,0,0,2.11-1.46,6.52,6.52,0,0,0,.19-1,15.44,15.44,0,0,0,0-2.72,6.16,6.16,0,0,0-.19-1,2.25,2.25,0,0,0-4.22,0,5.22,5.22,0,0,0-.2,1,15.44,15.44,0,0,0,0,2.72,5.5,5.5,0,0,0,.2,1A2,2,0,0,0,334.35,259.19Z"/><path class="cls-10" d="M339.55,244.79a.5.5,0,0,0-.22-.35.49.49,0,0,0,.3-.46.48.48,0,0,0-.16-.36.76.76,0,0,0-.53-.15,3.19,3.19,0,0,0-.45,0h0v1.81h.29v-.77h.18c.2,0,.28.09.33.32a1.89,1.89,0,0,0,.12.43v0h.31l0,0A3.07,3.07,0,0,1,339.55,244.79Zm-.22-.78c0,.18-.14.3-.37.3h-.2v-.59h.2C339.13,243.71,339.33,243.76,339.33,244Z"/><path class="cls-10" d="M339,242.7a1.71,1.71,0,1,0,1.71,1.71A1.72,1.72,0,0,0,339,242.7Zm1.48,1.71a1.48,1.48,0,1,1-1.48-1.48A1.49,1.49,0,0,1,340.5,244.41Z"/><path class="cls-6" d="M271.41,276.9l-1.67,2.54a10,10,0,0,1-5.54,4.47c-2.2.62-4.86.35-7.92-.82a20.6,20.6,0,0,1-4.18-2.19,25.43,25.43,0,0,0,1.5-31.66l-.11-.15A21.85,21.85,0,0,0,255,244.5a18,18,0,0,0-1-10.86,16.65,16.65,0,0,0-7.17-7.76,20.83,20.83,0,0,0-9.9-2.69c-7.12-.08-11.3,1.21-20.58,8.6l-2.3,1.83,4.28,4.37,1.81-1.44c8.44-6.73,11.29-7.34,16.72-7.28a14.66,14.66,0,0,1,7,1.89,10.51,10.51,0,0,1,4.6,4.9,12.31,12.31,0,0,1,.18,8.72,12.32,12.32,0,0,0-4.77-1.66,10.21,10.21,0,0,0-8.34,2.9,7.62,7.62,0,0,0-2.13,6.24,6.73,6.73,0,0,0,3.25,5,9.43,9.43,0,0,0,8,.84,12.77,12.77,0,0,0,5.26-3.48A19,19,0,0,1,252.25,266a17.8,17.8,0,0,1-4.89,11.08c-1.94-1.83-3.79-3.86-5.62-5.85-1.5-1.64-3.05-3.34-4.63-4.9a27.85,27.85,0,0,0-9.21-6.49,15,15,0,0,0-6.31-1,15.24,15.24,0,0,0-6,1.66,13.57,13.57,0,0,0-7.07,8.84,15.23,15.23,0,0,0,.28,8.13,17,17,0,0,0,4.09,6.9,19.16,19.16,0,0,0,6.47,4.31,22.58,22.58,0,0,0,7.45,1.67,33.35,33.35,0,0,0,12.7-1.61,32.31,32.31,0,0,0,7.68-3.85,28.14,28.14,0,0,0,6.93,3.88,21.12,21.12,0,0,0,7.78,1.54,14.74,14.74,0,0,0,4-.56,15.88,15.88,0,0,0,8.95-7l1.68-2.54ZM245.7,250.18a6.73,6.73,0,0,1-3,2.11,3.42,3.42,0,0,1-3-.29.62.62,0,0,1-.33-.51,1.52,1.52,0,0,1,.43-1.2,4.23,4.23,0,0,1,2.83-1.16,3.4,3.4,0,0,1,.45,0,6.2,6.2,0,0,1,2.59,1ZM237.55,283a27.45,27.45,0,0,1-10.42,1.29,15,15,0,0,1-9.89-4.16,10.2,10.2,0,0,1-2.82-9.31,7.57,7.57,0,0,1,4-4.91,9,9,0,0,1,4.06-1,8.66,8.66,0,0,1,3.26.58c1.48.58,3.63,1.68,7.12,5.14,1.48,1.46,2.91,3,4.43,4.68,1.67,1.83,3.36,3.68,5.14,5.43A25.54,25.54,0,0,1,237.55,283Z"/><polygon class="cls-6" points="221.44 261.67 227.67 227.2 233.65 228.28 227.44 262.66 221.44 261.67"/><path class="cls-6" d="M281.86,276.68l0,0,0,0L277,271.7l0,0,0,0s-5.77,6.33-15.26,2.39l-3.39,5.43c-.11.18,3.46,1.65,3.77,1.74a18.57,18.57,0,0,0,7.42.46,8.29,8.29,0,0,0,2.89-.67,8.24,8.24,0,0,0-.72,2.74,17.69,17.69,0,0,0,.74,8.9,21.89,21.89,0,0,0,1.21,2.47l5.5-3.27C275.41,282.31,281.86,276.68,281.86,276.68Z"/><path class="cls-11" d="M230.15,247.63,228,259.8a14.42,14.42,0,0,0-3-.82,21.07,21.07,0,0,0-3-.18L224.08,247Z"/><path class="cls-12" d="M233.45,229.38l-3,16.37-6.05-.69,2.4-13.3a17.66,17.66,0,0,1,3.12-1.54A13.38,13.38,0,0,1,233.45,229.38Z"/><path class="cls-13" d="M249.92,254.56A19,19,0,0,1,252.25,266,17.85,17.85,0,0,1,247.36,277l4.74,3.85a24.13,24.13,0,0,0,6.2-14.37,24.38,24.38,0,0,0-4.7-17.3l-.11-.15s-.79,1.71-1.53,2.95A13.22,13.22,0,0,1,249.92,254.56Z"/><path class="cls-14" d="M239.43,251.46a1.54,1.54,0,0,1,.43-1.2,4.2,4.2,0,0,1,2.83-1.15,2.26,2.26,0,0,1,.45,0,6.33,6.33,0,0,1,2.59,1l0,0a17.64,17.64,0,0,0,1.79-2.61,14.69,14.69,0,0,0,1.15-2.79,12.47,12.47,0,0,0-4.77-1.65,10.18,10.18,0,0,0-8.34,2.9,7.59,7.59,0,0,0-2.13,6.24Z"/><path class="cls-15" d="M264.2,283.88c-2.2.62-4.86.35-7.92-.81a21.66,21.66,0,0,1-4.18-2.19,24.52,24.52,0,0,1-4.91,4,28.49,28.49,0,0,0,6.93,3.89,21.14,21.14,0,0,0,7.78,1.53Z"/><path class="cls-16" d="M232.83,270.59c1.47,1.46,2.91,3,4.43,4.69,1.67,1.82,3.36,3.67,5.14,5.42a11.91,11.91,0,0,0,2.71-1.69c1.54-1.28,2.25-2,2.25-2-1.94-1.84-3.79-3.86-5.62-5.86-1.5-1.64-3.05-3.33-4.63-4.9Z"/><line class="cls-17" x1="174.17" y1="310.7" x2="666.2" y2="310.7"/><path class="cls-18" d="M527.9,251.94a.22.22,0,0,1,.25-.25h1.62a.38.38,0,0,1,.4.25l5.07,11.42h.07l5-11.42a.39.39,0,0,1,.4-.25h1.62a.22.22,0,0,1,.25.25V268.4a.22.22,0,0,1-.25.25h-1.57a.22.22,0,0,1-.25-.25V256.6h-.07l-4.22,9.33a.44.44,0,0,1-.44.3h-1a.48.48,0,0,1-.48-.3l-4.21-9.33H530v11.8a.22.22,0,0,1-.25.25h-1.57a.22.22,0,0,1-.25-.25Z"/><path class="cls-18" d="M546.24,251.94a.22.22,0,0,1,.25-.25h10.2c.16,0,.24.08.24.25v1.57c0,.17-.08.25-.24.25H548.6c-.1,0-.14.05-.14.15v5c0,.1,0,.15.14.15h6.86a.22.22,0,0,1,.25.25v1.57a.22.22,0,0,1-.25.25H548.6c-.1,0-.14.05-.14.15v5.16c0,.1,0,.15.14.15h8.09c.16,0,.24.08.24.25v1.57c0,.17-.08.25-.24.25h-10.2a.22.22,0,0,1-.25-.25Z"/><path class="cls-18" d="M559.78,251.94a.22.22,0,0,1,.25-.25h1.62a.39.39,0,0,1,.4.25l5.06,11.42h.08l5-11.42a.39.39,0,0,1,.4-.25h1.62a.22.22,0,0,1,.25.25V268.4a.22.22,0,0,1-.25.25H572.6a.22.22,0,0,1-.25-.25V256.6h-.08l-4.21,9.33a.45.45,0,0,1-.45.3h-1a.46.46,0,0,1-.47-.3l-4.22-9.33h-.07v11.8a.22.22,0,0,1-.25.25H560a.22.22,0,0,1-.25-.25Z"/><path class="cls-18" d="M578.11,251.94a.22.22,0,0,1,.25-.25h6a5.38,5.38,0,0,1,3.84,1.21,4.28,4.28,0,0,1,1.28,3.25,4.11,4.11,0,0,1-.64,2.4,3.68,3.68,0,0,1-1.63,1.3v0a3.09,3.09,0,0,1,.88.43,3.73,3.73,0,0,1,.84.8,4.54,4.54,0,0,1,.61,1.16,4.8,4.8,0,0,1,.23,1.52,4.48,4.48,0,0,1-1.43,3.62,6.17,6.17,0,0,1-4.1,1.22h-5.89a.22.22,0,0,1-.25-.25Zm6.21,7.08a3.12,3.12,0,0,0,2.2-.72,2.52,2.52,0,0,0,.77-1.92,2.57,2.57,0,0,0-.77-1.95,3.12,3.12,0,0,0-2.2-.72h-3.84a.13.13,0,0,0-.15.15v5a.13.13,0,0,0,.15.15Zm-4,7.46a.13.13,0,0,0,.15.15h4a3.24,3.24,0,0,0,2.32-.76,3,3,0,0,0,0-4.07,3.29,3.29,0,0,0-2.32-.76h-4a.13.13,0,0,0-.15.15Z"/><path class="cls-18" d="M592.68,251.94a.22.22,0,0,1,.25-.25h10.2a.22.22,0,0,1,.25.25v1.57a.22.22,0,0,1-.25.25h-8.08a.13.13,0,0,0-.15.15v5a.13.13,0,0,0,.15.15h6.86a.22.22,0,0,1,.25.25v1.57a.22.22,0,0,1-.25.25h-6.86a.13.13,0,0,0-.15.15v5.16a.13.13,0,0,0,.15.15h8.08a.22.22,0,0,1,.25.25v1.57a.22.22,0,0,1-.25.25h-10.2a.22.22,0,0,1-.25-.25Z"/><path class="cls-18" d="M616.05,268.65a.34.34,0,0,1-.33-.25l-3.39-6.93h-3.74a.13.13,0,0,0-.15.15v6.78a.22.22,0,0,1-.25.25h-1.72a.22.22,0,0,1-.25-.25V251.94a.22.22,0,0,1,.25-.25h6.14a6.46,6.46,0,0,1,2.17.35,5,5,0,0,1,1.67,1,4.5,4.5,0,0,1,1.08,1.55,5.07,5.07,0,0,1,.39,2,4.72,4.72,0,0,1-.9,2.92,4.77,4.77,0,0,1-2.44,1.69l3.61,7.16q.07.13,0,.21a.19.19,0,0,1-.18.09Zm-3.49-9.25a3.38,3.38,0,0,0,2.32-.74,3,3,0,0,0,0-4.16,3.38,3.38,0,0,0-2.32-.74h-4a.13.13,0,0,0-.15.15v5.34a.13.13,0,0,0,.15.15Z"/><rect class="cls-5" x="219.64" y="729.99" width="106.52" height="93.03"/></svg>