<svg width="191" height="184" viewBox="0 0 191 184" fill="none" xmlns="http://www.w3.org/2000/svg">
<g clip-path="url(#clip0_262_6919)">
<path d="M135.703 170.596C129.548 170.596 122.97 169.232 116.042 166.516C109.649 164.008 103.911 160.546 98.6073 156.502C92.2263 160.707 85.7799 163.865 79.0954 166.069C69.1966 169.333 58.6728 170.566 46.9228 169.822C40.3275 169.405 33.9942 167.927 28.1073 165.425C21.7799 162.739 16.3037 159.004 11.8335 154.327C7.11918 149.395 3.60133 143.324 1.6668 136.771C-0.374863 129.861 -0.553434 122.736 1.16085 116.171C3.68466 106.479 10.1132 98.5916 19.262 93.9629C23.9347 91.5979 29.2025 90.1979 34.4942 89.9239C39.9287 89.6379 45.4406 90.5434 50.4228 92.5272C60.1906 96.4232 67.9228 103.477 73.5716 109.189C77.518 113.181 81.4049 117.512 85.1609 121.706C89.7263 126.799 94.3632 131.97 99.2323 136.67C106.155 130.016 110.714 120.008 111.875 108.737C112.964 98.1448 110.935 87.8806 106.262 79.8384C102.482 83.8714 97.7859 86.9215 92.8692 88.5001C85.8275 90.7639 78.8275 89.9656 72.6311 86.2006C68.1132 83.4484 65.1609 78.8435 64.5359 73.5595C63.8513 67.8287 65.9228 61.937 70.0716 57.8086C75.5001 52.3995 83.6132 49.6651 91.2442 50.6719C95.387 51.22 99.4228 52.6735 103.268 54.9849C105.619 47.9256 106.066 40.0681 103.048 32.8956C100.941 27.8797 96.9466 23.5547 91.512 20.3796C86.268 17.3176 80.0299 15.5602 73.9585 15.4291C60.2144 15.1372 52.9942 16.6087 31.4585 33.4377L25.3989 38.1737L15.9347 26.0389L21.9942 21.3029C45.6668 2.79986 56.2739 -0.351494 74.2918 0.0297668C82.9347 0.21444 91.8037 2.71646 99.268 7.07713C107.601 11.9442 113.816 18.8069 117.226 26.9146C120.744 35.2666 121.482 44.7862 119.363 54.4309C118.488 58.4103 117.167 62.3004 115.435 66.0117C115.536 66.1368 115.631 66.2619 115.732 66.393C124.697 77.9559 128.869 93.9629 127.185 110.309C125.72 124.535 119.958 137.409 111.137 146.529C114.488 148.805 117.982 150.735 121.667 152.183C129.369 155.203 136.107 155.965 141.691 154.434C147.131 152.945 151.75 149.287 155.816 143.253L160.113 136.873L172.863 145.481L168.566 151.861C162.435 160.958 154.762 166.819 145.744 169.286C142.548 170.161 139.197 170.596 135.714 170.596H135.703ZM36.5001 105.27C32.9525 105.27 29.393 106.086 26.2085 107.694C21.0478 110.303 17.4406 114.694 16.0478 120.049C14.0061 127.883 16.7144 137.159 22.9525 143.682C28.8989 149.901 37.9942 153.827 47.893 154.452C57.6489 155.066 66.2799 154.083 74.2859 151.444C78.4525 150.068 82.5359 148.215 86.6073 145.838C82.143 141.37 77.9049 136.646 73.7204 131.976C69.9228 127.734 66.3335 123.731 62.6489 120.008C53.8989 111.155 48.4763 108.308 44.7382 106.819C42.1311 105.776 39.3216 105.264 36.5001 105.264V105.27ZM88.1192 65.8509C85.518 65.8509 82.6906 66.947 80.9287 68.7044C80.143 69.4907 79.6906 70.706 79.8156 71.7306C79.9049 72.4991 80.262 72.8148 80.6311 73.0412C82.9644 74.459 85.4347 74.7211 88.1787 73.8395C90.8751 72.9757 93.6192 71.0515 95.7085 68.5673C95.7382 68.5316 95.768 68.4958 95.7978 68.4601C93.8216 67.1972 91.6132 66.2321 89.2501 65.9223C88.8811 65.8747 88.5061 65.8509 88.1251 65.8509H88.1192Z" fill="#D3FEB6"/>
<path d="M50.6591 9.94734L28.481 126.193L43.589 129.08L65.7671 12.8344L50.6591 9.94734Z" fill="#09681D"/>
<path d="M177.381 119.055L191 132.512C191 132.512 173.547 148.441 184.452 174.635L169.476 184.006C169.476 184.006 163.125 174.79 162.958 163.323C162.738 148.15 165.631 144.438 165.631 144.438C165.631 144.438 141.387 153.023 127.202 138.666L137.351 127.448C137.351 127.448 165.41 137.302 177.381 119.055Z" fill="#D3FEB6"/>
<path d="M50.6547 9.94257L48.4464 21.5293C54.9464 17.7703 59.9106 16.2274 65.2202 15.6674L65.7618 12.8318L50.6547 9.94852V9.94257ZM35.4106 89.8822L32.4106 105.633C33.7618 105.389 35.1368 105.27 36.5059 105.27C39.3273 105.27 42.1368 105.782 44.744 106.824C45.6011 107.164 46.5475 107.581 47.5952 108.117L50.5595 92.5749C50.5178 92.557 50.4761 92.5451 50.4345 92.5272C45.7261 90.6507 40.5535 89.7392 35.4106 89.8822Z" fill="#09681D"/>
<path d="M160.107 136.873L155.81 143.253C151.744 149.287 147.119 152.951 141.685 154.434C136.101 155.959 129.363 155.203 121.661 152.183C117.976 150.735 114.482 148.811 111.137 146.529C119.964 137.409 125.72 124.535 127.185 110.309C128.869 93.9569 124.697 77.9499 115.732 66.387C115.637 66.2619 115.536 66.1368 115.435 66.0117C117.167 62.3004 118.494 58.4103 119.369 54.4309C121.482 44.7862 120.744 35.2666 117.232 26.9146C113.822 18.8069 107.607 11.9442 99.274 7.07713C91.7978 2.71646 82.9287 0.214441 74.2918 0.0297683C56.274 -0.351492 45.6728 2.79987 21.9942 21.291L15.9347 26.027L25.399 38.1618L31.4585 33.4258C38.3633 28.0346 43.7978 24.216 48.4466 21.5293L50.6549 9.94255L65.7621 12.8258L65.2204 15.6615C67.9585 15.3696 70.7859 15.3457 73.9585 15.4113C80.0299 15.5423 86.2621 17.2997 91.5121 20.3617C96.9466 23.5369 100.935 27.8618 103.048 32.8778C106.066 40.0502 105.619 47.9137 103.274 54.9671C99.4287 52.6557 95.393 51.1961 91.2502 50.654C83.6133 49.6473 75.5002 52.3816 70.0775 57.7908C65.9287 61.9251 63.8633 67.8108 64.5418 73.5416C65.1728 78.8256 68.1192 83.4365 72.6371 86.1828C78.8335 89.9537 85.8335 90.752 92.8752 88.4823C97.7918 86.9036 102.488 83.8535 106.268 79.8205C110.941 87.8627 112.97 98.121 111.881 108.719C110.72 119.996 106.161 129.998 99.2383 136.652C94.3692 131.952 89.7383 126.787 85.1668 121.688C81.4109 117.5 77.524 113.163 73.5775 109.172C67.9525 103.482 60.2561 96.4649 50.5478 92.557L47.5835 108.099C51.1252 109.916 55.893 113.175 62.643 119.996C66.3216 123.719 69.9168 127.722 73.7144 131.964C77.899 136.634 82.1311 141.358 86.6014 145.826C82.5299 148.203 78.4466 150.056 74.2799 151.432C66.2799 154.071 57.643 155.06 47.8871 154.44C37.9823 153.815 28.893 149.889 22.9466 143.67C16.7144 137.147 14.0002 127.871 16.0418 120.038C17.4406 114.682 21.0478 110.292 26.2025 107.682C28.1549 106.693 30.2502 106.002 32.399 105.621L35.399 89.8703C35.0954 89.8762 34.7918 89.8882 34.4942 89.906C29.2025 90.186 23.9347 91.58 19.2621 93.945C10.1133 98.5738 3.68469 106.467 1.16088 116.153C-0.547455 122.718 -0.374836 129.843 1.66683 136.753C3.60135 143.306 7.11921 149.377 11.8335 154.309C16.3037 158.986 21.7799 162.715 28.1073 165.408C33.9942 167.91 40.3216 169.387 46.9228 169.804C58.6728 170.543 69.1966 169.315 79.0954 166.051C85.7799 163.847 92.2204 160.689 98.6073 156.484C103.911 160.529 109.643 163.99 116.042 166.498C122.97 169.214 129.548 170.578 135.703 170.578C139.185 170.578 142.536 170.144 145.732 169.268C154.744 166.802 162.423 160.94 168.554 151.843L172.851 145.463L160.101 136.855L160.107 136.873ZM95.7025 68.5733C93.6133 71.0574 90.8692 72.9757 88.1728 73.8454C85.4287 74.7271 82.9585 74.465 80.6252 73.0472C80.2561 72.8208 79.899 72.511 79.8097 71.7425C79.6906 70.7179 80.1371 69.5026 80.9228 68.7163C82.6906 66.9589 85.5121 65.8628 88.1133 65.8628C88.4942 65.8628 88.8692 65.8866 89.2383 65.9343C91.6013 66.244 93.8097 67.2091 95.7859 68.472C95.7561 68.5078 95.7264 68.5435 95.6966 68.5793L95.7025 68.5733Z" fill="#09681D"/>
<path d="M177.381 119.055L191 132.512C191 132.512 173.547 148.441 184.452 174.635L169.476 184.006C169.476 184.006 163.125 174.79 162.958 163.323C162.738 148.15 165.631 144.438 165.631 144.438C165.631 144.438 141.387 153.023 127.202 138.666L137.351 127.448C137.351 127.448 165.41 137.302 177.381 119.055Z" fill="#09681D"/>
<path d="M47.5891 108.117L43.5891 129.075L28.4819 126.191L32.4046 105.633C33.7557 105.389 35.1307 105.27 36.4998 105.27C39.3212 105.27 42.1307 105.782 44.7379 106.824C45.595 107.164 46.5415 107.581 47.5891 108.117Z" fill="url(#paint0_linear_262_6919)"/>
<path d="M56.7618 60.0247L50.5535 92.5749C50.5535 92.5749 46.2202 91.169 42.9106 90.5792C39.6011 89.9894 35.4106 89.8822 35.4106 89.8822L41.4821 58.0469L56.7618 60.0188V60.0247Z" fill="url(#paint1_linear_262_6919)"/>
<path d="M65.22 15.6674L56.7617 60.0247L41.4819 58.0529L48.4462 21.5353C48.4462 21.5353 50.4105 20.046 56.0772 18.0622C61.7438 16.0785 65.22 15.6734 65.22 15.6734V15.6674Z" fill="url(#paint2_linear_262_6919)"/>
<path d="M106.268 79.8324C110.94 87.8746 112.97 98.1329 111.881 108.731C110.72 120.008 106.16 130.01 99.2378 136.664L111.131 146.529C119.958 137.409 125.714 124.535 127.178 110.309C128.863 93.9569 124.69 77.9499 115.726 66.387C115.631 66.2619 115.529 66.1368 115.428 66.0117C115.428 66.0117 113.393 70.3188 111.506 73.4284C109.357 76.973 106.268 79.8324 106.268 79.8324Z" fill="url(#paint3_linear_262_6919)"/>
<path d="M79.8091 71.7366C79.6901 70.712 80.1365 69.4967 80.9222 68.7103C82.6901 66.953 85.5115 65.8568 88.1127 65.8568C88.4937 65.8568 88.8687 65.8807 89.2377 65.9283C91.6008 66.2381 93.8091 67.2032 95.7853 68.4661C95.7556 68.5018 95.7258 68.5376 95.6961 68.5733C95.6961 68.5733 98.3151 65.559 100.291 62.0085C102.267 58.458 103.267 54.985 103.267 54.985C99.4222 52.6736 95.3865 51.214 91.2437 50.6719C83.6068 49.6652 75.4937 52.3995 70.071 57.8087C65.9222 61.943 63.8568 67.8287 64.5353 73.5595L79.8091 71.7426V71.7366Z" fill="url(#paint4_linear_262_6919)"/>
<path d="M141.678 154.434C136.095 155.959 129.357 155.203 121.654 152.183C117.97 150.735 114.476 148.811 111.131 146.529C111.131 146.529 106 152.111 98.6128 156.496C103.916 160.541 109.649 164.002 116.047 166.51C122.976 169.226 129.553 170.59 135.708 170.59L141.684 154.428L141.678 154.434Z" fill="url(#paint5_linear_262_6919)"/>
<path d="M62.6484 120.014C66.327 123.737 69.9222 127.74 73.7199 131.982C77.9044 136.652 82.1365 141.376 86.6068 145.844C86.6068 145.844 89.9877 144.48 93.5056 141.626C97.4342 138.439 99.2437 136.67 99.2437 136.67C94.3746 131.97 89.7437 126.805 85.1722 121.706C81.4163 117.518 77.5294 113.181 73.583 109.189L62.6484 120.02V120.014Z" fill="url(#paint6_linear_262_6919)"/>
</g>
<defs>
<linearGradient id="paint0_linear_262_6919" x1="37.6962" y1="119.072" x2="41.1719" y2="99.7602" gradientUnits="userSpaceOnUse">
<stop stop-opacity="0"/>
<stop offset="0.85" stop-opacity="0.43"/>
<stop offset="0.96" stop-opacity="0.6"/>
</linearGradient>
<linearGradient id="paint1_linear_262_6919" x1="44.5595" y1="81.971" x2="41.1256" y2="97.5896" gradientUnits="userSpaceOnUse">
<stop stop-opacity="0"/>
<stop offset="0.85" stop-opacity="0.43"/>
<stop offset="0.96" stop-opacity="0.6"/>
</linearGradient>
<linearGradient id="paint2_linear_262_6919" x1="53.4819" y1="37.2027" x2="43.8195" y2="12.0983" gradientUnits="userSpaceOnUse">
<stop stop-opacity="0"/>
<stop offset="0.96" stop-opacity="0.6"/>
</linearGradient>
<linearGradient id="paint3_linear_262_6919" x1="112.738" y1="105.883" x2="92.6971" y2="91.5834" gradientUnits="userSpaceOnUse">
<stop stop-opacity="0"/>
<stop offset="0.85" stop-opacity="0.43"/>
<stop offset="0.96" stop-opacity="0.6"/>
</linearGradient>
<linearGradient id="paint4_linear_262_6919" x1="89.2734" y1="67.507" x2="97.0685" y2="72.2016" gradientUnits="userSpaceOnUse">
<stop stop-opacity="0"/>
<stop offset="0.85" stop-opacity="0.43"/>
<stop offset="0.96" stop-opacity="0.6"/>
</linearGradient>
<linearGradient id="paint5_linear_262_6919" x1="122.184" y1="157.496" x2="102.466" y2="137.913" gradientUnits="userSpaceOnUse">
<stop stop-opacity="0"/>
<stop offset="0.96" stop-opacity="0.6"/>
</linearGradient>
<linearGradient id="paint6_linear_262_6919" x1="85.1782" y1="133.191" x2="96.6888" y2="146.365" gradientUnits="userSpaceOnUse">
<stop offset="0.25" stop-opacity="0"/>
<stop offset="0.96" stop-opacity="0.6"/>
</linearGradient>
<clipPath id="clip0_262_6919">
<rect width="191" height="184" fill="white"/>
</clipPath>
</defs>
</svg>
